<?xml version="1.0" encoding="utf-8" standalone="no"?>
<!DOCTYPE svg PUBLIC "-//W3C//DTD SVG 1.1//EN"
  "http://www.w3.org/Graphics/SVG/1.1/DTD/svg11.dtd">
<!-- Created with matplotlib (https://matplotlib.org/) -->
<svg height="1440pt" version="1.1" viewBox="0 0 1080 1440" width="1080pt" xmlns="http://www.w3.org/2000/svg" xmlns:xlink="http://www.w3.org/1999/xlink">
 <metadata>
  <rdf:RDF xmlns:cc="http://creativecommons.org/ns#" xmlns:dc="http://purl.org/dc/elements/1.1/" xmlns:rdf="http://www.w3.org/1999/02/22-rdf-syntax-ns#">
   <cc:Work>
    <dc:type rdf:resource="http://purl.org/dc/dcmitype/StillImage"/>
    <dc:date>2022-08-11T19:09:32.907780</dc:date>
    <dc:format>image/svg+xml</dc:format>
    <dc:creator>
     <cc:Agent>
      <dc:title>Matplotlib v3.3.2, https://matplotlib.org/</dc:title>
     </cc:Agent>
    </dc:creator>
   </cc:Work>
  </rdf:RDF>
 </metadata>
 <defs>
  <style type="text/css">*{stroke-linecap:butt;stroke-linejoin:round;}</style>
 </defs>
 <g id="figure_1">
  <g id="patch_1">
   <path d="M 0 1440 
L 1080 1440 
L 1080 0 
L 0 0 
z
" style="fill:#f0f0f0;"/>
  </g>
  <g id="axes_1">
   <g id="patch_2">
    <path d="M 40.75 355.060381 
L 549.575 355.060381 
L 549.575 26.39625 
L 40.75 26.39625 
z
" style="fill:#ffffff;"/>
   </g>
   <g id="patch_3">
    <path clip-path="url(#pb642608a52)" d="M 49.230417 355.060381 
L 66.19125 355.060381 
L 66.19125 191.046398 
L 49.230417 191.046398 
z
" style="fill:#55a868;"/>
   </g>
   <g id="patch_4">
    <path clip-path="url(#pb642608a52)" d="M 83.152083 355.060381 
L 100.112917 355.060381 
L 100.112917 198.761483 
L 83.152083 198.761483 
z
" style="fill:#55a868;"/>
   </g>
   <g id="patch_5">
    <path clip-path="url(#pb642608a52)" d="M 49.230417 355.060381 
L 66.19125 355.060381 
L 66.19125 191.107226 
L 49.230417 191.107226 
z
" style="fill:#1a1a1a;"/>
   </g>
   <g id="patch_6">
    <path clip-path="url(#pb642608a52)" d="M 83.152083 355.060381 
L 100.112917 355.060381 
L 100.112917 198.943968 
L 83.152083 198.943968 
z
" style="fill:#1a1a1a;"/>
   </g>
   <g id="patch_7">
    <path clip-path="url(#pb642608a52)" d="M 49.230417 355.060381 
L 66.19125 355.060381 
L 66.19125 191.178193 
L 49.230417 191.178193 
z
" style="fill:#4c72b0;"/>
   </g>
   <g id="patch_8">
    <path clip-path="url(#pb642608a52)" d="M 83.152083 355.060381 
L 100.112917 355.060381 
L 100.112917 199.116316 
L 83.152083 199.116316 
z
" style="fill:#4c72b0;"/>
   </g>
   <g id="patch_9">
    <path clip-path="url(#pb642608a52)" d="M 49.230417 355.060381 
L 66.19125 355.060381 
L 66.19125 42.046923 
L 49.230417 42.046923 
z
" style="fill:#ccb974;"/>
   </g>
   <g id="patch_10">
    <path clip-path="url(#pb642608a52)" d="M 83.152083 355.060381 
L 100.112917 355.060381 
L 100.112917 347.760958 
L 83.152083 347.760958 
z
" style="fill:#ccb974;"/>
   </g>
   <g id="patch_11">
    <path clip-path="url(#pb642608a52)" d="M 49.230417 355.060381 
L 66.19125 355.060381 
L 66.19125 324.889432 
L 49.230417 324.889432 
z
" style="fill:#c44e52;"/>
   </g>
   <g id="patch_12">
    <path clip-path="url(#pb642608a52)" d="M 83.152083 355.060381 
L 100.112917 355.060381 
L 100.112917 324.889432 
L 83.152083 324.889432 
z
" style="fill:#c44e52;"/>
   </g>
   <g id="patch_13">
    <path clip-path="url(#pb642608a52)" d="M 117.07375 355.060381 
L 134.034583 355.060381 
L 134.034583 324.889432 
L 117.07375 324.889432 
z
" style="fill:#c44e52;"/>
   </g>
   <g id="patch_14">
    <path clip-path="url(#pb642608a52)" d="M 150.995417 355.060381 
L 167.95625 355.060381 
L 167.95625 324.929984 
L 150.995417 324.929984 
z
" style="fill:#c44e52;"/>
   </g>
   <g id="patch_15">
    <path clip-path="url(#pb642608a52)" d="M 184.917083 355.060381 
L 201.877917 355.060381 
L 201.877917 325.862688 
L 184.917083 325.862688 
z
" style="fill:#c44e52;"/>
   </g>
   <g id="patch_16">
    <path clip-path="url(#pb642608a52)" d="M 218.83875 355.060381 
L 235.799583 355.060381 
L 235.799583 325.862688 
L 218.83875 325.862688 
z
" style="fill:#c44e52;"/>
   </g>
   <g id="patch_17">
    <path clip-path="url(#pb642608a52)" d="M 252.760417 355.060381 
L 269.72125 355.060381 
L 269.72125 327.565887 
L 252.760417 327.565887 
z
" style="fill:#c44e52;"/>
   </g>
   <g id="patch_18">
    <path clip-path="url(#pb642608a52)" d="M 286.682083 355.060381 
L 303.642917 355.060381 
L 303.642917 330.363999 
L 286.682083 330.363999 
z
" style="fill:#c44e52;"/>
   </g>
   <g id="patch_19">
    <path clip-path="url(#pb642608a52)" d="M 320.60375 355.060381 
L 337.564583 355.060381 
L 337.564583 332.401755 
L 320.60375 332.401755 
z
" style="fill:#c44e52;"/>
   </g>
   <g id="patch_20">
    <path clip-path="url(#pb642608a52)" d="M 354.525417 355.060381 
L 371.48625 355.060381 
L 371.48625 332.432169 
L 354.525417 332.432169 
z
" style="fill:#c44e52;"/>
   </g>
   <g id="patch_21">
    <path clip-path="url(#pb642608a52)" d="M 388.447083 355.060381 
L 405.407917 355.060381 
L 405.407917 333.162111 
L 388.447083 333.162111 
z
" style="fill:#c44e52;"/>
   </g>
   <g id="patch_22">
    <path clip-path="url(#pb642608a52)" d="M 422.36875 355.060381 
L 439.329583 355.060381 
L 439.329583 333.162111 
L 422.36875 333.162111 
z
" style="fill:#c44e52;"/>
   </g>
   <g id="patch_23">
    <path clip-path="url(#pb642608a52)" d="M 49.230417 355.060381 
L 66.19125 355.060381 
L 66.19125 344.35456 
L 49.230417 344.35456 
z
" style="fill:#64b5cd;"/>
   </g>
   <g id="patch_24">
    <path clip-path="url(#pb642608a52)" d="M 83.152083 355.060381 
L 100.112917 355.060381 
L 100.112917 344.35456 
L 83.152083 344.35456 
z
" style="fill:#64b5cd;"/>
   </g>
   <g id="patch_25">
    <path clip-path="url(#pb642608a52)" d="M 117.07375 355.060381 
L 134.034583 355.060381 
L 134.034583 344.35456 
L 117.07375 344.35456 
z
" style="fill:#64b5cd;"/>
   </g>
   <g id="patch_26">
    <path clip-path="url(#pb642608a52)" d="M 150.995417 355.060381 
L 167.95625 355.060381 
L 167.95625 344.35456 
L 150.995417 344.35456 
z
" style="fill:#64b5cd;"/>
   </g>
   <g id="patch_27">
    <path clip-path="url(#pb642608a52)" d="M 184.917083 355.060381 
L 201.877917 355.060381 
L 201.877917 344.35456 
L 184.917083 344.35456 
z
" style="fill:#64b5cd;"/>
   </g>
   <g id="patch_28">
    <path clip-path="url(#pb642608a52)" d="M 218.83875 355.060381 
L 235.799583 355.060381 
L 235.799583 344.35456 
L 218.83875 344.35456 
z
" style="fill:#64b5cd;"/>
   </g>
   <g id="patch_29">
    <path clip-path="url(#pb642608a52)" d="M 252.760417 355.060381 
L 269.72125 355.060381 
L 269.72125 344.35456 
L 252.760417 344.35456 
z
" style="fill:#64b5cd;"/>
   </g>
   <g id="patch_30">
    <path clip-path="url(#pb642608a52)" d="M 286.682083 355.060381 
L 303.642917 355.060381 
L 303.642917 344.35456 
L 286.682083 344.35456 
z
" style="fill:#64b5cd;"/>
   </g>
   <g id="patch_31">
    <path clip-path="url(#pb642608a52)" d="M 320.60375 355.060381 
L 337.564583 355.060381 
L 337.564583 344.476217 
L 320.60375 344.476217 
z
" style="fill:#64b5cd;"/>
   </g>
   <g id="patch_32">
    <path clip-path="url(#pb642608a52)" d="M 354.525417 355.060381 
L 371.48625 355.060381 
L 371.48625 344.587736 
L 354.525417 344.587736 
z
" style="fill:#64b5cd;"/>
   </g>
   <g id="patch_33">
    <path clip-path="url(#pb642608a52)" d="M 388.447083 355.060381 
L 405.407917 355.060381 
L 405.407917 344.597874 
L 388.447083 344.597874 
z
" style="fill:#64b5cd;"/>
   </g>
   <g id="patch_34">
    <path clip-path="url(#pb642608a52)" d="M 422.36875 355.060381 
L 439.329583 355.060381 
L 439.329583 344.597874 
L 422.36875 344.597874 
z
" style="fill:#64b5cd;"/>
   </g>
   <g id="patch_35">
    <path clip-path="url(#pb642608a52)" d="M 456.290417 355.060381 
L 473.25125 355.060381 
L 473.25125 344.597874 
L 456.290417 344.597874 
z
" style="fill:#64b5cd;"/>
   </g>
   <g id="patch_36">
    <path clip-path="url(#pb642608a52)" d="M 490.212083 355.060381 
L 507.172917 355.060381 
L 507.172917 344.597874 
L 490.212083 344.597874 
z
" style="fill:#64b5cd;"/>
   </g>
   <g id="patch_37">
    <path clip-path="url(#pb642608a52)" d="M 524.13375 355.060381 
L 541.094583 355.060381 
L 541.094583 344.597874 
L 524.13375 344.597874 
z
" style="fill:#64b5cd;"/>
   </g>
   <g id="patch_38">
    <path clip-path="url(#pb642608a52)" d="M 49.230417 355.060381 
L 66.19125 355.060381 
L 66.19125 309.195672 
L 49.230417 309.195672 
z
" style="fill:#8172b3;"/>
   </g>
   <g id="patch_39">
    <path clip-path="url(#pb642608a52)" d="M 83.152083 355.060381 
L 100.112917 355.060381 
L 100.112917 309.317329 
L 83.152083 309.317329 
z
" style="fill:#8172b3;"/>
   </g>
   <g id="patch_40">
    <path clip-path="url(#pb642608a52)" d="M 117.07375 355.060381 
L 134.034583 355.060381 
L 134.034583 309.317329 
L 117.07375 309.317329 
z
" style="fill:#8172b3;"/>
   </g>
   <g id="patch_41">
    <path clip-path="url(#pb642608a52)" d="M 150.995417 355.060381 
L 167.95625 355.060381 
L 167.95625 309.317329 
L 150.995417 309.317329 
z
" style="fill:#8172b3;"/>
   </g>
   <g id="patch_42">
    <path clip-path="url(#pb642608a52)" d="M 184.917083 355.060381 
L 201.877917 355.060381 
L 201.877917 309.317329 
L 184.917083 309.317329 
z
" style="fill:#8172b3;"/>
   </g>
   <g id="patch_43">
    <path clip-path="url(#pb642608a52)" d="M 218.83875 355.060381 
L 235.799583 355.060381 
L 235.799583 309.317329 
L 218.83875 309.317329 
z
" style="fill:#8172b3;"/>
   </g>
   <g id="patch_44">
    <path clip-path="url(#pb642608a52)" d="M 252.760417 355.060381 
L 269.72125 355.060381 
L 269.72125 309.327467 
L 252.760417 309.327467 
z
" style="fill:#8172b3;"/>
   </g>
   <g id="patch_45">
    <path clip-path="url(#pb642608a52)" d="M 49.230417 355.060381 
L 66.19125 355.060381 
L 66.19125 341.708519 
L 49.230417 341.708519 
z
" style="fill:#55a868;"/>
   </g>
   <g id="patch_46">
    <path clip-path="url(#pb642608a52)" d="M 83.152083 355.060381 
L 100.112917 355.060381 
L 100.112917 341.708519 
L 83.152083 341.708519 
z
" style="fill:#55a868;"/>
   </g>
   <g id="patch_47">
    <path clip-path="url(#pb642608a52)" d="M 117.07375 355.060381 
L 134.034583 355.060381 
L 134.034583 341.708519 
L 117.07375 341.708519 
z
" style="fill:#55a868;"/>
   </g>
   <g id="patch_48">
    <path clip-path="url(#pb642608a52)" d="M 150.995417 355.060381 
L 167.95625 355.060381 
L 167.95625 341.708519 
L 150.995417 341.708519 
z
" style="fill:#55a868;"/>
   </g>
   <g id="patch_49">
    <path clip-path="url(#pb642608a52)" d="M 184.917083 355.060381 
L 201.877917 355.060381 
L 201.877917 341.708519 
L 184.917083 341.708519 
z
" style="fill:#55a868;"/>
   </g>
   <g id="patch_50">
    <path clip-path="url(#pb642608a52)" d="M 218.83875 355.060381 
L 235.799583 355.060381 
L 235.799583 341.708519 
L 218.83875 341.708519 
z
" style="fill:#55a868;"/>
   </g>
   <g id="patch_51">
    <path clip-path="url(#pb642608a52)" d="M 252.760417 355.060381 
L 269.72125 355.060381 
L 269.72125 341.708519 
L 252.760417 341.708519 
z
" style="fill:#55a868;"/>
   </g>
   <g id="patch_52">
    <path clip-path="url(#pb642608a52)" d="M 286.682083 355.060381 
L 303.642917 355.060381 
L 303.642917 341.708519 
L 286.682083 341.708519 
z
" style="fill:#55a868;"/>
   </g>
   <g id="patch_53">
    <path clip-path="url(#pb642608a52)" d="M 320.60375 355.060381 
L 337.564583 355.060381 
L 337.564583 341.708519 
L 320.60375 341.708519 
z
" style="fill:#55a868;"/>
   </g>
   <g id="patch_54">
    <path clip-path="url(#pb642608a52)" d="M 354.525417 355.060381 
L 371.48625 355.060381 
L 371.48625 341.708519 
L 354.525417 341.708519 
z
" style="fill:#55a868;"/>
   </g>
   <g id="patch_55">
    <path clip-path="url(#pb642608a52)" d="M 388.447083 355.060381 
L 405.407917 355.060381 
L 405.407917 341.708519 
L 388.447083 341.708519 
z
" style="fill:#55a868;"/>
   </g>
   <g id="patch_56">
    <path clip-path="url(#pb642608a52)" d="M 422.36875 355.060381 
L 439.329583 355.060381 
L 439.329583 341.718657 
L 422.36875 341.718657 
z
" style="fill:#55a868;"/>
   </g>
   <g id="patch_57">
    <path clip-path="url(#pb642608a52)" d="M 456.290417 355.060381 
L 473.25125 355.060381 
L 473.25125 341.718657 
L 456.290417 341.718657 
z
" style="fill:#55a868;"/>
   </g>
   <g id="patch_58">
    <path clip-path="url(#pb642608a52)" d="M 490.212083 355.060381 
L 507.172917 355.060381 
L 507.172917 341.718657 
L 490.212083 341.718657 
z
" style="fill:#55a868;"/>
   </g>
   <g id="patch_59">
    <path clip-path="url(#pb642608a52)" d="M 524.13375 355.060381 
L 541.094583 355.060381 
L 541.094583 341.718657 
L 524.13375 341.718657 
z
" style="fill:#55a868;"/>
   </g>
   <g id="matplotlib.axis_1">
    <g id="xtick_1">
     <g id="line2d_1">
      <defs>
       <path d="M 0 0 
L 0 3.5 
" id="m2c8d62bfc0" style="stroke:#58544f;stroke-width:0.8;"/>
      </defs>
      <g>
       <use style="fill:#58544f;stroke:#58544f;stroke-width:0.8;" x="57.710833" xlink:href="#m2c8d62bfc0" y="355.060381"/>
      </g>
     </g>
     <g id="text_1">
      <!-- 0 -->
      <g style="fill:#58544f;" transform="translate(53.346217 369.518589)rotate(-45)scale(0.08 -0.08)">
       <defs>
        <path d="M 51.65625 29.9375 
Q 51.65625 14.59375 45.921875 6.796875 
Q 40.1875 -0.984375 28.46875 -0.984375 
Q 16.9375 -0.984375 11.109375 6.609375 
Q 5.28125 14.203125 5.125 29.109375 
L 5.125 41.40625 
Q 5.125 56.734375 10.859375 64.40625 
Q 16.609375 72.078125 28.375 72.078125 
Q 40.046875 72.078125 45.78125 64.59375 
Q 51.515625 57.125 51.65625 42.234375 
z
M 39.796875 43.21875 
Q 39.796875 53.21875 37.0625 57.875 
Q 34.328125 62.546875 28.375 62.546875 
Q 22.5625 62.546875 19.828125 58.125 
Q 17.09375 53.71875 16.9375 44.34375 
L 16.9375 28.21875 
Q 16.9375 18.265625 19.71875 13.375 
Q 22.515625 8.5 28.46875 8.5 
Q 34.1875 8.5 36.921875 13.015625 
Q 39.65625 17.53125 39.796875 27.15625 
z
" id="Roboto-Medium-48"/>
       </defs>
       <use xlink:href="#Roboto-Medium-48"/>
      </g>
     </g>
    </g>
    <g id="xtick_2">
     <g id="line2d_2">
      <g>
       <use style="fill:#58544f;stroke:#58544f;stroke-width:0.8;" x="91.6325" xlink:href="#m2c8d62bfc0" y="355.060381"/>
      </g>
     </g>
     <g id="text_2">
      <!-- 1 -->
      <g style="fill:#58544f;" transform="translate(87.267883 369.518589)rotate(-45)scale(0.08 -0.08)">
       <defs>
        <path d="M 37.453125 0 
L 25.640625 0 
L 25.640625 57.078125 
L 8.203125 51.125 
L 8.203125 61.140625 
L 35.9375 71.34375 
L 37.453125 71.34375 
z
" id="Roboto-Medium-49"/>
       </defs>
       <use xlink:href="#Roboto-Medium-49"/>
      </g>
     </g>
    </g>
    <g id="xtick_3">
     <g id="line2d_3">
      <g>
       <use style="fill:#58544f;stroke:#58544f;stroke-width:0.8;" x="125.554167" xlink:href="#m2c8d62bfc0" y="355.060381"/>
      </g>
     </g>
     <g id="text_3">
      <!-- 11 -->
      <g style="fill:#58544f;" transform="translate(117.973982 372.734158)rotate(-45)scale(0.08 -0.08)">
       <use xlink:href="#Roboto-Medium-49"/>
       <use x="56.835938" xlink:href="#Roboto-Medium-49"/>
      </g>
     </g>
    </g>
    <g id="xtick_4">
     <g id="line2d_4">
      <g>
       <use style="fill:#58544f;stroke:#58544f;stroke-width:0.8;" x="159.475833" xlink:href="#m2c8d62bfc0" y="355.060381"/>
      </g>
     </g>
     <g id="text_4">
      <!-- 10 -->
      <g style="fill:#58544f;" transform="translate(151.895649 372.734158)rotate(-45)scale(0.08 -0.08)">
       <use xlink:href="#Roboto-Medium-49"/>
       <use x="56.835938" xlink:href="#Roboto-Medium-48"/>
      </g>
     </g>
    </g>
    <g id="xtick_5">
     <g id="line2d_5">
      <g>
       <use style="fill:#58544f;stroke:#58544f;stroke-width:0.8;" x="193.3975" xlink:href="#m2c8d62bfc0" y="355.060381"/>
      </g>
     </g>
     <g id="text_5">
      <!-- 9 -->
      <g style="fill:#58544f;" transform="translate(189.032883 369.518589)rotate(-45)scale(0.08 -0.08)">
       <defs>
        <path d="M 38.96875 29.734375 
Q 33.015625 23.4375 25.046875 23.4375 
Q 15.671875 23.4375 10.109375 30 
Q 4.546875 36.578125 4.546875 47.265625 
Q 4.546875 54.296875 7.375 60 
Q 10.203125 65.71875 15.421875 68.890625 
Q 20.65625 72.078125 27.546875 72.078125 
Q 38.28125 72.078125 44.578125 64.0625 
Q 50.875 56.0625 50.875 42.625 
L 50.875 39.3125 
Q 50.875 20.0625 42.1875 9.953125 
Q 33.5 -0.140625 16.265625 -0.296875 
L 14.84375 -0.296875 
L 14.84375 9.515625 
L 16.546875 9.515625 
Q 27.046875 9.671875 32.65625 14.578125 
Q 38.28125 19.484375 38.96875 29.734375 
z
M 27.546875 32.71875 
Q 31.109375 32.71875 34.234375 34.765625 
Q 37.359375 36.8125 39.0625 40.4375 
L 39.0625 45.0625 
Q 39.0625 52.9375 35.84375 57.71875 
Q 32.625 62.5 27.484375 62.5 
Q 22.359375 62.5 19.3125 58.265625 
Q 16.265625 54.046875 16.265625 47.609375 
Q 16.265625 40.921875 19.328125 36.8125 
Q 22.40625 32.71875 27.546875 32.71875 
z
" id="Roboto-Medium-57"/>
       </defs>
       <use xlink:href="#Roboto-Medium-57"/>
      </g>
     </g>
    </g>
    <g id="xtick_6">
     <g id="line2d_6">
      <g>
       <use style="fill:#58544f;stroke:#58544f;stroke-width:0.8;" x="227.319167" xlink:href="#m2c8d62bfc0" y="355.060381"/>
      </g>
     </g>
     <g id="text_6">
      <!-- 8 -->
      <g style="fill:#58544f;" transform="translate(222.95455 369.518589)rotate(-45)scale(0.08 -0.08)">
       <defs>
        <path d="M 50.09375 52.34375 
Q 50.09375 47.125 47.40625 43.046875 
Q 44.734375 38.96875 40.09375 36.625 
Q 45.65625 34.03125 48.65625 29.53125 
Q 51.65625 25.046875 51.65625 19.390625 
Q 51.65625 10.015625 45.3125 4.515625 
Q 38.96875 -0.984375 28.421875 -0.984375 
Q 17.828125 -0.984375 11.453125 4.53125 
Q 5.078125 10.0625 5.078125 19.390625 
Q 5.078125 25.09375 8.109375 29.640625 
Q 11.140625 34.1875 16.609375 36.625 
Q 12.015625 38.96875 9.34375 43.046875 
Q 6.6875 47.125 6.6875 52.34375 
Q 6.6875 61.421875 12.546875 66.75 
Q 18.40625 72.078125 28.375 72.078125 
Q 38.375 72.078125 44.234375 66.75 
Q 50.09375 61.421875 50.09375 52.34375 
z
M 39.796875 19.96875 
Q 39.796875 25.25 36.640625 28.484375 
Q 33.5 31.734375 28.3125 31.734375 
Q 23.140625 31.734375 20.03125 28.515625 
Q 16.9375 25.296875 16.9375 19.96875 
Q 16.9375 14.75 19.984375 11.625 
Q 23.046875 8.5 28.421875 8.5 
Q 33.796875 8.5 36.796875 11.515625 
Q 39.796875 14.546875 39.796875 19.96875 
z
M 38.28125 51.90625 
Q 38.28125 56.546875 35.59375 59.546875 
Q 32.90625 62.546875 28.359375 62.546875 
Q 23.828125 62.546875 21.1875 59.6875 
Q 18.5625 56.84375 18.5625 51.90625 
Q 18.5625 47.015625 21.21875 44.140625 
Q 23.875 41.265625 28.40625 41.265625 
Q 32.953125 41.265625 35.609375 44.140625 
Q 38.28125 47.015625 38.28125 51.90625 
z
" id="Roboto-Medium-56"/>
       </defs>
       <use xlink:href="#Roboto-Medium-56"/>
      </g>
     </g>
    </g>
    <g id="xtick_7">
     <g id="line2d_7">
      <g>
       <use style="fill:#58544f;stroke:#58544f;stroke-width:0.8;" x="261.240833" xlink:href="#m2c8d62bfc0" y="355.060381"/>
      </g>
     </g>
     <g id="text_7">
      <!-- 7 -->
      <g style="fill:#58544f;" transform="translate(256.876217 369.518589)rotate(-45)scale(0.08 -0.08)">
       <defs>
        <path d="M 52.640625 64.5 
L 24.21875 0 
L 11.765625 0 
L 40.140625 61.578125 
L 3.375 61.578125 
L 3.375 71.09375 
L 52.640625 71.09375 
z
" id="Roboto-Medium-55"/>
       </defs>
       <use xlink:href="#Roboto-Medium-55"/>
      </g>
     </g>
    </g>
    <g id="xtick_8">
     <g id="line2d_8">
      <g>
       <use style="fill:#58544f;stroke:#58544f;stroke-width:0.8;" x="295.1625" xlink:href="#m2c8d62bfc0" y="355.060381"/>
      </g>
     </g>
     <g id="text_8">
      <!-- 6 -->
      <g style="fill:#58544f;" transform="translate(290.797883 369.518589)rotate(-45)scale(0.08 -0.08)">
       <defs>
        <path d="M 42.234375 71.4375 
L 42.234375 61.625 
L 40.765625 61.625 
Q 30.8125 61.46875 24.84375 56.140625 
Q 18.890625 50.828125 17.78125 41.0625 
Q 23.484375 47.078125 32.375 47.078125 
Q 41.796875 47.078125 47.234375 40.4375 
Q 52.6875 33.796875 52.6875 23.296875 
Q 52.6875 12.453125 46.3125 5.734375 
Q 39.9375 -0.984375 29.59375 -0.984375 
Q 18.953125 -0.984375 12.328125 6.875 
Q 5.71875 14.75 5.71875 27.484375 
L 5.71875 31.546875 
Q 5.71875 50.25 14.8125 60.84375 
Q 23.921875 71.4375 41.015625 71.4375 
z
M 29.5 37.5 
Q 25.59375 37.5 22.34375 35.296875 
Q 19.09375 33.109375 17.578125 29.4375 
L 17.578125 25.828125 
Q 17.578125 17.921875 20.890625 13.25 
Q 24.21875 8.59375 29.484375 8.59375 
Q 34.765625 8.59375 37.84375 12.546875 
Q 40.921875 16.5 40.921875 22.9375 
Q 40.921875 29.390625 37.796875 33.4375 
Q 34.671875 37.5 29.5 37.5 
z
" id="Roboto-Medium-54"/>
       </defs>
       <use xlink:href="#Roboto-Medium-54"/>
      </g>
     </g>
    </g>
    <g id="xtick_9">
     <g id="line2d_9">
      <g>
       <use style="fill:#58544f;stroke:#58544f;stroke-width:0.8;" x="329.084167" xlink:href="#m2c8d62bfc0" y="355.060381"/>
      </g>
     </g>
     <g id="text_9">
      <!-- 5 -->
      <g style="fill:#58544f;" transform="translate(324.71955 369.518589)rotate(-45)scale(0.08 -0.08)">
       <defs>
        <path d="M 8.5 35.25 
L 12.359375 71.09375 
L 50.53125 71.09375 
L 50.53125 60.84375 
L 22.21875 60.84375 
L 20.265625 43.84375 
Q 25.203125 46.6875 31.390625 46.6875 
Q 41.546875 46.6875 47.1875 40.1875 
Q 52.828125 33.6875 52.828125 22.703125 
Q 52.828125 11.859375 46.578125 5.4375 
Q 40.328125 -0.984375 29.4375 -0.984375 
Q 19.671875 -0.984375 13.25 4.5625 
Q 6.84375 10.109375 6.296875 19.1875 
L 17.78125 19.1875 
Q 18.453125 14.015625 21.484375 11.25 
Q 24.515625 8.5 29.390625 8.5 
Q 34.859375 8.5 37.90625 12.40625 
Q 40.96875 16.3125 40.96875 23.046875 
Q 40.96875 29.546875 37.59375 33.328125 
Q 34.234375 37.109375 28.328125 37.109375 
Q 25.09375 37.109375 22.84375 36.25 
Q 20.609375 35.40625 17.96875 32.90625 
z
" id="Roboto-Medium-53"/>
       </defs>
       <use xlink:href="#Roboto-Medium-53"/>
      </g>
     </g>
    </g>
    <g id="xtick_10">
     <g id="line2d_10">
      <g>
       <use style="fill:#58544f;stroke:#58544f;stroke-width:0.8;" x="363.005833" xlink:href="#m2c8d62bfc0" y="355.060381"/>
      </g>
     </g>
     <g id="text_10">
      <!-- 3 -->
      <g style="fill:#58544f;" transform="translate(358.641217 369.518589)rotate(-45)scale(0.08 -0.08)">
       <defs>
        <path d="M 19.046875 40.96875 
L 26.265625 40.96875 
Q 31.734375 41.015625 34.9375 43.796875 
Q 38.140625 46.578125 38.140625 51.859375 
Q 38.140625 56.9375 35.46875 59.734375 
Q 32.8125 62.546875 27.34375 62.546875 
Q 22.5625 62.546875 19.484375 59.78125 
Q 16.40625 57.03125 16.40625 52.59375 
L 4.546875 52.59375 
Q 4.546875 58.0625 7.453125 62.546875 
Q 10.359375 67.046875 15.546875 69.5625 
Q 20.75 72.078125 27.203125 72.078125 
Q 37.84375 72.078125 43.921875 66.71875 
Q 50 61.375 50 51.859375 
Q 50 47.078125 46.9375 42.84375 
Q 43.890625 38.625 39.0625 36.46875 
Q 44.921875 34.46875 47.96875 30.171875 
Q 51.03125 25.875 51.03125 19.921875 
Q 51.03125 10.359375 44.453125 4.6875 
Q 37.890625 -0.984375 27.203125 -0.984375 
Q 16.9375 -0.984375 10.390625 4.484375 
Q 3.859375 9.96875 3.859375 19.046875 
L 15.71875 19.046875 
Q 15.71875 14.359375 18.859375 11.421875 
Q 22.015625 8.5 27.34375 8.5 
Q 32.859375 8.5 36.03125 11.421875 
Q 39.203125 14.359375 39.203125 19.921875 
Q 39.203125 25.53125 35.875 28.5625 
Q 32.5625 31.59375 26.03125 31.59375 
L 19.046875 31.59375 
z
" id="Roboto-Medium-51"/>
       </defs>
       <use xlink:href="#Roboto-Medium-51"/>
      </g>
     </g>
    </g>
    <g id="xtick_11">
     <g id="line2d_11">
      <g>
       <use style="fill:#58544f;stroke:#58544f;stroke-width:0.8;" x="396.9275" xlink:href="#m2c8d62bfc0" y="355.060381"/>
      </g>
     </g>
     <g id="text_11">
      <!-- 4 -->
      <g style="fill:#58544f;" transform="translate(392.562883 369.518589)rotate(-45)scale(0.08 -0.08)">
       <defs>
        <path d="M 45.453125 25.34375 
L 54.296875 25.34375 
L 54.296875 15.828125 
L 45.453125 15.828125 
L 45.453125 0 
L 33.59375 0 
L 33.59375 15.828125 
L 2.875 15.828125 
L 2.546875 23.046875 
L 33.203125 71.09375 
L 45.453125 71.09375 
z
M 14.984375 25.34375 
L 33.59375 25.34375 
L 33.59375 55.03125 
L 32.71875 53.46875 
z
" id="Roboto-Medium-52"/>
       </defs>
       <use xlink:href="#Roboto-Medium-52"/>
      </g>
     </g>
    </g>
    <g id="xtick_12">
     <g id="line2d_12">
      <g>
       <use style="fill:#58544f;stroke:#58544f;stroke-width:0.8;" x="430.849167" xlink:href="#m2c8d62bfc0" y="355.060381"/>
      </g>
     </g>
     <g id="text_12">
      <!-- 19 -->
      <g style="fill:#58544f;" transform="translate(423.268982 372.734158)rotate(-45)scale(0.08 -0.08)">
       <use xlink:href="#Roboto-Medium-49"/>
       <use x="56.835938" xlink:href="#Roboto-Medium-57"/>
      </g>
     </g>
    </g>
    <g id="xtick_13">
     <g id="line2d_13">
      <g>
       <use style="fill:#58544f;stroke:#58544f;stroke-width:0.8;" x="464.770833" xlink:href="#m2c8d62bfc0" y="355.060381"/>
      </g>
     </g>
     <g id="text_13">
      <!-- 16 -->
      <g style="fill:#58544f;" transform="translate(457.190649 372.734158)rotate(-45)scale(0.08 -0.08)">
       <use xlink:href="#Roboto-Medium-49"/>
       <use x="56.835938" xlink:href="#Roboto-Medium-54"/>
      </g>
     </g>
    </g>
    <g id="xtick_14">
     <g id="line2d_14">
      <g>
       <use style="fill:#58544f;stroke:#58544f;stroke-width:0.8;" x="498.6925" xlink:href="#m2c8d62bfc0" y="355.060381"/>
      </g>
     </g>
     <g id="text_14">
      <!-- 17 -->
      <g style="fill:#58544f;" transform="translate(491.112315 372.734158)rotate(-45)scale(0.08 -0.08)">
       <use xlink:href="#Roboto-Medium-49"/>
       <use x="56.835938" xlink:href="#Roboto-Medium-55"/>
      </g>
     </g>
    </g>
    <g id="xtick_15">
     <g id="line2d_15">
      <g>
       <use style="fill:#58544f;stroke:#58544f;stroke-width:0.8;" x="532.614167" xlink:href="#m2c8d62bfc0" y="355.060381"/>
      </g>
     </g>
     <g id="text_15">
      <!-- 2 -->
      <g style="fill:#58544f;" transform="translate(528.24955 369.518589)rotate(-45)scale(0.08 -0.08)">
       <defs>
        <path d="M 53.125 0 
L 5.328125 0 
L 5.328125 8.15625 
L 29 33.984375 
Q 34.125 39.703125 36.296875 43.53125 
Q 38.484375 47.359375 38.484375 51.21875 
Q 38.484375 56.296875 35.625 59.421875 
Q 32.765625 62.546875 27.9375 62.546875 
Q 22.171875 62.546875 19 59.03125 
Q 15.828125 55.515625 15.828125 49.421875 
L 3.953125 49.421875 
Q 3.953125 55.90625 6.90625 61.109375 
Q 9.859375 66.3125 15.34375 69.1875 
Q 20.84375 72.078125 28.03125 72.078125 
Q 38.375 72.078125 44.359375 66.875 
Q 50.34375 61.671875 50.34375 52.484375 
Q 50.34375 47.171875 47.34375 41.328125 
Q 44.34375 35.5 37.5 28.078125 
L 20.125 9.46875 
L 53.125 9.46875 
z
" id="Roboto-Medium-50"/>
       </defs>
       <use xlink:href="#Roboto-Medium-50"/>
      </g>
     </g>
    </g>
   </g>
   <g id="matplotlib.axis_2">
    <g id="ytick_1">
     <g id="line2d_16">
      <defs>
       <path d="M 0 0 
L -3.5 0 
" id="mb999311c91" style="stroke:#58544f;stroke-width:0.8;"/>
      </defs>
      <g>
       <use style="fill:#58544f;stroke:#58544f;stroke-width:0.8;" x="40.75" xlink:href="#mb999311c91" y="355.060381"/>
      </g>
     </g>
     <g id="text_16">
      <!-- 0 -->
      <g style="fill:#58544f;" transform="translate(29.2025 358.060381)scale(0.08 -0.08)">
       <use xlink:href="#Roboto-Medium-48"/>
      </g>
     </g>
    </g>
    <g id="ytick_2">
     <g id="line2d_17">
      <g>
       <use style="fill:#58544f;stroke:#58544f;stroke-width:0.8;" x="40.75" xlink:href="#mb999311c91" y="304.369942"/>
      </g>
     </g>
     <g id="text_17">
      <!-- 5000 -->
      <g style="fill:#58544f;" transform="translate(15.56 307.369942)scale(0.08 -0.08)">
       <use xlink:href="#Roboto-Medium-53"/>
       <use x="56.835938" xlink:href="#Roboto-Medium-48"/>
       <use x="113.671875" xlink:href="#Roboto-Medium-48"/>
       <use x="170.507812" xlink:href="#Roboto-Medium-48"/>
      </g>
     </g>
    </g>
    <g id="ytick_3">
     <g id="line2d_18">
      <g>
       <use style="fill:#58544f;stroke:#58544f;stroke-width:0.8;" x="40.75" xlink:href="#mb999311c91" y="253.679504"/>
      </g>
     </g>
     <g id="text_18">
      <!-- 10000 -->
      <g style="fill:#58544f;" transform="translate(11.0125 256.679504)scale(0.08 -0.08)">
       <use xlink:href="#Roboto-Medium-49"/>
       <use x="56.835938" xlink:href="#Roboto-Medium-48"/>
       <use x="113.671875" xlink:href="#Roboto-Medium-48"/>
       <use x="170.507812" xlink:href="#Roboto-Medium-48"/>
       <use x="227.34375" xlink:href="#Roboto-Medium-48"/>
      </g>
     </g>
    </g>
    <g id="ytick_4">
     <g id="line2d_19">
      <g>
       <use style="fill:#58544f;stroke:#58544f;stroke-width:0.8;" x="40.75" xlink:href="#mb999311c91" y="202.989065"/>
      </g>
     </g>
     <g id="text_19">
      <!-- 15000 -->
      <g style="fill:#58544f;" transform="translate(11.0125 205.989065)scale(0.08 -0.08)">
       <use xlink:href="#Roboto-Medium-49"/>
       <use x="56.835938" xlink:href="#Roboto-Medium-53"/>
       <use x="113.671875" xlink:href="#Roboto-Medium-48"/>
       <use x="170.507812" xlink:href="#Roboto-Medium-48"/>
       <use x="227.34375" xlink:href="#Roboto-Medium-48"/>
      </g>
     </g>
    </g>
    <g id="ytick_5">
     <g id="line2d_20">
      <g>
       <use style="fill:#58544f;stroke:#58544f;stroke-width:0.8;" x="40.75" xlink:href="#mb999311c91" y="152.298627"/>
      </g>
     </g>
     <g id="text_20">
      <!-- 20000 -->
      <g style="fill:#58544f;" transform="translate(11.0125 155.298627)scale(0.08 -0.08)">
       <use xlink:href="#Roboto-Medium-50"/>
       <use x="56.835938" xlink:href="#Roboto-Medium-48"/>
       <use x="113.671875" xlink:href="#Roboto-Medium-48"/>
       <use x="170.507812" xlink:href="#Roboto-Medium-48"/>
       <use x="227.34375" xlink:href="#Roboto-Medium-48"/>
      </g>
     </g>
    </g>
    <g id="ytick_6">
     <g id="line2d_21">
      <g>
       <use style="fill:#58544f;stroke:#58544f;stroke-width:0.8;" x="40.75" xlink:href="#mb999311c91" y="101.608188"/>
      </g>
     </g>
     <g id="text_21">
      <!-- 25000 -->
      <g style="fill:#58544f;" transform="translate(11.0125 104.608188)scale(0.08 -0.08)">
       <use xlink:href="#Roboto-Medium-50"/>
       <use x="56.835938" xlink:href="#Roboto-Medium-53"/>
       <use x="113.671875" xlink:href="#Roboto-Medium-48"/>
       <use x="170.507812" xlink:href="#Roboto-Medium-48"/>
       <use x="227.34375" xlink:href="#Roboto-Medium-48"/>
      </g>
     </g>
    </g>
    <g id="ytick_7">
     <g id="line2d_22">
      <g>
       <use style="fill:#58544f;stroke:#58544f;stroke-width:0.8;" x="40.75" xlink:href="#mb999311c91" y="50.91775"/>
      </g>
     </g>
     <g id="text_22">
      <!-- 30000 -->
      <g style="fill:#58544f;" transform="translate(11.0125 53.91775)scale(0.08 -0.08)">
       <use xlink:href="#Roboto-Medium-51"/>
       <use x="56.835938" xlink:href="#Roboto-Medium-48"/>
       <use x="113.671875" xlink:href="#Roboto-Medium-48"/>
       <use x="170.507812" xlink:href="#Roboto-Medium-48"/>
       <use x="227.34375" xlink:href="#Roboto-Medium-48"/>
      </g>
     </g>
    </g>
   </g>
   <g id="patch_60">
    <path d="M 40.75 355.060381 
L 40.75 26.39625 
" style="fill:none;stroke:#58544f;stroke-linecap:square;stroke-linejoin:miter;stroke-width:0.8;"/>
   </g>
   <g id="patch_61">
    <path d="M 549.575 355.060381 
L 549.575 26.39625 
" style="fill:none;stroke:#58544f;stroke-linecap:square;stroke-linejoin:miter;stroke-width:0.8;"/>
   </g>
   <g id="patch_62">
    <path d="M 40.75 355.060381 
L 549.575 355.060381 
" style="fill:none;stroke:#58544f;stroke-linecap:square;stroke-linejoin:miter;stroke-width:0.8;"/>
   </g>
   <g id="patch_63">
    <path d="M 40.75 26.39625 
L 549.575 26.39625 
" style="fill:none;stroke:#58544f;stroke-linecap:square;stroke-linejoin:miter;stroke-width:0.8;"/>
   </g>
   <g id="text_23">
    <!-- Distribution of Hour (top 15 categories only) -->
    <g style="fill:#262626;" transform="translate(176.955937 20.39625)scale(0.12 -0.12)">
     <defs>
      <path d="M 7.234375 0 
L 7.234375 71.09375 
L 28.21875 71.09375 
Q 37.640625 71.09375 44.9375 66.890625 
Q 52.25 62.703125 56.25 54.984375 
Q 60.25 47.265625 60.25 37.3125 
L 60.25 33.734375 
Q 60.25 23.640625 56.21875 15.96875 
Q 52.203125 8.296875 44.75 4.140625 
Q 37.3125 0 27.6875 0 
z
M 19.578125 61.140625 
L 19.578125 9.859375 
L 27.640625 9.859375 
Q 37.359375 9.859375 42.546875 15.9375 
Q 47.75 22.015625 47.859375 33.40625 
L 47.859375 37.359375 
Q 47.859375 48.921875 42.828125 55.03125 
Q 37.796875 61.140625 28.21875 61.140625 
z
" id="Roboto-Medium-68"/>
      <path d="M 18.703125 0 
L 6.84375 0 
L 6.84375 52.828125 
L 18.703125 52.828125 
z
M 6.109375 66.546875 
Q 6.109375 69.28125 7.84375 71.09375 
Q 9.578125 72.90625 12.796875 72.90625 
Q 16.015625 72.90625 17.765625 71.09375 
Q 19.53125 69.28125 19.53125 66.546875 
Q 19.53125 63.875 17.765625 62.078125 
Q 16.015625 60.296875 12.796875 60.296875 
Q 9.578125 60.296875 7.84375 62.078125 
Q 6.109375 63.875 6.109375 66.546875 
z
" id="Roboto-Medium-105"/>
      <path d="M 35.6875 14.359375 
Q 35.6875 17.53125 33.078125 19.1875 
Q 30.46875 20.84375 24.40625 22.109375 
Q 18.359375 23.390625 14.3125 25.34375 
Q 5.421875 29.640625 5.421875 37.796875 
Q 5.421875 44.625 11.171875 49.21875 
Q 16.9375 53.8125 25.828125 53.8125 
Q 35.296875 53.8125 41.125 49.125 
Q 46.96875 44.4375 46.96875 36.96875 
L 35.109375 36.96875 
Q 35.109375 40.375 32.5625 42.640625 
Q 30.03125 44.921875 25.828125 44.921875 
Q 21.921875 44.921875 19.453125 43.109375 
Q 17 41.3125 17 38.28125 
Q 17 35.546875 19.28125 34.03125 
Q 21.578125 32.515625 28.5625 30.96875 
Q 35.546875 29.4375 39.515625 27.3125 
Q 43.5 25.203125 45.421875 22.21875 
Q 47.359375 19.234375 47.359375 14.984375 
Q 47.359375 7.859375 41.453125 3.4375 
Q 35.546875 -0.984375 25.984375 -0.984375 
Q 19.484375 -0.984375 14.40625 1.359375 
Q 9.328125 3.71875 6.484375 7.8125 
Q 3.65625 11.921875 3.65625 16.65625 
L 15.1875 16.65625 
Q 15.4375 12.453125 18.359375 10.171875 
Q 21.296875 7.90625 26.125 7.90625 
Q 30.8125 7.90625 33.25 9.6875 
Q 35.6875 11.46875 35.6875 14.359375 
z
" id="Roboto-Medium-115"/>
      <path d="M 20.953125 65.671875 
L 20.953125 52.828125 
L 30.28125 52.828125 
L 30.28125 44.046875 
L 20.953125 44.046875 
L 20.953125 14.546875 
Q 20.953125 11.53125 22.140625 10.1875 
Q 23.34375 8.84375 26.421875 8.84375 
Q 28.46875 8.84375 30.5625 9.328125 
L 30.5625 0.140625 
Q 26.515625 -0.984375 22.75 -0.984375 
Q 9.078125 -0.984375 9.078125 14.109375 
L 9.078125 44.046875 
L 0.390625 44.046875 
L 0.390625 52.828125 
L 9.078125 52.828125 
L 9.078125 65.671875 
z
" id="Roboto-Medium-116"/>
      <path d="M 33.734375 42 
Q 31.390625 42.390625 28.90625 42.390625 
Q 20.75 42.390625 17.921875 36.140625 
L 17.921875 0 
L 6.0625 0 
L 6.0625 52.828125 
L 17.390625 52.828125 
L 17.671875 46.921875 
Q 21.96875 53.8125 29.59375 53.8125 
Q 32.125 53.8125 33.796875 53.125 
z
" id="Roboto-Medium-114"/>
      <path d="M 52.4375 25.875 
Q 52.4375 13.578125 46.9375 6.296875 
Q 41.453125 -0.984375 31.84375 -0.984375 
Q 22.5625 -0.984375 17.390625 5.71875 
L 16.796875 0 
L 6.0625 0 
L 6.0625 75 
L 17.921875 75 
L 17.921875 47.75 
Q 23.046875 53.8125 31.734375 53.8125 
Q 41.40625 53.8125 46.921875 46.625 
Q 52.4375 39.453125 52.4375 26.5625 
z
M 40.578125 26.90625 
Q 40.578125 35.5 37.546875 39.796875 
Q 34.515625 44.09375 28.765625 44.09375 
Q 21.046875 44.09375 17.921875 37.359375 
L 17.921875 15.578125 
Q 21.09375 8.6875 28.859375 8.6875 
Q 34.421875 8.6875 37.453125 12.84375 
Q 40.484375 17 40.578125 25.390625 
z
" id="Roboto-Medium-98"/>
      <path d="M 38.09375 5.171875 
Q 32.859375 -0.984375 23.25 -0.984375 
Q 14.65625 -0.984375 10.234375 4.046875 
Q 5.8125 9.078125 5.8125 18.609375 
L 5.8125 52.828125 
L 17.671875 52.828125 
L 17.671875 18.75 
Q 17.671875 8.6875 26.03125 8.6875 
Q 34.671875 8.6875 37.703125 14.890625 
L 37.703125 52.828125 
L 49.5625 52.828125 
L 49.5625 0 
L 38.375 0 
z
" id="Roboto-Medium-117"/>
      <path d="M 3.859375 26.90625 
Q 3.859375 34.671875 6.9375 40.890625 
Q 10.015625 47.125 15.578125 50.46875 
Q 21.140625 53.8125 28.375 53.8125 
Q 39.0625 53.8125 45.71875 46.921875 
Q 52.390625 40.046875 52.9375 28.65625 
L 52.984375 25.875 
Q 52.984375 18.0625 49.96875 11.90625 
Q 46.96875 5.765625 41.375 2.390625 
Q 35.796875 -0.984375 28.46875 -0.984375 
Q 17.28125 -0.984375 10.5625 6.46875 
Q 3.859375 13.921875 3.859375 26.3125 
z
M 15.71875 25.875 
Q 15.71875 17.71875 19.09375 13.109375 
Q 22.46875 8.5 28.46875 8.5 
Q 34.46875 8.5 37.8125 13.1875 
Q 41.15625 17.875 41.15625 26.90625 
Q 41.15625 34.90625 37.71875 39.59375 
Q 34.28125 44.28125 28.375 44.28125 
Q 22.5625 44.28125 19.140625 39.671875 
Q 15.71875 35.0625 15.71875 25.875 
z
" id="Roboto-Medium-111"/>
      <path d="M 17.09375 52.828125 
L 17.4375 46.734375 
Q 23.296875 53.8125 32.8125 53.8125 
Q 49.3125 53.8125 49.609375 34.90625 
L 49.609375 0 
L 37.75 0 
L 37.75 34.234375 
Q 37.75 39.265625 35.578125 41.671875 
Q 33.40625 44.09375 28.46875 44.09375 
Q 21.296875 44.09375 17.78125 37.59375 
L 17.78125 0 
L 5.90625 0 
L 5.90625 52.828125 
z
" id="Roboto-Medium-110"/>
      <path id="Roboto-Medium-32"/>
      <path d="M 10.25 0 
L 10.25 44.046875 
L 2.203125 44.046875 
L 2.203125 52.828125 
L 10.25 52.828125 
L 10.25 57.671875 
Q 10.25 66.453125 15.125 71.234375 
Q 20.015625 76.03125 28.8125 76.03125 
Q 31.9375 76.03125 35.453125 75.140625 
L 35.15625 65.875 
Q 33.203125 66.265625 30.609375 66.265625 
Q 22.125 66.265625 22.125 57.515625 
L 22.125 52.828125 
L 32.859375 52.828125 
L 32.859375 44.046875 
L 22.125 44.046875 
L 22.125 0 
z
" id="Roboto-Medium-102"/>
      <path d="M 63.671875 0 
L 51.375 0 
L 51.375 31.59375 
L 19.578125 31.59375 
L 19.578125 0 
L 7.234375 0 
L 7.234375 71.09375 
L 19.578125 71.09375 
L 19.578125 41.5 
L 51.375 41.5 
L 51.375 71.09375 
L 63.671875 71.09375 
z
" id="Roboto-Medium-72"/>
      <path d="M 6.25 28.90625 
Q 6.25 40.1875 9.28125 50.3125 
Q 12.3125 60.453125 18.171875 68.4375 
Q 24.03125 76.421875 30.5625 79.640625 
L 32.90625 72.703125 
Q 26.03125 67.484375 21.75 56.765625 
Q 17.484375 46.046875 17.09375 32.234375 
L 17.046875 28.03125 
Q 17.046875 13.234375 21.21875 1.625 
Q 25.390625 -9.96875 32.90625 -16.015625 
L 30.5625 -22.609375 
Q 24.03125 -19.390625 18.140625 -11.359375 
Q 12.25 -3.328125 9.25 6.75 
Q 6.25 16.84375 6.25 28.90625 
z
" id="Roboto-Medium-40"/>
      <path d="M 52.34375 25.875 
Q 52.34375 13.625 46.78125 6.3125 
Q 41.21875 -0.984375 31.84375 -0.984375 
Q 23.140625 -0.984375 17.921875 4.734375 
L 17.921875 -20.3125 
L 6.0625 -20.3125 
L 6.0625 52.828125 
L 17 52.828125 
L 17.484375 47.46875 
Q 22.703125 53.8125 31.6875 53.8125 
Q 41.359375 53.8125 46.84375 46.609375 
Q 52.34375 39.40625 52.34375 26.609375 
z
M 40.53125 26.90625 
Q 40.53125 34.8125 37.375 39.453125 
Q 34.234375 44.09375 28.375 44.09375 
Q 21.09375 44.09375 17.921875 38.09375 
L 17.921875 14.65625 
Q 21.140625 8.5 28.46875 8.5 
Q 34.125 8.5 37.328125 13.0625 
Q 40.53125 17.625 40.53125 26.90625 
z
" id="Roboto-Medium-112"/>
      <path d="M 27.78125 8.5 
Q 32.234375 8.5 35.15625 11.078125 
Q 38.09375 13.671875 38.28125 17.484375 
L 49.46875 17.484375 
Q 49.265625 12.546875 46.375 8.265625 
Q 43.5 4 38.5625 1.5 
Q 33.640625 -0.984375 27.9375 -0.984375 
Q 16.84375 -0.984375 10.34375 6.1875 
Q 3.859375 13.375 3.859375 26.03125 
L 3.859375 27.25 
Q 3.859375 39.3125 10.296875 46.5625 
Q 16.75 53.8125 27.875 53.8125 
Q 37.3125 53.8125 43.234375 48.3125 
Q 49.171875 42.828125 49.46875 33.890625 
L 38.28125 33.890625 
Q 38.09375 38.421875 35.1875 41.34375 
Q 32.28125 44.28125 27.78125 44.28125 
Q 22.015625 44.28125 18.890625 40.109375 
Q 15.765625 35.9375 15.71875 27.4375 
L 15.71875 25.53125 
Q 15.71875 16.9375 18.8125 12.71875 
Q 21.921875 8.5 27.78125 8.5 
z
" id="Roboto-Medium-99"/>
      <path d="M 37.640625 0 
Q 36.859375 1.515625 36.28125 4.9375 
Q 30.609375 -0.984375 22.40625 -0.984375 
Q 14.453125 -0.984375 9.421875 3.5625 
Q 4.390625 8.109375 4.390625 14.796875 
Q 4.390625 23.25 10.65625 27.765625 
Q 16.9375 32.28125 28.609375 32.28125 
L 35.890625 32.28125 
L 35.890625 35.75 
Q 35.890625 39.84375 33.59375 42.3125 
Q 31.296875 44.78125 26.609375 44.78125 
Q 22.5625 44.78125 19.96875 42.75 
Q 17.390625 40.71875 17.390625 37.59375 
L 5.515625 37.59375 
Q 5.515625 41.9375 8.390625 45.71875 
Q 11.28125 49.515625 16.234375 51.65625 
Q 21.1875 53.8125 27.296875 53.8125 
Q 36.578125 53.8125 42.09375 49.140625 
Q 47.609375 44.484375 47.75 36.03125 
L 47.75 12.203125 
Q 47.75 5.078125 49.75 0.828125 
L 49.75 0 
z
M 24.609375 8.546875 
Q 28.125 8.546875 31.21875 10.25 
Q 34.328125 11.96875 35.890625 14.84375 
L 35.890625 24.8125 
L 29.5 24.8125 
Q 22.90625 24.8125 19.578125 22.515625 
Q 16.265625 20.21875 16.265625 16.015625 
Q 16.265625 12.59375 18.53125 10.5625 
Q 20.796875 8.546875 24.609375 8.546875 
z
" id="Roboto-Medium-97"/>
      <path d="M 29.34375 -0.984375 
Q 18.0625 -0.984375 11.046875 6.125 
Q 4.046875 13.234375 4.046875 25.046875 
L 4.046875 26.515625 
Q 4.046875 34.421875 7.09375 40.640625 
Q 10.15625 46.875 15.671875 50.34375 
Q 21.1875 53.8125 27.984375 53.8125 
Q 38.765625 53.8125 44.640625 46.921875 
Q 50.53125 40.046875 50.53125 27.4375 
L 50.53125 22.65625 
L 16.015625 22.65625 
Q 16.546875 16.109375 20.375 12.296875 
Q 24.21875 8.5 30.03125 8.5 
Q 38.1875 8.5 43.3125 15.09375 
L 49.703125 8.984375 
Q 46.53125 4.25 41.234375 1.625 
Q 35.9375 -0.984375 29.34375 -0.984375 
z
M 27.9375 44.28125 
Q 23.046875 44.28125 20.046875 40.859375 
Q 17.046875 37.453125 16.21875 31.34375 
L 38.8125 31.34375 
L 38.8125 32.234375 
Q 38.421875 38.1875 35.640625 41.234375 
Q 32.859375 44.28125 27.9375 44.28125 
z
" id="Roboto-Medium-101"/>
      <path d="M 4 26.8125 
Q 4 39.109375 9.78125 46.453125 
Q 15.578125 53.8125 25.140625 53.8125 
Q 34.1875 53.8125 39.359375 47.515625 
L 39.890625 52.828125 
L 50.59375 52.828125 
L 50.59375 1.609375 
Q 50.59375 -8.796875 44.109375 -14.796875 
Q 37.640625 -20.796875 26.65625 -20.796875 
Q 20.84375 -20.796875 15.296875 -18.375 
Q 9.765625 -15.96875 6.890625 -12.0625 
L 12.5 -4.9375 
Q 17.96875 -11.421875 25.984375 -11.421875 
Q 31.890625 -11.421875 35.296875 -8.21875 
Q 38.71875 -5.03125 38.71875 1.171875 
L 38.71875 4.734375 
Q 33.59375 -0.984375 25.046875 -0.984375 
Q 15.765625 -0.984375 9.875 6.390625 
Q 4 13.765625 4 26.8125 
z
M 15.828125 25.78125 
Q 15.828125 17.828125 19.0625 13.25 
Q 22.3125 8.6875 28.078125 8.6875 
Q 35.25 8.6875 38.71875 14.84375 
L 38.71875 38.09375 
Q 35.359375 44.09375 28.171875 44.09375 
Q 22.3125 44.09375 19.0625 39.453125 
Q 15.828125 34.8125 15.828125 25.78125 
z
" id="Roboto-Medium-103"/>
      <path d="M 18.703125 0 
L 6.84375 0 
L 6.84375 75 
L 18.703125 75 
z
" id="Roboto-Medium-108"/>
      <path d="M 24.5625 17 
L 35.296875 52.828125 
L 47.953125 52.828125 
L 26.953125 -8.015625 
Q 22.125 -21.34375 10.546875 -21.34375 
Q 7.953125 -21.34375 4.828125 -20.453125 
L 4.828125 -11.28125 
L 7.078125 -11.421875 
Q 11.578125 -11.421875 13.84375 -9.78125 
Q 16.109375 -8.15625 17.4375 -4.296875 
L 19.140625 0.25 
L 0.59375 52.828125 
L 13.375 52.828125 
z
" id="Roboto-Medium-121"/>
      <path d="M 28.953125 28.125 
Q 28.953125 17.28125 25.96875 7.203125 
Q 23 -2.875 16.9375 -11.15625 
Q 10.890625 -19.4375 4.296875 -22.609375 
L 1.953125 -16.015625 
Q 9.28125 -10.359375 13.546875 1.28125 
Q 17.828125 12.9375 17.828125 27.875 
L 17.828125 29 
Q 17.828125 42.578125 14.109375 53.734375 
Q 10.40625 64.890625 3.46875 71.625 
L 1.953125 73 
L 4.296875 79.640625 
Q 10.546875 76.609375 16.40625 68.890625 
Q 22.265625 61.1875 25.390625 51.640625 
Q 28.515625 42.09375 28.90625 31.9375 
z
" id="Roboto-Medium-41"/>
     </defs>
     <use xlink:href="#Roboto-Medium-68"/>
     <use x="65.332031" xlink:href="#Roboto-Medium-105"/>
     <use x="90.869141" xlink:href="#Roboto-Medium-115"/>
     <use x="142.480469" xlink:href="#Roboto-Medium-116"/>
     <use x="175.732422" xlink:href="#Roboto-Medium-114"/>
     <use x="210.888672" xlink:href="#Roboto-Medium-105"/>
     <use x="236.425781" xlink:href="#Roboto-Medium-98"/>
     <use x="292.724609" xlink:href="#Roboto-Medium-117"/>
     <use x="348.291016" xlink:href="#Roboto-Medium-116"/>
     <use x="381.542969" xlink:href="#Roboto-Medium-105"/>
     <use x="407.080078" xlink:href="#Roboto-Medium-111"/>
     <use x="464.013672" xlink:href="#Roboto-Medium-110"/>
     <use x="519.628906" xlink:href="#Roboto-Medium-32"/>
     <use x="544.53125" xlink:href="#Roboto-Medium-111"/>
     <use x="601.464844" xlink:href="#Roboto-Medium-102"/>
     <use x="636.914062" xlink:href="#Roboto-Medium-32"/>
     <use x="661.816406" xlink:href="#Roboto-Medium-72"/>
     <use x="732.861328" xlink:href="#Roboto-Medium-111"/>
     <use x="789.794922" xlink:href="#Roboto-Medium-117"/>
     <use x="845.361328" xlink:href="#Roboto-Medium-114"/>
     <use x="880.517578" xlink:href="#Roboto-Medium-32"/>
     <use x="905.419922" xlink:href="#Roboto-Medium-40"/>
     <use x="940.283203" xlink:href="#Roboto-Medium-116"/>
     <use x="973.535156" xlink:href="#Roboto-Medium-111"/>
     <use x="1030.46875" xlink:href="#Roboto-Medium-112"/>
     <use x="1086.767578" xlink:href="#Roboto-Medium-32"/>
     <use x="1111.669922" xlink:href="#Roboto-Medium-49"/>
     <use x="1168.505859" xlink:href="#Roboto-Medium-53"/>
     <use x="1225.341797" xlink:href="#Roboto-Medium-32"/>
     <use x="1250.244141" xlink:href="#Roboto-Medium-99"/>
     <use x="1302.587891" xlink:href="#Roboto-Medium-97"/>
     <use x="1356.689453" xlink:href="#Roboto-Medium-116"/>
     <use x="1389.941406" xlink:href="#Roboto-Medium-101"/>
     <use x="1443.603516" xlink:href="#Roboto-Medium-103"/>
     <use x="1500.292969" xlink:href="#Roboto-Medium-111"/>
     <use x="1557.226562" xlink:href="#Roboto-Medium-114"/>
     <use x="1592.382812" xlink:href="#Roboto-Medium-105"/>
     <use x="1617.919922" xlink:href="#Roboto-Medium-101"/>
     <use x="1671.582031" xlink:href="#Roboto-Medium-115"/>
     <use x="1723.193359" xlink:href="#Roboto-Medium-32"/>
     <use x="1748.095703" xlink:href="#Roboto-Medium-111"/>
     <use x="1805.029297" xlink:href="#Roboto-Medium-110"/>
     <use x="1860.644531" xlink:href="#Roboto-Medium-108"/>
     <use x="1886.181641" xlink:href="#Roboto-Medium-121"/>
     <use x="1934.863281" xlink:href="#Roboto-Medium-41"/>
    </g>
   </g>
  </g>
 </g>
 <defs>
  <clipPath id="pb642608a52">
   <rect height="328.664131" width="508.825" x="40.75" y="26.39625"/>
  </clipPath>
 </defs>
</svg>
