<?xml version="1.0" encoding="utf-8" standalone="no"?>
<!DOCTYPE svg PUBLIC "-//W3C//DTD SVG 1.1//EN"
  "http://www.w3.org/Graphics/SVG/1.1/DTD/svg11.dtd">
<!-- Created with matplotlib (https://matplotlib.org/) -->
<svg height="288pt" version="1.1" viewBox="0 0 1080 288" width="1080pt" xmlns="http://www.w3.org/2000/svg" xmlns:xlink="http://www.w3.org/1999/xlink">
 <metadata>
  <rdf:RDF xmlns:cc="http://creativecommons.org/ns#" xmlns:dc="http://purl.org/dc/elements/1.1/" xmlns:rdf="http://www.w3.org/1999/02/22-rdf-syntax-ns#">
   <cc:Work>
    <dc:type rdf:resource="http://purl.org/dc/dcmitype/StillImage"/>
    <dc:date>2022-08-11T19:09:34.527826</dc:date>
    <dc:format>image/svg+xml</dc:format>
    <dc:creator>
     <cc:Agent>
      <dc:title>Matplotlib v3.3.2, https://matplotlib.org/</dc:title>
     </cc:Agent>
    </dc:creator>
   </cc:Work>
  </rdf:RDF>
 </metadata>
 <defs>
  <style type="text/css">*{stroke-linecap:butt;stroke-linejoin:round;}</style>
 </defs>
 <g id="figure_1">
  <g id="patch_1">
   <path d="M 0 288 
L 1080 288 
L 1080 0 
L 0 0 
z
" style="fill:#f0f0f0;"/>
  </g>
  <g id="axes_1">
   <g id="patch_2">
    <path d="M 26.89 263 
L 1069.2 263 
L 1069.2 35.28 
L 26.89 35.28 
z
" style="fill:#ffffff;"/>
   </g>
   <g id="PolyCollection_1">
    <defs>
     <path d="M 157.185267 -35.350909 
L 157.172233 -35.350909 
L 157.160766 -36.540861 
L 157.139916 -37.730813 
L 157.111275 -38.920764 
L 157.080406 -40.110716 
L 157.052365 -41.300668 
L 157.028203 -42.49062 
L 157.00171 -43.680572 
L 156.951466 -44.870523 
L 156.835953 -46.060475 
L 156.604688 -47.250427 
L 156.220656 -48.440379 
L 155.677555 -49.63033 
L 155.001431 -50.820282 
L 154.225254 -52.010234 
L 153.334693 -53.200186 
L 152.226931 -54.390138 
L 150.713696 -55.580089 
L 148.543261 -56.770041 
L 145.467945 -57.959993 
L 141.408072 -59.149945 
L 136.578058 -60.339896 
L 131.366766 -61.529848 
L 126.0389 -62.7198 
L 120.575943 -63.909752 
L 114.820653 -65.099704 
L 108.692687 -66.289655 
L 102.176378 -67.479607 
L 95.205652 -68.669559 
L 87.777564 -69.859511 
L 80.199674 -71.049462 
L 73.078508 -72.239414 
L 67.029862 -73.429366 
L 62.421906 -74.619318 
L 59.29597 -75.80927 
L 57.457346 -76.999221 
L 56.693383 -78.189173 
L 56.927013 -79.379125 
L 58.161827 -80.569077 
L 60.322641 -81.759028 
L 63.09002 -82.94898 
L 65.848102 -84.138932 
L 67.996639 -85.328884 
L 69.420287 -86.518835 
L 70.442833 -87.708787 
L 71.271707 -88.898739 
L 71.749657 -90.088691 
L 71.697936 -91.278643 
L 71.189736 -92.468594 
L 70.31948 -93.658546 
L 68.91356 -94.848498 
L 66.702234 -96.03845 
L 63.748703 -97.228401 
L 60.551461 -98.418353 
L 57.691721 -99.608305 
L 55.482739 -100.798257 
L 53.968579 -101.988209 
L 53.112025 -103.17816 
L 52.94775 -104.368112 
L 53.703085 -105.558064 
L 55.784133 -106.748016 
L 59.455938 -107.937967 
L 64.461864 -109.127919 
L 70.059893 -110.317871 
L 75.461153 -111.507823 
L 80.20246 -112.697775 
L 84.26413 -113.887726 
L 88.058236 -115.077678 
L 92.211115 -116.26763 
L 97.091313 -117.457582 
L 102.502476 -118.647533 
L 107.921104 -119.837485 
L 112.987172 -121.027437 
L 117.691563 -122.217389 
L 122.191574 -123.407341 
L 126.603248 -124.597292 
L 130.960274 -125.787244 
L 135.217314 -126.977196 
L 139.195809 -128.167148 
L 142.605826 -129.357099 
L 145.239689 -130.547051 
L 147.137674 -131.737003 
L 148.53074 -132.926955 
L 149.667171 -134.116907 
L 150.711004 -135.306858 
L 151.732483 -136.49681 
L 152.731132 -137.686762 
L 153.672098 -138.876714 
L 154.522217 -140.066665 
L 155.261192 -141.256617 
L 155.874843 -142.446569 
L 156.353925 -143.636521 
L 156.698687 -144.826473 
L 156.921134 -146.016424 
L 157.046013 -147.206376 
L 157.107528 -148.396328 
L 157.137806 -149.58628 
L 157.155863 -150.776231 
L 157.167776 -151.966183 
L 157.174563 -153.156135 
L 157.182937 -153.156135 
L 157.182937 -153.156135 
L 157.189724 -151.966183 
L 157.201637 -150.776231 
L 157.219694 -149.58628 
L 157.249972 -148.396328 
L 157.311487 -147.206376 
L 157.436366 -146.016424 
L 157.658813 -144.826473 
L 158.003575 -143.636521 
L 158.482657 -142.446569 
L 159.096308 -141.256617 
L 159.835283 -140.066665 
L 160.685402 -138.876714 
L 161.626368 -137.686762 
L 162.625017 -136.49681 
L 163.646496 -135.306858 
L 164.690329 -134.116907 
L 165.82676 -132.926955 
L 167.219826 -131.737003 
L 169.117811 -130.547051 
L 171.751674 -129.357099 
L 175.161691 -128.167148 
L 179.140186 -126.977196 
L 183.397226 -125.787244 
L 187.754252 -124.597292 
L 192.165926 -123.407341 
L 196.665937 -122.217389 
L 201.370328 -121.027437 
L 206.436396 -119.837485 
L 211.855024 -118.647533 
L 217.266187 -117.457582 
L 222.146385 -116.26763 
L 226.299264 -115.077678 
L 230.09337 -113.887726 
L 234.15504 -112.697775 
L 238.896347 -111.507823 
L 244.297607 -110.317871 
L 249.895636 -109.127919 
L 254.901562 -107.937967 
L 258.573367 -106.748016 
L 260.654415 -105.558064 
L 261.40975 -104.368112 
L 261.245475 -103.17816 
L 260.388921 -101.988209 
L 258.874761 -100.798257 
L 256.665779 -99.608305 
L 253.806039 -98.418353 
L 250.608797 -97.228401 
L 247.655266 -96.03845 
L 245.44394 -94.848498 
L 244.03802 -93.658546 
L 243.167764 -92.468594 
L 242.659564 -91.278643 
L 242.607843 -90.088691 
L 243.085793 -88.898739 
L 243.914667 -87.708787 
L 244.937213 -86.518835 
L 246.360861 -85.328884 
L 248.509398 -84.138932 
L 251.26748 -82.94898 
L 254.034859 -81.759028 
L 256.195673 -80.569077 
L 257.430487 -79.379125 
L 257.664117 -78.189173 
L 256.900154 -76.999221 
L 255.06153 -75.80927 
L 251.935594 -74.619318 
L 247.327638 -73.429366 
L 241.278992 -72.239414 
L 234.157826 -71.049462 
L 226.579936 -69.859511 
L 219.151848 -68.669559 
L 212.181122 -67.479607 
L 205.664813 -66.289655 
L 199.536847 -65.099704 
L 193.781557 -63.909752 
L 188.3186 -62.7198 
L 182.990734 -61.529848 
L 177.779442 -60.339896 
L 172.949428 -59.149945 
L 168.889555 -57.959993 
L 165.814239 -56.770041 
L 163.643804 -55.580089 
L 162.130569 -54.390138 
L 161.022807 -53.200186 
L 160.132246 -52.010234 
L 159.356069 -50.820282 
L 158.679945 -49.63033 
L 158.136844 -48.440379 
L 157.752812 -47.250427 
L 157.521547 -46.060475 
L 157.406034 -44.870523 
L 157.35579 -43.680572 
L 157.329297 -42.49062 
L 157.305135 -41.300668 
L 157.277094 -40.110716 
L 157.246225 -38.920764 
L 157.217584 -37.730813 
L 157.196734 -36.540861 
L 157.185267 -35.350909 
z
" id="mc2832c81a5" style="stroke:#3d3d3d;stroke-width:3;"/>
    </defs>
    <g clip-path="url(#pd5cbe6928a)">
     <use style="fill:#1e84cf;stroke:#3d3d3d;stroke-width:3;" x="0" xlink:href="#mc2832c81a5" y="288"/>
    </g>
   </g>
   <g id="PolyCollection_2">
    <defs>
     <path d="M 430.933504 -76.431404 
L 404.578996 -76.431404 
L 391.183145 -77.286727 
L 371.399777 -78.142051 
L 347.744635 -78.997374 
L 326.099391 -79.852697 
L 313.52525 -80.70802 
L 314.426263 -81.563343 
L 327.87595 -82.418666 
L 348.327282 -83.27399 
L 369.039801 -84.129313 
L 385.414735 -84.984636 
L 396.109547 -85.839959 
L 402.069475 -86.695282 
L 404.965103 -87.550605 
L 406.189885 -88.405929 
L 406.600996 -89.261252 
L 406.645744 -90.116575 
L 406.539677 -90.971898 
L 406.377374 -91.827221 
L 406.189034 -92.682544 
L 405.975096 -93.537867 
L 405.729631 -94.393191 
L 405.452235 -95.248514 
L 405.151423 -96.103837 
L 404.845198 -96.95916 
L 404.561436 -97.814483 
L 404.337217 -98.669806 
L 404.215598 -99.52513 
L 404.23845 -100.380453 
L 404.434655 -101.235776 
L 404.806601 -102.091099 
L 405.323748 -102.946422 
L 405.931845 -103.801745 
L 406.575446 -104.657069 
L 407.218037 -105.512392 
L 407.844326 -106.367715 
L 408.445493 -107.223038 
L 409.003545 -108.078361 
L 409.48884 -108.933684 
L 409.870134 -109.789008 
L 410.127079 -110.644331 
L 410.258168 -111.499654 
L 410.28317 -112.354977 
L 410.239517 -113.2103 
L 410.170877 -114.065623 
L 410.110295 -114.920946 
L 410.067168 -115.77627 
L 410.027705 -116.631593 
L 409.969693 -117.486916 
L 409.88218 -118.342239 
L 409.778635 -119.197562 
L 409.698146 -120.052885 
L 409.69554 -120.908209 
L 409.823439 -121.763532 
L 410.110892 -122.618855 
L 410.54665 -123.474178 
L 411.076185 -124.329501 
L 411.615875 -125.184824 
L 412.079104 -126.040148 
L 412.403624 -126.895471 
L 412.569293 -127.750794 
L 412.599555 -128.606117 
L 412.548006 -129.46144 
L 412.479332 -130.316763 
L 412.454755 -131.172086 
L 412.524675 -132.02741 
L 412.723545 -132.882733 
L 413.062834 -133.738056 
L 413.524994 -134.593379 
L 414.065043 -135.448702 
L 414.62219 -136.304025 
L 415.136732 -137.159349 
L 415.564423 -138.014672 
L 415.883121 -138.869995 
L 416.091327 -139.725318 
L 416.201763 -140.580641 
L 416.234167 -141.435964 
L 416.210241 -142.291288 
L 416.151191 -143.146611 
L 416.076191 -144.001934 
L 416.000336 -144.857257 
L 415.932764 -145.71258 
L 415.877152 -146.567903 
L 415.835586 -147.423226 
L 415.813676 -148.27855 
L 415.822849 -149.133873 
L 415.877214 -149.989196 
L 415.986381 -150.844519 
L 416.14909 -151.699842 
L 416.352393 -152.555165 
L 416.577041 -153.410489 
L 416.804807 -154.265812 
L 417.022356 -155.121135 
L 417.22026 -155.976458 
L 417.390514 -156.831781 
L 417.52642 -157.687104 
L 417.624988 -158.542428 
L 417.688849 -159.397751 
L 417.725391 -160.253074 
L 417.743729 -161.108397 
L 417.768771 -161.108397 
L 417.768771 -161.108397 
L 417.787109 -160.253074 
L 417.823651 -159.397751 
L 417.887512 -158.542428 
L 417.98608 -157.687104 
L 418.121986 -156.831781 
L 418.29224 -155.976458 
L 418.490144 -155.121135 
L 418.707693 -154.265812 
L 418.935459 -153.410489 
L 419.160107 -152.555165 
L 419.36341 -151.699842 
L 419.526119 -150.844519 
L 419.635286 -149.989196 
L 419.689651 -149.133873 
L 419.698824 -148.27855 
L 419.676914 -147.423226 
L 419.635348 -146.567903 
L 419.579736 -145.71258 
L 419.512164 -144.857257 
L 419.436309 -144.001934 
L 419.361309 -143.146611 
L 419.302259 -142.291288 
L 419.278333 -141.435964 
L 419.310737 -140.580641 
L 419.421173 -139.725318 
L 419.629379 -138.869995 
L 419.948077 -138.014672 
L 420.375768 -137.159349 
L 420.89031 -136.304025 
L 421.447457 -135.448702 
L 421.987506 -134.593379 
L 422.449666 -133.738056 
L 422.788955 -132.882733 
L 422.987825 -132.02741 
L 423.057745 -131.172086 
L 423.033168 -130.316763 
L 422.964494 -129.46144 
L 422.912945 -128.606117 
L 422.943207 -127.750794 
L 423.108876 -126.895471 
L 423.433396 -126.040148 
L 423.896625 -125.184824 
L 424.436315 -124.329501 
L 424.96585 -123.474178 
L 425.401608 -122.618855 
L 425.689061 -121.763532 
L 425.81696 -120.908209 
L 425.814354 -120.052885 
L 425.733865 -119.197562 
L 425.63032 -118.342239 
L 425.542807 -117.486916 
L 425.484795 -116.631593 
L 425.445332 -115.77627 
L 425.402205 -114.920946 
L 425.341623 -114.065623 
L 425.272983 -113.2103 
L 425.22933 -112.354977 
L 425.254332 -111.499654 
L 425.385421 -110.644331 
L 425.642366 -109.789008 
L 426.02366 -108.933684 
L 426.508955 -108.078361 
L 427.067007 -107.223038 
L 427.668174 -106.367715 
L 428.294463 -105.512392 
L 428.937054 -104.657069 
L 429.580655 -103.801745 
L 430.188752 -102.946422 
L 430.705899 -102.091099 
L 431.077845 -101.235776 
L 431.27405 -100.380453 
L 431.296902 -99.52513 
L 431.175283 -98.669806 
L 430.951064 -97.814483 
L 430.667302 -96.95916 
L 430.361077 -96.103837 
L 430.060265 -95.248514 
L 429.782869 -94.393191 
L 429.537404 -93.537867 
L 429.323466 -92.682544 
L 429.135126 -91.827221 
L 428.972823 -90.971898 
L 428.866756 -90.116575 
L 428.911504 -89.261252 
L 429.322615 -88.405929 
L 430.547397 -87.550605 
L 433.443025 -86.695282 
L 439.402953 -85.839959 
L 450.097765 -84.984636 
L 466.472699 -84.129313 
L 487.185218 -83.27399 
L 507.63655 -82.418666 
L 521.086237 -81.563343 
L 521.98725 -80.70802 
L 509.413109 -79.852697 
L 487.767865 -78.997374 
L 464.112723 -78.142051 
L 444.329355 -77.286727 
L 430.933504 -76.431404 
z
" id="m150cb4b025" style="stroke:#3d3d3d;stroke-width:3;"/>
    </defs>
    <g clip-path="url(#pd5cbe6928a)">
     <use style="fill:#e37d3d;stroke:#3d3d3d;stroke-width:3;" x="0" xlink:href="#m150cb4b025" y="288"/>
    </g>
   </g>
   <g id="PolyCollection_3">
    <defs>
     <path d="M 678.487664 -59.4619 
L 678.179836 -59.4619 
L 677.852991 -60.493214 
L 677.056365 -61.524528 
L 675.413597 -62.555842 
L 672.514024 -63.587156 
L 668.070393 -64.61847 
L 662.052097 -65.649784 
L 654.693804 -66.681098 
L 646.380802 -67.712412 
L 637.514326 -68.743726 
L 628.443452 -69.77504 
L 619.460503 -70.806354 
L 610.828255 -71.837668 
L 602.821847 -72.868982 
L 595.726425 -73.900296 
L 589.724933 -74.93161 
L 584.770304 -75.962924 
L 580.660838 -76.994238 
L 577.330424 -78.025552 
L 575.026643 -79.056866 
L 574.10275 -80.08818 
L 574.609725 -81.119495 
L 576.136193 -82.150809 
L 578.05517 -83.182123 
L 579.892923 -84.213437 
L 581.485902 -85.244751 
L 582.902875 -86.276065 
L 584.312432 -87.307379 
L 585.892816 -88.338693 
L 587.775641 -89.370007 
L 590.029894 -90.401321 
L 592.679342 -91.432635 
L 595.695185 -92.463949 
L 598.957413 -93.495263 
L 602.258567 -94.526577 
L 605.377507 -95.557891 
L 608.163238 -96.589205 
L 610.57559 -97.620519 
L 612.680675 -98.651833 
L 614.613507 -99.683147 
L 616.513574 -100.714461 
L 618.446403 -101.745775 
L 620.354469 -102.777089 
L 622.101381 -103.808403 
L 623.617465 -104.839717 
L 625.035233 -105.871031 
L 626.659739 -106.902345 
L 628.755632 -107.93366 
L 631.336471 -108.964974 
L 634.164324 -109.996288 
L 636.948193 -111.027602 
L 639.527181 -112.058916 
L 641.8838 -113.09023 
L 644.04503 -114.121544 
L 646.016994 -115.152858 
L 647.803279 -116.184172 
L 649.440604 -117.215486 
L 650.983775 -118.2468 
L 652.457584 -119.278114 
L 653.842178 -120.309428 
L 655.112814 -121.340742 
L 656.283002 -122.372056 
L 657.394297 -123.40337 
L 658.466184 -124.434684 
L 659.477247 -125.465998 
L 660.406703 -126.497312 
L 661.271724 -127.528626 
L 662.092936 -128.55994 
L 662.829509 -129.591254 
L 663.389809 -130.622568 
L 663.733327 -131.653882 
L 663.950504 -132.685196 
L 664.220417 -133.71651 
L 664.68525 -134.747824 
L 665.36451 -135.779139 
L 666.173087 -136.810453 
L 667.001667 -137.841767 
L 667.786439 -138.873081 
L 668.534677 -139.904395 
L 669.309536 -140.935709 
L 670.186068 -141.967023 
L 671.195775 -142.998337 
L 672.290809 -144.029651 
L 673.359946 -145.060965 
L 674.292535 -146.092279 
L 675.039652 -147.123593 
L 675.623624 -148.154907 
L 676.099945 -149.186221 
L 676.514167 -150.217535 
L 676.884942 -151.248849 
L 677.211744 -152.280163 
L 677.489499 -153.311477 
L 677.717501 -154.342791 
L 677.900421 -155.374105 
L 678.04468 -156.405419 
L 678.15489 -157.436733 
L 678.233691 -158.468047 
L 678.284349 -159.499361 
L 678.31266 -160.530675 
L 678.32609 -161.561989 
L 678.34141 -161.561989 
L 678.34141 -161.561989 
L 678.35484 -160.530675 
L 678.383151 -159.499361 
L 678.433809 -158.468047 
L 678.51261 -157.436733 
L 678.62282 -156.405419 
L 678.767079 -155.374105 
L 678.949999 -154.342791 
L 679.178001 -153.311477 
L 679.455756 -152.280163 
L 679.782558 -151.248849 
L 680.153333 -150.217535 
L 680.567555 -149.186221 
L 681.043876 -148.154907 
L 681.627848 -147.123593 
L 682.374965 -146.092279 
L 683.307554 -145.060965 
L 684.376691 -144.029651 
L 685.471725 -142.998337 
L 686.481432 -141.967023 
L 687.357964 -140.935709 
L 688.132823 -139.904395 
L 688.881061 -138.873081 
L 689.665833 -137.841767 
L 690.494413 -136.810453 
L 691.30299 -135.779139 
L 691.98225 -134.747824 
L 692.447083 -133.71651 
L 692.716996 -132.685196 
L 692.934173 -131.653882 
L 693.277691 -130.622568 
L 693.837991 -129.591254 
L 694.574564 -128.55994 
L 695.395776 -127.528626 
L 696.260797 -126.497312 
L 697.190253 -125.465998 
L 698.201316 -124.434684 
L 699.273203 -123.40337 
L 700.384498 -122.372056 
L 701.554686 -121.340742 
L 702.825322 -120.309428 
L 704.209916 -119.278114 
L 705.683725 -118.2468 
L 707.226896 -117.215486 
L 708.864221 -116.184172 
L 710.650506 -115.152858 
L 712.62247 -114.121544 
L 714.7837 -113.09023 
L 717.140319 -112.058916 
L 719.719307 -111.027602 
L 722.503176 -109.996288 
L 725.331029 -108.964974 
L 727.911868 -107.93366 
L 730.007761 -106.902345 
L 731.632267 -105.871031 
L 733.050035 -104.839717 
L 734.566119 -103.808403 
L 736.313031 -102.777089 
L 738.221097 -101.745775 
L 740.153926 -100.714461 
L 742.053993 -99.683147 
L 743.986825 -98.651833 
L 746.09191 -97.620519 
L 748.504262 -96.589205 
L 751.289993 -95.557891 
L 754.408933 -94.526577 
L 757.710087 -93.495263 
L 760.972315 -92.463949 
L 763.988158 -91.432635 
L 766.637606 -90.401321 
L 768.891859 -89.370007 
L 770.774684 -88.338693 
L 772.355068 -87.307379 
L 773.764625 -86.276065 
L 775.181598 -85.244751 
L 776.774577 -84.213437 
L 778.61233 -83.182123 
L 780.531307 -82.150809 
L 782.057775 -81.119495 
L 782.56475 -80.08818 
L 781.640857 -79.056866 
L 779.337076 -78.025552 
L 776.006662 -76.994238 
L 771.897196 -75.962924 
L 766.942567 -74.93161 
L 760.941075 -73.900296 
L 753.845653 -72.868982 
L 745.839245 -71.837668 
L 737.206997 -70.806354 
L 728.224048 -69.77504 
L 719.153174 -68.743726 
L 710.286698 -67.712412 
L 701.973696 -66.681098 
L 694.615403 -65.649784 
L 688.597107 -64.61847 
L 684.153476 -63.587156 
L 681.253903 -62.555842 
L 679.611135 -61.524528 
L 678.814509 -60.493214 
L 678.487664 -59.4619 
z
" id="mbca245d6cd" style="stroke:#3d3d3d;stroke-width:3;"/>
    </defs>
    <g clip-path="url(#pd5cbe6928a)">
     <use style="fill:#3a923a;stroke:#3d3d3d;stroke-width:3;" x="0" xlink:href="#mbca245d6cd" y="288"/>
    </g>
   </g>
   <g id="PolyCollection_4">
    <defs>
     <path d="M 939.272837 -68.809294 
L 938.549663 -68.809294 
L 937.134352 -70.562424 
L 933.406538 -72.315553 
L 926.712614 -74.068682 
L 916.193292 -75.821811 
L 899.707456 -77.574941 
L 876.796311 -79.32807 
L 852.00835 -81.081199 
L 834.68025 -82.834329 
L 835.225055 -84.587458 
L 855.880347 -86.340587 
L 884.544789 -88.093716 
L 905.976255 -89.846846 
L 916.100334 -91.599975 
L 919.658599 -93.353104 
L 921.754736 -95.106233 
L 924.362798 -96.859363 
L 926.981561 -98.612492 
L 928.748004 -100.365621 
L 929.678862 -102.11875 
L 929.939321 -103.87188 
L 929.332327 -105.625009 
L 928.215338 -107.378138 
L 927.387587 -109.131267 
L 926.946896 -110.884397 
L 926.522541 -112.637526 
L 926.078916 -114.390655 
L 925.769231 -116.143784 
L 925.599304 -117.896914 
L 925.697513 -119.650043 
L 926.208625 -121.403172 
L 926.883603 -123.156301 
L 927.683193 -124.909431 
L 928.748068 -126.66256 
L 929.853912 -128.415689 
L 930.871849 -130.168818 
L 932.034344 -131.921948 
L 933.394719 -133.675077 
L 934.637262 -135.428206 
L 935.553916 -137.181335 
L 936.190474 -138.934465 
L 936.650358 -140.687594 
L 937.002126 -142.440723 
L 937.308679 -144.193853 
L 937.560906 -145.946982 
L 937.735448 -147.700111 
L 937.918192 -149.45324 
L 938.101409 -151.20637 
L 938.178051 -152.959499 
L 938.161835 -154.712628 
L 938.168907 -156.465757 
L 938.25712 -158.218887 
L 938.377937 -159.972016 
L 938.477488 -161.725145 
L 938.539261 -163.478274 
L 938.554351 -165.231404 
L 938.557646 -166.984533 
L 938.610041 -168.737662 
L 938.687965 -170.490791 
L 938.732285 -172.243921 
L 938.748743 -173.99705 
L 938.747682 -175.750179 
L 938.720798 -177.503308 
L 938.711686 -179.256438 
L 938.756779 -181.009567 
L 938.810025 -182.762696 
L 938.839434 -184.515825 
L 938.86091 -186.268955 
L 938.873764 -188.022084 
L 938.868037 -189.775213 
L 938.854911 -191.528342 
L 938.848896 -193.281472 
L 938.853761 -195.034601 
L 938.869484 -196.78773 
L 938.883628 -198.540859 
L 938.878936 -200.293989 
L 938.863101 -202.047118 
L 938.862202 -203.800247 
L 938.878158 -205.553377 
L 938.889734 -207.306506 
L 938.889323 -209.059635 
L 938.884322 -210.812764 
L 938.874323 -212.565894 
L 938.864276 -214.319023 
L 938.871887 -216.072152 
L 938.892191 -217.825281 
L 938.905307 -219.578411 
L 938.905423 -221.33154 
L 938.893273 -223.084669 
L 938.874511 -224.837798 
L 938.867734 -226.590928 
L 938.881659 -228.344057 
L 938.899761 -230.097186 
L 938.908499 -231.850315 
L 938.909491 -233.603445 
L 938.906394 -235.356574 
L 938.902542 -237.109703 
L 938.902788 -238.862832 
L 938.906813 -240.615962 
L 938.909994 -242.369091 
L 938.912506 -242.369091 
L 938.912506 -242.369091 
L 938.915687 -240.615962 
L 938.919712 -238.862832 
L 938.919958 -237.109703 
L 938.916106 -235.356574 
L 938.913009 -233.603445 
L 938.914001 -231.850315 
L 938.922739 -230.097186 
L 938.940841 -228.344057 
L 938.954766 -226.590928 
L 938.947989 -224.837798 
L 938.929227 -223.084669 
L 938.917077 -221.33154 
L 938.917193 -219.578411 
L 938.930309 -217.825281 
L 938.950613 -216.072152 
L 938.958224 -214.319023 
L 938.948177 -212.565894 
L 938.938178 -210.812764 
L 938.933177 -209.059635 
L 938.932766 -207.306506 
L 938.944342 -205.553377 
L 938.960298 -203.800247 
L 938.959399 -202.047118 
L 938.943564 -200.293989 
L 938.938872 -198.540859 
L 938.953016 -196.78773 
L 938.968739 -195.034601 
L 938.973604 -193.281472 
L 938.967589 -191.528342 
L 938.954463 -189.775213 
L 938.948736 -188.022084 
L 938.96159 -186.268955 
L 938.983066 -184.515825 
L 939.012475 -182.762696 
L 939.065721 -181.009567 
L 939.110814 -179.256438 
L 939.101702 -177.503308 
L 939.074818 -175.750179 
L 939.073757 -173.99705 
L 939.090215 -172.243921 
L 939.134535 -170.490791 
L 939.212459 -168.737662 
L 939.264854 -166.984533 
L 939.268149 -165.231404 
L 939.283239 -163.478274 
L 939.345012 -161.725145 
L 939.444563 -159.972016 
L 939.56538 -158.218887 
L 939.653593 -156.465757 
L 939.660665 -154.712628 
L 939.644449 -152.959499 
L 939.721091 -151.20637 
L 939.904308 -149.45324 
L 940.087052 -147.700111 
L 940.261594 -145.946982 
L 940.513821 -144.193853 
L 940.820374 -142.440723 
L 941.172142 -140.687594 
L 941.632026 -138.934465 
L 942.268584 -137.181335 
L 943.185238 -135.428206 
L 944.427781 -133.675077 
L 945.788156 -131.921948 
L 946.950651 -130.168818 
L 947.968588 -128.415689 
L 949.074432 -126.66256 
L 950.139307 -124.909431 
L 950.938897 -123.156301 
L 951.613875 -121.403172 
L 952.124987 -119.650043 
L 952.223196 -117.896914 
L 952.053269 -116.143784 
L 951.743584 -114.390655 
L 951.299959 -112.637526 
L 950.875604 -110.884397 
L 950.434913 -109.131267 
L 949.607162 -107.378138 
L 948.490173 -105.625009 
L 947.883179 -103.87188 
L 948.143638 -102.11875 
L 949.074496 -100.365621 
L 950.840939 -98.612492 
L 953.459702 -96.859363 
L 956.067764 -95.106233 
L 958.163901 -93.353104 
L 961.722166 -91.599975 
L 971.846245 -89.846846 
L 993.277711 -88.093716 
L 1021.942153 -86.340587 
L 1042.597445 -84.587458 
L 1043.14225 -82.834329 
L 1025.81415 -81.081199 
L 1001.026189 -79.32807 
L 978.115044 -77.574941 
L 961.629208 -75.821811 
L 951.109886 -74.068682 
L 944.415962 -72.315553 
L 940.688148 -70.562424 
L 939.272837 -68.809294 
z
" id="md04ee872e1" style="stroke:#3d3d3d;stroke-width:3;"/>
    </defs>
    <g clip-path="url(#pd5cbe6928a)">
     <use style="fill:#c03d3e;stroke:#3d3d3d;stroke-width:3;" x="0" xlink:href="#md04ee872e1" y="288"/>
    </g>
   </g>
   <g id="matplotlib.axis_1">
    <g id="xtick_1">
     <g id="line2d_1">
      <defs>
       <path d="M 0 0 
L 0 3.5 
" id="m31b9b0d825" style="stroke:#58544f;stroke-width:0.8;"/>
      </defs>
      <g>
       <use style="fill:#58544f;stroke:#58544f;stroke-width:0.8;" x="157.17875" xlink:href="#m31b9b0d825" y="263"/>
      </g>
     </g>
     <g id="text_1">
      <!-- Previsión diaria D+1 demanda -->
      <g style="fill:#58544f;" transform="translate(103.645625 276)scale(0.08 -0.08)">
       <defs>
        <path d="M 19.578125 26.421875 
L 19.578125 0 
L 7.234375 0 
L 7.234375 71.09375 
L 34.421875 71.09375 
Q 46.34375 71.09375 53.34375 64.890625 
Q 60.359375 58.6875 60.359375 48.484375 
Q 60.359375 38.03125 53.484375 32.21875 
Q 46.625 26.421875 34.28125 26.421875 
z
M 19.578125 36.328125 
L 34.421875 36.328125 
Q 41.015625 36.328125 44.484375 39.421875 
Q 47.953125 42.53125 47.953125 48.390625 
Q 47.953125 54.15625 44.4375 57.59375 
Q 40.921875 61.03125 34.765625 61.140625 
L 19.578125 61.140625 
z
" id="Roboto-Medium-80"/>
        <path d="M 33.734375 42 
Q 31.390625 42.390625 28.90625 42.390625 
Q 20.75 42.390625 17.921875 36.140625 
L 17.921875 0 
L 6.0625 0 
L 6.0625 52.828125 
L 17.390625 52.828125 
L 17.671875 46.921875 
Q 21.96875 53.8125 29.59375 53.8125 
Q 32.125 53.8125 33.796875 53.125 
z
" id="Roboto-Medium-114"/>
        <path d="M 29.34375 -0.984375 
Q 18.0625 -0.984375 11.046875 6.125 
Q 4.046875 13.234375 4.046875 25.046875 
L 4.046875 26.515625 
Q 4.046875 34.421875 7.09375 40.640625 
Q 10.15625 46.875 15.671875 50.34375 
Q 21.1875 53.8125 27.984375 53.8125 
Q 38.765625 53.8125 44.640625 46.921875 
Q 50.53125 40.046875 50.53125 27.4375 
L 50.53125 22.65625 
L 16.015625 22.65625 
Q 16.546875 16.109375 20.375 12.296875 
Q 24.21875 8.5 30.03125 8.5 
Q 38.1875 8.5 43.3125 15.09375 
L 49.703125 8.984375 
Q 46.53125 4.25 41.234375 1.625 
Q 35.9375 -0.984375 29.34375 -0.984375 
z
M 27.9375 44.28125 
Q 23.046875 44.28125 20.046875 40.859375 
Q 17.046875 37.453125 16.21875 31.34375 
L 38.8125 31.34375 
L 38.8125 32.234375 
Q 38.421875 38.1875 35.640625 41.234375 
Q 32.859375 44.28125 27.9375 44.28125 
z
" id="Roboto-Medium-101"/>
        <path d="M 24.703125 15.046875 
L 35.890625 52.828125 
L 48.140625 52.828125 
L 29.828125 0 
L 19.53125 0 
L 1.078125 52.828125 
L 13.375 52.828125 
z
" id="Roboto-Medium-118"/>
        <path d="M 18.703125 0 
L 6.84375 0 
L 6.84375 52.828125 
L 18.703125 52.828125 
z
M 6.109375 66.546875 
Q 6.109375 69.28125 7.84375 71.09375 
Q 9.578125 72.90625 12.796875 72.90625 
Q 16.015625 72.90625 17.765625 71.09375 
Q 19.53125 69.28125 19.53125 66.546875 
Q 19.53125 63.875 17.765625 62.078125 
Q 16.015625 60.296875 12.796875 60.296875 
Q 9.578125 60.296875 7.84375 62.078125 
Q 6.109375 63.875 6.109375 66.546875 
z
" id="Roboto-Medium-105"/>
        <path d="M 35.6875 14.359375 
Q 35.6875 17.53125 33.078125 19.1875 
Q 30.46875 20.84375 24.40625 22.109375 
Q 18.359375 23.390625 14.3125 25.34375 
Q 5.421875 29.640625 5.421875 37.796875 
Q 5.421875 44.625 11.171875 49.21875 
Q 16.9375 53.8125 25.828125 53.8125 
Q 35.296875 53.8125 41.125 49.125 
Q 46.96875 44.4375 46.96875 36.96875 
L 35.109375 36.96875 
Q 35.109375 40.375 32.5625 42.640625 
Q 30.03125 44.921875 25.828125 44.921875 
Q 21.921875 44.921875 19.453125 43.109375 
Q 17 41.3125 17 38.28125 
Q 17 35.546875 19.28125 34.03125 
Q 21.578125 32.515625 28.5625 30.96875 
Q 35.546875 29.4375 39.515625 27.3125 
Q 43.5 25.203125 45.421875 22.21875 
Q 47.359375 19.234375 47.359375 14.984375 
Q 47.359375 7.859375 41.453125 3.4375 
Q 35.546875 -0.984375 25.984375 -0.984375 
Q 19.484375 -0.984375 14.40625 1.359375 
Q 9.328125 3.71875 6.484375 7.8125 
Q 3.65625 11.921875 3.65625 16.65625 
L 15.1875 16.65625 
Q 15.4375 12.453125 18.359375 10.171875 
Q 21.296875 7.90625 26.125 7.90625 
Q 30.8125 7.90625 33.25 9.6875 
Q 35.6875 11.46875 35.6875 14.359375 
z
" id="Roboto-Medium-115"/>
        <path d="M 3.859375 26.90625 
Q 3.859375 34.671875 6.9375 40.890625 
Q 10.015625 47.125 15.578125 50.46875 
Q 21.140625 53.8125 28.375 53.8125 
Q 39.0625 53.8125 45.71875 46.921875 
Q 52.390625 40.046875 52.9375 28.65625 
L 52.984375 25.875 
Q 52.984375 18.0625 49.96875 11.90625 
Q 46.96875 5.765625 41.375 2.390625 
Q 35.796875 -0.984375 28.46875 -0.984375 
Q 17.28125 -0.984375 10.5625 6.46875 
Q 3.859375 13.921875 3.859375 26.3125 
z
M 15.71875 25.875 
Q 15.71875 17.71875 19.09375 13.109375 
Q 22.46875 8.5 28.46875 8.5 
Q 34.46875 8.5 37.8125 13.1875 
Q 41.15625 17.875 41.15625 26.90625 
Q 41.15625 34.90625 37.71875 39.59375 
Q 34.28125 44.28125 28.375 44.28125 
Q 22.5625 44.28125 19.140625 39.671875 
Q 15.71875 35.0625 15.71875 25.875 
z
M 31.640625 75 
L 45.171875 75 
L 31.640625 60.203125 
L 22.125 60.203125 
z
" id="Roboto-Medium-243"/>
        <path d="M 17.09375 52.828125 
L 17.4375 46.734375 
Q 23.296875 53.8125 32.8125 53.8125 
Q 49.3125 53.8125 49.609375 34.90625 
L 49.609375 0 
L 37.75 0 
L 37.75 34.234375 
Q 37.75 39.265625 35.578125 41.671875 
Q 33.40625 44.09375 28.46875 44.09375 
Q 21.296875 44.09375 17.78125 37.59375 
L 17.78125 0 
L 5.90625 0 
L 5.90625 52.828125 
z
" id="Roboto-Medium-110"/>
        <path id="Roboto-Medium-32"/>
        <path d="M 3.859375 26.8125 
Q 3.859375 39.015625 9.515625 46.40625 
Q 15.1875 53.8125 24.703125 53.8125 
Q 33.109375 53.8125 38.28125 47.953125 
L 38.28125 75 
L 50.140625 75 
L 50.140625 0 
L 39.40625 0 
L 38.8125 5.46875 
Q 33.5 -0.984375 24.609375 -0.984375 
Q 15.328125 -0.984375 9.59375 6.484375 
Q 3.859375 13.96875 3.859375 26.8125 
z
M 15.71875 25.78125 
Q 15.71875 17.71875 18.8125 13.203125 
Q 21.921875 8.6875 27.640625 8.6875 
Q 34.90625 8.6875 38.28125 15.1875 
L 38.28125 37.75 
Q 35.015625 44.09375 27.734375 44.09375 
Q 21.96875 44.09375 18.84375 39.53125 
Q 15.71875 34.96875 15.71875 25.78125 
z
" id="Roboto-Medium-100"/>
        <path d="M 37.640625 0 
Q 36.859375 1.515625 36.28125 4.9375 
Q 30.609375 -0.984375 22.40625 -0.984375 
Q 14.453125 -0.984375 9.421875 3.5625 
Q 4.390625 8.109375 4.390625 14.796875 
Q 4.390625 23.25 10.65625 27.765625 
Q 16.9375 32.28125 28.609375 32.28125 
L 35.890625 32.28125 
L 35.890625 35.75 
Q 35.890625 39.84375 33.59375 42.3125 
Q 31.296875 44.78125 26.609375 44.78125 
Q 22.5625 44.78125 19.96875 42.75 
Q 17.390625 40.71875 17.390625 37.59375 
L 5.515625 37.59375 
Q 5.515625 41.9375 8.390625 45.71875 
Q 11.28125 49.515625 16.234375 51.65625 
Q 21.1875 53.8125 27.296875 53.8125 
Q 36.578125 53.8125 42.09375 49.140625 
Q 47.609375 44.484375 47.75 36.03125 
L 47.75 12.203125 
Q 47.75 5.078125 49.75 0.828125 
L 49.75 0 
z
M 24.609375 8.546875 
Q 28.125 8.546875 31.21875 10.25 
Q 34.328125 11.96875 35.890625 14.84375 
L 35.890625 24.8125 
L 29.5 24.8125 
Q 22.90625 24.8125 19.578125 22.515625 
Q 16.265625 20.21875 16.265625 16.015625 
Q 16.265625 12.59375 18.53125 10.5625 
Q 20.796875 8.546875 24.609375 8.546875 
z
" id="Roboto-Medium-97"/>
        <path d="M 7.234375 0 
L 7.234375 71.09375 
L 28.21875 71.09375 
Q 37.640625 71.09375 44.9375 66.890625 
Q 52.25 62.703125 56.25 54.984375 
Q 60.25 47.265625 60.25 37.3125 
L 60.25 33.734375 
Q 60.25 23.640625 56.21875 15.96875 
Q 52.203125 8.296875 44.75 4.140625 
Q 37.3125 0 27.6875 0 
z
M 19.578125 61.140625 
L 19.578125 9.859375 
L 27.640625 9.859375 
Q 37.359375 9.859375 42.546875 15.9375 
Q 47.75 22.015625 47.859375 33.40625 
L 47.859375 37.359375 
Q 47.859375 48.921875 42.828125 55.03125 
Q 37.796875 61.140625 28.21875 61.140625 
z
" id="Roboto-Medium-68"/>
        <path d="M 33.5 39.109375 
L 52.046875 39.109375 
L 52.046875 28.265625 
L 33.5 28.265625 
L 33.5 7.125 
L 21.96875 7.125 
L 21.96875 28.265625 
L 3.328125 28.265625 
L 3.328125 39.109375 
L 21.96875 39.109375 
L 21.96875 58.890625 
L 33.5 58.890625 
z
" id="Roboto-Medium-43"/>
        <path d="M 37.453125 0 
L 25.640625 0 
L 25.640625 57.078125 
L 8.203125 51.125 
L 8.203125 61.140625 
L 35.9375 71.34375 
L 37.453125 71.34375 
z
" id="Roboto-Medium-49"/>
        <path d="M 17.234375 52.828125 
L 17.578125 47.3125 
Q 23.140625 53.8125 32.8125 53.8125 
Q 43.40625 53.8125 47.3125 45.703125 
Q 53.078125 53.8125 63.53125 53.8125 
Q 72.265625 53.8125 76.53125 48.96875 
Q 80.8125 44.140625 80.90625 34.71875 
L 80.90625 0 
L 69.046875 0 
L 69.046875 34.375 
Q 69.046875 39.40625 66.84375 41.75 
Q 64.65625 44.09375 59.578125 44.09375 
Q 55.515625 44.09375 52.953125 41.921875 
Q 50.390625 39.75 49.359375 36.234375 
L 49.421875 0 
L 37.546875 0 
L 37.546875 34.765625 
Q 37.3125 44.09375 28.03125 44.09375 
Q 20.90625 44.09375 17.921875 38.28125 
L 17.921875 0 
L 6.0625 0 
L 6.0625 52.828125 
z
" id="Roboto-Medium-109"/>
       </defs>
       <use xlink:href="#Roboto-Medium-80"/>
       <use x="63.916016" xlink:href="#Roboto-Medium-114"/>
       <use x="99.072266" xlink:href="#Roboto-Medium-101"/>
       <use x="152.734375" xlink:href="#Roboto-Medium-118"/>
       <use x="202.197266" xlink:href="#Roboto-Medium-105"/>
       <use x="227.734375" xlink:href="#Roboto-Medium-115"/>
       <use x="279.345703" xlink:href="#Roboto-Medium-105"/>
       <use x="304.882812" xlink:href="#Roboto-Medium-243"/>
       <use x="361.816406" xlink:href="#Roboto-Medium-110"/>
       <use x="417.431641" xlink:href="#Roboto-Medium-32"/>
       <use x="442.333984" xlink:href="#Roboto-Medium-100"/>
       <use x="498.779297" xlink:href="#Roboto-Medium-105"/>
       <use x="524.316406" xlink:href="#Roboto-Medium-97"/>
       <use x="578.417969" xlink:href="#Roboto-Medium-114"/>
       <use x="613.574219" xlink:href="#Roboto-Medium-105"/>
       <use x="639.111328" xlink:href="#Roboto-Medium-97"/>
       <use x="693.212891" xlink:href="#Roboto-Medium-32"/>
       <use x="718.115234" xlink:href="#Roboto-Medium-68"/>
       <use x="783.447266" xlink:href="#Roboto-Medium-43"/>
       <use x="839.160156" xlink:href="#Roboto-Medium-49"/>
       <use x="895.996094" xlink:href="#Roboto-Medium-32"/>
       <use x="920.898438" xlink:href="#Roboto-Medium-100"/>
       <use x="977.34375" xlink:href="#Roboto-Medium-101"/>
       <use x="1031.005859" xlink:href="#Roboto-Medium-109"/>
       <use x="1118.017578" xlink:href="#Roboto-Medium-97"/>
       <use x="1172.119141" xlink:href="#Roboto-Medium-110"/>
       <use x="1227.734375" xlink:href="#Roboto-Medium-100"/>
       <use x="1284.179688" xlink:href="#Roboto-Medium-97"/>
      </g>
     </g>
    </g>
    <g id="xtick_2">
     <g id="line2d_2">
      <g>
       <use style="fill:#58544f;stroke:#58544f;stroke-width:0.8;" x="417.75625" xlink:href="#m31b9b0d825" y="263"/>
      </g>
     </g>
     <g id="text_2">
      <!-- Previsión diaria D+1 fotovoltaica -->
      <g style="fill:#58544f;" transform="translate(359.565 276)scale(0.08 -0.08)">
       <defs>
        <path d="M 10.25 0 
L 10.25 44.046875 
L 2.203125 44.046875 
L 2.203125 52.828125 
L 10.25 52.828125 
L 10.25 57.671875 
Q 10.25 66.453125 15.125 71.234375 
Q 20.015625 76.03125 28.8125 76.03125 
Q 31.9375 76.03125 35.453125 75.140625 
L 35.15625 65.875 
Q 33.203125 66.265625 30.609375 66.265625 
Q 22.125 66.265625 22.125 57.515625 
L 22.125 52.828125 
L 32.859375 52.828125 
L 32.859375 44.046875 
L 22.125 44.046875 
L 22.125 0 
z
" id="Roboto-Medium-102"/>
        <path d="M 3.859375 26.90625 
Q 3.859375 34.671875 6.9375 40.890625 
Q 10.015625 47.125 15.578125 50.46875 
Q 21.140625 53.8125 28.375 53.8125 
Q 39.0625 53.8125 45.71875 46.921875 
Q 52.390625 40.046875 52.9375 28.65625 
L 52.984375 25.875 
Q 52.984375 18.0625 49.96875 11.90625 
Q 46.96875 5.765625 41.375 2.390625 
Q 35.796875 -0.984375 28.46875 -0.984375 
Q 17.28125 -0.984375 10.5625 6.46875 
Q 3.859375 13.921875 3.859375 26.3125 
z
M 15.71875 25.875 
Q 15.71875 17.71875 19.09375 13.109375 
Q 22.46875 8.5 28.46875 8.5 
Q 34.46875 8.5 37.8125 13.1875 
Q 41.15625 17.875 41.15625 26.90625 
Q 41.15625 34.90625 37.71875 39.59375 
Q 34.28125 44.28125 28.375 44.28125 
Q 22.5625 44.28125 19.140625 39.671875 
Q 15.71875 35.0625 15.71875 25.875 
z
" id="Roboto-Medium-111"/>
        <path d="M 20.953125 65.671875 
L 20.953125 52.828125 
L 30.28125 52.828125 
L 30.28125 44.046875 
L 20.953125 44.046875 
L 20.953125 14.546875 
Q 20.953125 11.53125 22.140625 10.1875 
Q 23.34375 8.84375 26.421875 8.84375 
Q 28.46875 8.84375 30.5625 9.328125 
L 30.5625 0.140625 
Q 26.515625 -0.984375 22.75 -0.984375 
Q 9.078125 -0.984375 9.078125 14.109375 
L 9.078125 44.046875 
L 0.390625 44.046875 
L 0.390625 52.828125 
L 9.078125 52.828125 
L 9.078125 65.671875 
z
" id="Roboto-Medium-116"/>
        <path d="M 18.703125 0 
L 6.84375 0 
L 6.84375 75 
L 18.703125 75 
z
" id="Roboto-Medium-108"/>
        <path d="M 27.78125 8.5 
Q 32.234375 8.5 35.15625 11.078125 
Q 38.09375 13.671875 38.28125 17.484375 
L 49.46875 17.484375 
Q 49.265625 12.546875 46.375 8.265625 
Q 43.5 4 38.5625 1.5 
Q 33.640625 -0.984375 27.9375 -0.984375 
Q 16.84375 -0.984375 10.34375 6.1875 
Q 3.859375 13.375 3.859375 26.03125 
L 3.859375 27.25 
Q 3.859375 39.3125 10.296875 46.5625 
Q 16.75 53.8125 27.875 53.8125 
Q 37.3125 53.8125 43.234375 48.3125 
Q 49.171875 42.828125 49.46875 33.890625 
L 38.28125 33.890625 
Q 38.09375 38.421875 35.1875 41.34375 
Q 32.28125 44.28125 27.78125 44.28125 
Q 22.015625 44.28125 18.890625 40.109375 
Q 15.765625 35.9375 15.71875 27.4375 
L 15.71875 25.53125 
Q 15.71875 16.9375 18.8125 12.71875 
Q 21.921875 8.5 27.78125 8.5 
z
" id="Roboto-Medium-99"/>
       </defs>
       <use xlink:href="#Roboto-Medium-80"/>
       <use x="63.916016" xlink:href="#Roboto-Medium-114"/>
       <use x="99.072266" xlink:href="#Roboto-Medium-101"/>
       <use x="152.734375" xlink:href="#Roboto-Medium-118"/>
       <use x="202.197266" xlink:href="#Roboto-Medium-105"/>
       <use x="227.734375" xlink:href="#Roboto-Medium-115"/>
       <use x="279.345703" xlink:href="#Roboto-Medium-105"/>
       <use x="304.882812" xlink:href="#Roboto-Medium-243"/>
       <use x="361.816406" xlink:href="#Roboto-Medium-110"/>
       <use x="417.431641" xlink:href="#Roboto-Medium-32"/>
       <use x="442.333984" xlink:href="#Roboto-Medium-100"/>
       <use x="498.779297" xlink:href="#Roboto-Medium-105"/>
       <use x="524.316406" xlink:href="#Roboto-Medium-97"/>
       <use x="578.417969" xlink:href="#Roboto-Medium-114"/>
       <use x="613.574219" xlink:href="#Roboto-Medium-105"/>
       <use x="639.111328" xlink:href="#Roboto-Medium-97"/>
       <use x="693.212891" xlink:href="#Roboto-Medium-32"/>
       <use x="718.115234" xlink:href="#Roboto-Medium-68"/>
       <use x="783.447266" xlink:href="#Roboto-Medium-43"/>
       <use x="839.160156" xlink:href="#Roboto-Medium-49"/>
       <use x="895.996094" xlink:href="#Roboto-Medium-32"/>
       <use x="920.898438" xlink:href="#Roboto-Medium-102"/>
       <use x="956.347656" xlink:href="#Roboto-Medium-111"/>
       <use x="1013.28125" xlink:href="#Roboto-Medium-116"/>
       <use x="1046.533203" xlink:href="#Roboto-Medium-111"/>
       <use x="1103.466797" xlink:href="#Roboto-Medium-118"/>
       <use x="1152.929688" xlink:href="#Roboto-Medium-111"/>
       <use x="1209.863281" xlink:href="#Roboto-Medium-108"/>
       <use x="1235.400391" xlink:href="#Roboto-Medium-116"/>
       <use x="1268.652344" xlink:href="#Roboto-Medium-97"/>
       <use x="1322.753906" xlink:href="#Roboto-Medium-105"/>
       <use x="1348.291016" xlink:href="#Roboto-Medium-99"/>
       <use x="1400.634766" xlink:href="#Roboto-Medium-97"/>
      </g>
     </g>
    </g>
    <g id="xtick_3">
     <g id="line2d_3">
      <g>
       <use style="fill:#58544f;stroke:#58544f;stroke-width:0.8;" x="678.33375" xlink:href="#m31b9b0d825" y="263"/>
      </g>
     </g>
     <g id="text_3">
      <!-- Previsión diaria D+1 eólica -->
      <g style="fill:#58544f;" transform="translate(630.7725 276)scale(0.08 -0.08)">
       <use xlink:href="#Roboto-Medium-80"/>
       <use x="63.916016" xlink:href="#Roboto-Medium-114"/>
       <use x="99.072266" xlink:href="#Roboto-Medium-101"/>
       <use x="152.734375" xlink:href="#Roboto-Medium-118"/>
       <use x="202.197266" xlink:href="#Roboto-Medium-105"/>
       <use x="227.734375" xlink:href="#Roboto-Medium-115"/>
       <use x="279.345703" xlink:href="#Roboto-Medium-105"/>
       <use x="304.882812" xlink:href="#Roboto-Medium-243"/>
       <use x="361.816406" xlink:href="#Roboto-Medium-110"/>
       <use x="417.431641" xlink:href="#Roboto-Medium-32"/>
       <use x="442.333984" xlink:href="#Roboto-Medium-100"/>
       <use x="498.779297" xlink:href="#Roboto-Medium-105"/>
       <use x="524.316406" xlink:href="#Roboto-Medium-97"/>
       <use x="578.417969" xlink:href="#Roboto-Medium-114"/>
       <use x="613.574219" xlink:href="#Roboto-Medium-105"/>
       <use x="639.111328" xlink:href="#Roboto-Medium-97"/>
       <use x="693.212891" xlink:href="#Roboto-Medium-32"/>
       <use x="718.115234" xlink:href="#Roboto-Medium-68"/>
       <use x="783.447266" xlink:href="#Roboto-Medium-43"/>
       <use x="839.160156" xlink:href="#Roboto-Medium-49"/>
       <use x="895.996094" xlink:href="#Roboto-Medium-32"/>
       <use x="920.898438" xlink:href="#Roboto-Medium-101"/>
       <use x="974.560547" xlink:href="#Roboto-Medium-243"/>
       <use x="1031.494141" xlink:href="#Roboto-Medium-108"/>
       <use x="1057.03125" xlink:href="#Roboto-Medium-105"/>
       <use x="1082.568359" xlink:href="#Roboto-Medium-99"/>
       <use x="1134.912109" xlink:href="#Roboto-Medium-97"/>
      </g>
     </g>
    </g>
    <g id="xtick_4">
     <g id="line2d_4">
      <g>
       <use style="fill:#58544f;stroke:#58544f;stroke-width:0.8;" x="938.91125" xlink:href="#m31b9b0d825" y="263"/>
      </g>
     </g>
     <g id="text_4">
      <!-- Precio mercado SPOT Diario -->
      <g style="fill:#58544f;" transform="translate(887.929375 276)scale(0.08 -0.08)">
       <defs>
        <path d="M 44.390625 18.3125 
Q 44.390625 23 41.09375 25.53125 
Q 37.796875 28.078125 29.203125 30.65625 
Q 20.609375 33.25 15.53125 36.421875 
Q 5.8125 42.53125 5.8125 52.34375 
Q 5.8125 60.9375 12.8125 66.5 
Q 19.828125 72.078125 31 72.078125 
Q 38.421875 72.078125 44.234375 69.34375 
Q 50.046875 66.609375 53.359375 61.546875 
Q 56.6875 56.5 56.6875 50.34375 
L 44.390625 50.34375 
Q 44.390625 55.90625 40.890625 59.046875 
Q 37.40625 62.203125 30.90625 62.203125 
Q 24.859375 62.203125 21.515625 59.609375 
Q 18.171875 57.03125 18.171875 52.390625 
Q 18.171875 48.484375 21.78125 45.875 
Q 25.390625 43.265625 33.6875 40.796875 
Q 42 38.328125 47.015625 35.171875 
Q 52.046875 32.03125 54.390625 27.953125 
Q 56.734375 23.875 56.734375 18.40625 
Q 56.734375 9.515625 49.921875 4.265625 
Q 43.109375 -0.984375 31.453125 -0.984375 
Q 23.734375 -0.984375 17.265625 1.875 
Q 10.796875 4.734375 7.203125 9.765625 
Q 3.609375 14.796875 3.609375 21.484375 
L 15.96875 21.484375 
Q 15.96875 15.4375 19.96875 12.109375 
Q 23.96875 8.796875 31.453125 8.796875 
Q 37.890625 8.796875 41.140625 11.40625 
Q 44.390625 14.015625 44.390625 18.3125 
z
" id="Roboto-Medium-83"/>
        <path d="M 63.96875 33.6875 
Q 63.96875 23.25 60.34375 15.359375 
Q 56.734375 7.46875 50.015625 3.234375 
Q 43.3125 -0.984375 34.578125 -0.984375 
Q 25.921875 -0.984375 19.15625 3.234375 
Q 12.40625 7.46875 8.71875 15.28125 
Q 5.03125 23.09375 4.984375 33.296875 
L 4.984375 37.3125 
Q 4.984375 47.703125 8.671875 55.65625 
Q 12.359375 63.625 19.0625 67.84375 
Q 25.78125 72.078125 34.46875 72.078125 
Q 43.171875 72.078125 49.875 67.890625 
Q 56.59375 63.71875 60.25 55.875 
Q 63.921875 48.046875 63.96875 37.640625 
z
M 51.609375 37.40625 
Q 51.609375 49.21875 47.140625 55.515625 
Q 42.671875 61.8125 34.46875 61.8125 
Q 26.46875 61.8125 21.953125 55.53125 
Q 17.4375 49.265625 17.328125 37.796875 
L 17.328125 33.6875 
Q 17.328125 21.96875 21.890625 15.578125 
Q 26.46875 9.1875 34.578125 9.1875 
Q 42.78125 9.1875 47.1875 15.4375 
Q 51.609375 21.6875 51.609375 33.6875 
z
" id="Roboto-Medium-79"/>
        <path d="M 58.59375 61.140625 
L 36.421875 61.140625 
L 36.421875 0 
L 24.171875 0 
L 24.171875 61.140625 
L 2.203125 61.140625 
L 2.203125 71.09375 
L 58.59375 71.09375 
z
" id="Roboto-Medium-84"/>
       </defs>
       <use xlink:href="#Roboto-Medium-80"/>
       <use x="63.916016" xlink:href="#Roboto-Medium-114"/>
       <use x="99.072266" xlink:href="#Roboto-Medium-101"/>
       <use x="152.734375" xlink:href="#Roboto-Medium-99"/>
       <use x="205.078125" xlink:href="#Roboto-Medium-105"/>
       <use x="230.615234" xlink:href="#Roboto-Medium-111"/>
       <use x="287.548828" xlink:href="#Roboto-Medium-32"/>
       <use x="312.451172" xlink:href="#Roboto-Medium-109"/>
       <use x="399.462891" xlink:href="#Roboto-Medium-101"/>
       <use x="453.125" xlink:href="#Roboto-Medium-114"/>
       <use x="488.28125" xlink:href="#Roboto-Medium-99"/>
       <use x="540.625" xlink:href="#Roboto-Medium-97"/>
       <use x="594.726562" xlink:href="#Roboto-Medium-100"/>
       <use x="651.171875" xlink:href="#Roboto-Medium-111"/>
       <use x="708.105469" xlink:href="#Roboto-Medium-32"/>
       <use x="733.007812" xlink:href="#Roboto-Medium-83"/>
       <use x="793.359375" xlink:href="#Roboto-Medium-80"/>
       <use x="857.275391" xlink:href="#Roboto-Medium-79"/>
       <use x="926.318359" xlink:href="#Roboto-Medium-84"/>
       <use x="987.011719" xlink:href="#Roboto-Medium-32"/>
       <use x="1011.914062" xlink:href="#Roboto-Medium-68"/>
       <use x="1077.246094" xlink:href="#Roboto-Medium-105"/>
       <use x="1102.783203" xlink:href="#Roboto-Medium-97"/>
       <use x="1156.884766" xlink:href="#Roboto-Medium-114"/>
       <use x="1192.041016" xlink:href="#Roboto-Medium-105"/>
       <use x="1217.578125" xlink:href="#Roboto-Medium-111"/>
      </g>
     </g>
    </g>
   </g>
   <g id="matplotlib.axis_2">
    <g id="ytick_1">
     <g id="line2d_5">
      <defs>
       <path d="M 0 0 
L -3.5 0 
" id="m8db60a5965" style="stroke:#58544f;stroke-width:0.8;"/>
      </defs>
      <g>
       <use style="fill:#58544f;stroke:#58544f;stroke-width:0.8;" x="26.89" xlink:href="#m8db60a5965" y="229.888986"/>
      </g>
     </g>
     <g id="text_5">
      <!-- −2 -->
      <g style="fill:#58544f;" transform="translate(10.83125 232.888986)scale(0.08 -0.08)">
       <defs>
        <path d="M 49.171875 30.328125 
L 7.71875 30.328125 
L 7.71875 39.890625 
L 49.171875 39.890625 
z
" id="Roboto-Medium-8722"/>
        <path d="M 53.125 0 
L 5.328125 0 
L 5.328125 8.15625 
L 29 33.984375 
Q 34.125 39.703125 36.296875 43.53125 
Q 38.484375 47.359375 38.484375 51.21875 
Q 38.484375 56.296875 35.625 59.421875 
Q 32.765625 62.546875 27.9375 62.546875 
Q 22.171875 62.546875 19 59.03125 
Q 15.828125 55.515625 15.828125 49.421875 
L 3.953125 49.421875 
Q 3.953125 55.90625 6.90625 61.109375 
Q 9.859375 66.3125 15.34375 69.1875 
Q 20.84375 72.078125 28.03125 72.078125 
Q 38.375 72.078125 44.359375 66.875 
Q 50.34375 61.671875 50.34375 52.484375 
Q 50.34375 47.171875 47.34375 41.328125 
Q 44.34375 35.5 37.5 28.078125 
L 20.125 9.46875 
L 53.125 9.46875 
z
" id="Roboto-Medium-50"/>
       </defs>
       <use xlink:href="#Roboto-Medium-8722"/>
       <use x="56.396484" xlink:href="#Roboto-Medium-50"/>
      </g>
     </g>
    </g>
    <g id="ytick_2">
     <g id="line2d_6">
      <g>
       <use style="fill:#58544f;stroke:#58544f;stroke-width:0.8;" x="26.89" xlink:href="#m8db60a5965" y="194.436655"/>
      </g>
     </g>
     <g id="text_6">
      <!-- 0 -->
      <g style="fill:#58544f;" transform="translate(15.3425 197.436655)scale(0.08 -0.08)">
       <defs>
        <path d="M 51.65625 29.9375 
Q 51.65625 14.59375 45.921875 6.796875 
Q 40.1875 -0.984375 28.46875 -0.984375 
Q 16.9375 -0.984375 11.109375 6.609375 
Q 5.28125 14.203125 5.125 29.109375 
L 5.125 41.40625 
Q 5.125 56.734375 10.859375 64.40625 
Q 16.609375 72.078125 28.375 72.078125 
Q 40.046875 72.078125 45.78125 64.59375 
Q 51.515625 57.125 51.65625 42.234375 
z
M 39.796875 43.21875 
Q 39.796875 53.21875 37.0625 57.875 
Q 34.328125 62.546875 28.375 62.546875 
Q 22.5625 62.546875 19.828125 58.125 
Q 17.09375 53.71875 16.9375 44.34375 
L 16.9375 28.21875 
Q 16.9375 18.265625 19.71875 13.375 
Q 22.515625 8.5 28.46875 8.5 
Q 34.1875 8.5 36.921875 13.015625 
Q 39.65625 17.53125 39.796875 27.15625 
z
" id="Roboto-Medium-48"/>
       </defs>
       <use xlink:href="#Roboto-Medium-48"/>
      </g>
     </g>
    </g>
    <g id="ytick_3">
     <g id="line2d_7">
      <g>
       <use style="fill:#58544f;stroke:#58544f;stroke-width:0.8;" x="26.89" xlink:href="#m8db60a5965" y="158.984325"/>
      </g>
     </g>
     <g id="text_7">
      <!-- 2 -->
      <g style="fill:#58544f;" transform="translate(15.3425 161.984325)scale(0.08 -0.08)">
       <use xlink:href="#Roboto-Medium-50"/>
      </g>
     </g>
    </g>
    <g id="ytick_4">
     <g id="line2d_8">
      <g>
       <use style="fill:#58544f;stroke:#58544f;stroke-width:0.8;" x="26.89" xlink:href="#m8db60a5965" y="123.531995"/>
      </g>
     </g>
     <g id="text_8">
      <!-- 4 -->
      <g style="fill:#58544f;" transform="translate(15.3425 126.531995)scale(0.08 -0.08)">
       <defs>
        <path d="M 45.453125 25.34375 
L 54.296875 25.34375 
L 54.296875 15.828125 
L 45.453125 15.828125 
L 45.453125 0 
L 33.59375 0 
L 33.59375 15.828125 
L 2.875 15.828125 
L 2.546875 23.046875 
L 33.203125 71.09375 
L 45.453125 71.09375 
z
M 14.984375 25.34375 
L 33.59375 25.34375 
L 33.59375 55.03125 
L 32.71875 53.46875 
z
" id="Roboto-Medium-52"/>
       </defs>
       <use xlink:href="#Roboto-Medium-52"/>
      </g>
     </g>
    </g>
    <g id="ytick_5">
     <g id="line2d_9">
      <g>
       <use style="fill:#58544f;stroke:#58544f;stroke-width:0.8;" x="26.89" xlink:href="#m8db60a5965" y="88.079665"/>
      </g>
     </g>
     <g id="text_9">
      <!-- 6 -->
      <g style="fill:#58544f;" transform="translate(15.3425 91.079665)scale(0.08 -0.08)">
       <defs>
        <path d="M 42.234375 71.4375 
L 42.234375 61.625 
L 40.765625 61.625 
Q 30.8125 61.46875 24.84375 56.140625 
Q 18.890625 50.828125 17.78125 41.0625 
Q 23.484375 47.078125 32.375 47.078125 
Q 41.796875 47.078125 47.234375 40.4375 
Q 52.6875 33.796875 52.6875 23.296875 
Q 52.6875 12.453125 46.3125 5.734375 
Q 39.9375 -0.984375 29.59375 -0.984375 
Q 18.953125 -0.984375 12.328125 6.875 
Q 5.71875 14.75 5.71875 27.484375 
L 5.71875 31.546875 
Q 5.71875 50.25 14.8125 60.84375 
Q 23.921875 71.4375 41.015625 71.4375 
z
M 29.5 37.5 
Q 25.59375 37.5 22.34375 35.296875 
Q 19.09375 33.109375 17.578125 29.4375 
L 17.578125 25.828125 
Q 17.578125 17.921875 20.890625 13.25 
Q 24.21875 8.59375 29.484375 8.59375 
Q 34.765625 8.59375 37.84375 12.546875 
Q 40.921875 16.5 40.921875 22.9375 
Q 40.921875 29.390625 37.796875 33.4375 
Q 34.671875 37.5 29.5 37.5 
z
" id="Roboto-Medium-54"/>
       </defs>
       <use xlink:href="#Roboto-Medium-54"/>
      </g>
     </g>
    </g>
    <g id="ytick_6">
     <g id="line2d_10">
      <g>
       <use style="fill:#58544f;stroke:#58544f;stroke-width:0.8;" x="26.89" xlink:href="#m8db60a5965" y="52.627335"/>
      </g>
     </g>
     <g id="text_10">
      <!-- 8 -->
      <g style="fill:#58544f;" transform="translate(15.3425 55.627335)scale(0.08 -0.08)">
       <defs>
        <path d="M 50.09375 52.34375 
Q 50.09375 47.125 47.40625 43.046875 
Q 44.734375 38.96875 40.09375 36.625 
Q 45.65625 34.03125 48.65625 29.53125 
Q 51.65625 25.046875 51.65625 19.390625 
Q 51.65625 10.015625 45.3125 4.515625 
Q 38.96875 -0.984375 28.421875 -0.984375 
Q 17.828125 -0.984375 11.453125 4.53125 
Q 5.078125 10.0625 5.078125 19.390625 
Q 5.078125 25.09375 8.109375 29.640625 
Q 11.140625 34.1875 16.609375 36.625 
Q 12.015625 38.96875 9.34375 43.046875 
Q 6.6875 47.125 6.6875 52.34375 
Q 6.6875 61.421875 12.546875 66.75 
Q 18.40625 72.078125 28.375 72.078125 
Q 38.375 72.078125 44.234375 66.75 
Q 50.09375 61.421875 50.09375 52.34375 
z
M 39.796875 19.96875 
Q 39.796875 25.25 36.640625 28.484375 
Q 33.5 31.734375 28.3125 31.734375 
Q 23.140625 31.734375 20.03125 28.515625 
Q 16.9375 25.296875 16.9375 19.96875 
Q 16.9375 14.75 19.984375 11.625 
Q 23.046875 8.5 28.421875 8.5 
Q 33.796875 8.5 36.796875 11.515625 
Q 39.796875 14.546875 39.796875 19.96875 
z
M 38.28125 51.90625 
Q 38.28125 56.546875 35.59375 59.546875 
Q 32.90625 62.546875 28.359375 62.546875 
Q 23.828125 62.546875 21.1875 59.6875 
Q 18.5625 56.84375 18.5625 51.90625 
Q 18.5625 47.015625 21.21875 44.140625 
Q 23.875 41.265625 28.40625 41.265625 
Q 32.953125 41.265625 35.609375 44.140625 
Q 38.28125 47.015625 38.28125 51.90625 
z
" id="Roboto-Medium-56"/>
       </defs>
       <use xlink:href="#Roboto-Medium-56"/>
      </g>
     </g>
    </g>
   </g>
   <g id="line2d_11">
    <path clip-path="url(#pd5cbe6928a)" d="M 157.17875 248.185122 
L 157.17875 139.307833 
" style="fill:none;stroke:#3d3d3d;stroke-linecap:square;stroke-width:3;"/>
   </g>
   <g id="line2d_12">
    <path clip-path="url(#pd5cbe6928a)" d="M 157.17875 209.015253 
L 157.17875 180.877871 
" style="fill:none;stroke:#3d3d3d;stroke-linecap:square;stroke-width:9;"/>
   </g>
   <g id="line2d_13">
    <path clip-path="url(#pd5cbe6928a)" d="M 417.75625 207.104627 
L 417.75625 152.652827 
" style="fill:none;stroke:#3d3d3d;stroke-linecap:square;stroke-width:3;"/>
   </g>
   <g id="line2d_14">
    <path clip-path="url(#pd5cbe6928a)" d="M 417.75625 207.104627 
L 417.75625 185.322633 
" style="fill:none;stroke:#3d3d3d;stroke-linecap:square;stroke-width:9;"/>
   </g>
   <g id="line2d_15">
    <path clip-path="url(#pd5cbe6928a)" d="M 678.33375 224.074132 
L 678.33375 147.012552 
" style="fill:none;stroke:#3d3d3d;stroke-linecap:square;stroke-width:3;"/>
   </g>
   <g id="line2d_16">
    <path clip-path="url(#pd5cbe6928a)" d="M 678.33375 208.211872 
L 678.33375 183.730654 
" style="fill:none;stroke:#3d3d3d;stroke-linecap:square;stroke-width:9;"/>
   </g>
   <g id="line2d_17">
    <path clip-path="url(#pd5cbe6928a)" d="M 938.91125 214.726737 
L 938.91125 160.134033 
" style="fill:none;stroke:#3d3d3d;stroke-linecap:square;stroke-width:3;"/>
   </g>
   <g id="line2d_18">
    <path clip-path="url(#pd5cbe6928a)" d="M 938.91125 205.674207 
L 938.91125 187.45508 
" style="fill:none;stroke:#3d3d3d;stroke-linecap:square;stroke-width:9;"/>
   </g>
   <g id="patch_3">
    <path d="M 26.89 263 
L 26.89 35.28 
" style="fill:none;stroke:#58544f;stroke-linecap:square;stroke-linejoin:miter;stroke-width:0.8;"/>
   </g>
   <g id="patch_4">
    <path d="M 1069.2 263 
L 1069.2 35.28 
" style="fill:none;stroke:#58544f;stroke-linecap:square;stroke-linejoin:miter;stroke-width:0.8;"/>
   </g>
   <g id="patch_5">
    <path d="M 26.89 263 
L 1069.2 263 
" style="fill:none;stroke:#58544f;stroke-linecap:square;stroke-linejoin:miter;stroke-width:0.8;"/>
   </g>
   <g id="patch_6">
    <path d="M 26.89 35.28 
L 1069.2 35.28 
" style="fill:none;stroke:#58544f;stroke-linecap:square;stroke-linejoin:miter;stroke-width:0.8;"/>
   </g>
   <g id="PathCollection_1">
    <defs>
     <path d="M 0 3 
C 0.795609 3 1.55874 2.683901 2.12132 2.12132 
C 2.683901 1.55874 3 0.795609 3 0 
C 3 -0.795609 2.683901 -1.55874 2.12132 -2.12132 
C 1.55874 -2.683901 0.795609 -3 0 -3 
C -0.795609 -3 -1.55874 -2.683901 -2.12132 -2.12132 
C -2.683901 -1.55874 -3 -0.795609 -3 0 
C -3 0.795609 -2.683901 1.55874 -2.12132 2.12132 
C -1.55874 2.683901 -0.795609 3 0 3 
z
" id="m594ec93b12" style="stroke:#3d3d3d;"/>
    </defs>
    <g clip-path="url(#pd5cbe6928a)">
     <use style="fill:#ffffff;stroke:#3d3d3d;" x="157.17875" xlink:href="#m594ec93b12" y="194.277"/>
    </g>
   </g>
   <g id="PathCollection_2">
    <g clip-path="url(#pd5cbe6928a)">
     <use style="fill:#ffffff;stroke:#3d3d3d;" x="417.75625" xlink:href="#m594ec93b12" y="206.187383"/>
    </g>
   </g>
   <g id="PathCollection_3">
    <g clip-path="url(#pd5cbe6928a)">
     <use style="fill:#ffffff;stroke:#3d3d3d;" x="678.33375" xlink:href="#m594ec93b12" y="198.006191"/>
    </g>
   </g>
   <g id="PathCollection_4">
    <g clip-path="url(#pd5cbe6928a)">
     <use style="fill:#ffffff;stroke:#3d3d3d;" x="938.91125" xlink:href="#m594ec93b12" y="202.459136"/>
    </g>
   </g>
  </g>
  <g id="text_11">
   <!-- Violin Plot of all Continuous Variables -->
   <g style="fill:#262626;" transform="translate(413.387109 17.01)scale(0.15 -0.15)">
    <defs>
     <path d="M 32.28125 15.484375 
L 50.34375 71.09375 
L 63.921875 71.09375 
L 38.328125 0 
L 26.375 0 
L 0.875 71.09375 
L 14.40625 71.09375 
z
" id="Roboto-Medium-86"/>
     <path d="M 61.46875 23.140625 
Q 60.40625 11.765625 53.078125 5.390625 
Q 45.75 -0.984375 33.59375 -0.984375 
Q 25.09375 -0.984375 18.625 3.046875 
Q 12.15625 7.078125 8.640625 14.5 
Q 5.125 21.921875 4.984375 31.734375 
L 4.984375 38.375 
Q 4.984375 48.4375 8.546875 56.09375 
Q 12.109375 63.765625 18.765625 67.921875 
Q 25.4375 72.078125 34.1875 72.078125 
Q 45.953125 72.078125 53.125 65.671875 
Q 60.296875 59.28125 61.46875 47.609375 
L 49.171875 47.609375 
Q 48.296875 55.28125 44.703125 58.671875 
Q 41.109375 62.0625 34.1875 62.0625 
Q 26.125 62.0625 21.796875 56.171875 
Q 17.484375 50.296875 17.390625 38.921875 
L 17.390625 32.625 
Q 17.390625 21.09375 21.515625 15.03125 
Q 25.640625 8.984375 33.59375 8.984375 
Q 40.875 8.984375 44.53125 12.25 
Q 48.1875 15.53125 49.171875 23.140625 
z
" id="Roboto-Medium-67"/>
     <path d="M 38.09375 5.171875 
Q 32.859375 -0.984375 23.25 -0.984375 
Q 14.65625 -0.984375 10.234375 4.046875 
Q 5.8125 9.078125 5.8125 18.609375 
L 5.8125 52.828125 
L 17.671875 52.828125 
L 17.671875 18.75 
Q 17.671875 8.6875 26.03125 8.6875 
Q 34.671875 8.6875 37.703125 14.890625 
L 37.703125 52.828125 
L 49.5625 52.828125 
L 49.5625 0 
L 38.375 0 
z
" id="Roboto-Medium-117"/>
     <path d="M 52.4375 25.875 
Q 52.4375 13.578125 46.9375 6.296875 
Q 41.453125 -0.984375 31.84375 -0.984375 
Q 22.5625 -0.984375 17.390625 5.71875 
L 16.796875 0 
L 6.0625 0 
L 6.0625 75 
L 17.921875 75 
L 17.921875 47.75 
Q 23.046875 53.8125 31.734375 53.8125 
Q 41.40625 53.8125 46.921875 46.625 
Q 52.4375 39.453125 52.4375 26.5625 
z
M 40.578125 26.90625 
Q 40.578125 35.5 37.546875 39.796875 
Q 34.515625 44.09375 28.765625 44.09375 
Q 21.046875 44.09375 17.921875 37.359375 
L 17.921875 15.578125 
Q 21.09375 8.6875 28.859375 8.6875 
Q 34.421875 8.6875 37.453125 12.84375 
Q 40.484375 17 40.578125 25.390625 
z
" id="Roboto-Medium-98"/>
    </defs>
    <use xlink:href="#Roboto-Medium-86"/>
    <use x="64.697266" xlink:href="#Roboto-Medium-105"/>
    <use x="90.234375" xlink:href="#Roboto-Medium-111"/>
    <use x="147.167969" xlink:href="#Roboto-Medium-108"/>
    <use x="172.705078" xlink:href="#Roboto-Medium-105"/>
    <use x="198.242188" xlink:href="#Roboto-Medium-110"/>
    <use x="253.857422" xlink:href="#Roboto-Medium-32"/>
    <use x="278.759766" xlink:href="#Roboto-Medium-80"/>
    <use x="342.675781" xlink:href="#Roboto-Medium-108"/>
    <use x="368.212891" xlink:href="#Roboto-Medium-111"/>
    <use x="425.146484" xlink:href="#Roboto-Medium-116"/>
    <use x="458.398438" xlink:href="#Roboto-Medium-32"/>
    <use x="483.300781" xlink:href="#Roboto-Medium-111"/>
    <use x="540.234375" xlink:href="#Roboto-Medium-102"/>
    <use x="575.683594" xlink:href="#Roboto-Medium-32"/>
    <use x="600.585938" xlink:href="#Roboto-Medium-97"/>
    <use x="654.6875" xlink:href="#Roboto-Medium-108"/>
    <use x="680.224609" xlink:href="#Roboto-Medium-108"/>
    <use x="705.761719" xlink:href="#Roboto-Medium-32"/>
    <use x="730.664062" xlink:href="#Roboto-Medium-67"/>
    <use x="795.947266" xlink:href="#Roboto-Medium-111"/>
    <use x="852.880859" xlink:href="#Roboto-Medium-110"/>
    <use x="908.496094" xlink:href="#Roboto-Medium-116"/>
    <use x="941.748047" xlink:href="#Roboto-Medium-105"/>
    <use x="967.285156" xlink:href="#Roboto-Medium-110"/>
    <use x="1022.900391" xlink:href="#Roboto-Medium-117"/>
    <use x="1078.466797" xlink:href="#Roboto-Medium-111"/>
    <use x="1135.400391" xlink:href="#Roboto-Medium-117"/>
    <use x="1190.966797" xlink:href="#Roboto-Medium-115"/>
    <use x="1242.578125" xlink:href="#Roboto-Medium-32"/>
    <use x="1267.480469" xlink:href="#Roboto-Medium-86"/>
    <use x="1332.177734" xlink:href="#Roboto-Medium-97"/>
    <use x="1386.279297" xlink:href="#Roboto-Medium-114"/>
    <use x="1421.435547" xlink:href="#Roboto-Medium-105"/>
    <use x="1446.972656" xlink:href="#Roboto-Medium-97"/>
    <use x="1501.074219" xlink:href="#Roboto-Medium-98"/>
    <use x="1557.373047" xlink:href="#Roboto-Medium-108"/>
    <use x="1582.910156" xlink:href="#Roboto-Medium-101"/>
    <use x="1636.572266" xlink:href="#Roboto-Medium-115"/>
   </g>
  </g>
 </g>
 <defs>
  <clipPath id="pd5cbe6928a">
   <rect height="227.72" width="1042.31" x="26.89" y="35.28"/>
  </clipPath>
 </defs>
</svg>
