<?xml version="1.0" encoding="utf-8" standalone="no"?>
<!DOCTYPE svg PUBLIC "-//W3C//DTD SVG 1.1//EN"
  "http://www.w3.org/Graphics/SVG/1.1/DTD/svg11.dtd">
<!-- Created with matplotlib (https://matplotlib.org/) -->
<svg height="1008pt" version="1.1" viewBox="0 0 1080 1008" width="1080pt" xmlns="http://www.w3.org/2000/svg" xmlns:xlink="http://www.w3.org/1999/xlink">
 <metadata>
  <rdf:RDF xmlns:cc="http://creativecommons.org/ns#" xmlns:dc="http://purl.org/dc/elements/1.1/" xmlns:rdf="http://www.w3.org/1999/02/22-rdf-syntax-ns#">
   <cc:Work>
    <dc:type rdf:resource="http://purl.org/dc/dcmitype/StillImage"/>
    <dc:date>2022-08-11T19:11:39.009701</dc:date>
    <dc:format>image/svg+xml</dc:format>
    <dc:creator>
     <cc:Agent>
      <dc:title>Matplotlib v3.3.2, https://matplotlib.org/</dc:title>
     </cc:Agent>
    </dc:creator>
   </cc:Work>
  </rdf:RDF>
 </metadata>
 <defs>
  <style type="text/css">*{stroke-linecap:butt;stroke-linejoin:round;}</style>
 </defs>
 <g id="figure_1">
  <g id="patch_1">
   <path d="M 0 1008 
L 1080 1008 
L 1080 0 
L 0 0 
z
" style="fill:#f0f0f0;"/>
  </g>
  <g id="axes_1">
   <g id="patch_2">
    <path d="M 40.3 498 
L 536.85 498 
L 536.85 51.6 
L 40.3 51.6 
z
" style="fill:#ffffff;"/>
   </g>
   <g id="patch_3">
    <path clip-path="url(#pec7fe3e495)" d="M 56.851667 341.124005 
L 189.265 341.124005 
L 189.265 234.094709 
L 56.851667 234.094709 
L 56.851667 341.124005 
z
" style="fill:#3b7fb2;stroke:#3d3d3d;stroke-linejoin:miter;stroke-width:3;"/>
   </g>
   <g id="patch_4">
    <path clip-path="url(#pec7fe3e495)" d="M 222.368333 322.636387 
L 354.781667 322.636387 
L 354.781667 222.054283 
L 222.368333 222.054283 
L 222.368333 322.636387 
z
" style="fill:#c88458;stroke:#3d3d3d;stroke-linejoin:miter;stroke-width:3;"/>
   </g>
   <g id="matplotlib.axis_1">
    <g id="xtick_1">
     <g id="line2d_1">
      <defs>
       <path d="M 0 0 
L 0 3.5 
" id="m3a7f73e5af" style="stroke:#58544f;stroke-width:0.8;"/>
      </defs>
      <g>
       <use style="fill:#58544f;stroke:#58544f;stroke-width:0.8;" x="123.058333" xlink:href="#m3a7f73e5af" y="498"/>
      </g>
     </g>
     <g id="text_1">
      <!-- -1.0 -->
      <g style="fill:#58544f;" transform="translate(116.080833 511)scale(0.08 -0.08)">
       <defs>
        <path d="M 29.109375 25.4375 
L 3.46875 25.4375 
L 3.46875 35.015625 
L 29.109375 35.015625 
z
" id="Roboto-Medium-45"/>
        <path d="M 37.453125 0 
L 25.640625 0 
L 25.640625 57.078125 
L 8.203125 51.125 
L 8.203125 61.140625 
L 35.9375 71.34375 
L 37.453125 71.34375 
z
" id="Roboto-Medium-49"/>
        <path d="M 13.484375 12.5 
Q 16.796875 12.5 18.59375 10.609375 
Q 20.40625 8.734375 20.40625 5.90625 
Q 20.40625 3.125 18.59375 1.296875 
Q 16.796875 -0.53125 13.484375 -0.53125 
Q 10.296875 -0.53125 8.4375 1.265625 
Q 6.59375 3.078125 6.59375 5.90625 
Q 6.59375 8.734375 8.390625 10.609375 
Q 10.203125 12.5 13.484375 12.5 
z
" id="Roboto-Medium-46"/>
        <path d="M 51.65625 29.9375 
Q 51.65625 14.59375 45.921875 6.796875 
Q 40.1875 -0.984375 28.46875 -0.984375 
Q 16.9375 -0.984375 11.109375 6.609375 
Q 5.28125 14.203125 5.125 29.109375 
L 5.125 41.40625 
Q 5.125 56.734375 10.859375 64.40625 
Q 16.609375 72.078125 28.375 72.078125 
Q 40.046875 72.078125 45.78125 64.59375 
Q 51.515625 57.125 51.65625 42.234375 
z
M 39.796875 43.21875 
Q 39.796875 53.21875 37.0625 57.875 
Q 34.328125 62.546875 28.375 62.546875 
Q 22.5625 62.546875 19.828125 58.125 
Q 17.09375 53.71875 16.9375 44.34375 
L 16.9375 28.21875 
Q 16.9375 18.265625 19.71875 13.375 
Q 22.515625 8.5 28.46875 8.5 
Q 34.1875 8.5 36.921875 13.015625 
Q 39.65625 17.53125 39.796875 27.15625 
z
" id="Roboto-Medium-48"/>
       </defs>
       <use xlink:href="#Roboto-Medium-45"/>
       <use x="32.8125" xlink:href="#Roboto-Medium-49"/>
       <use x="89.648438" xlink:href="#Roboto-Medium-46"/>
       <use x="117.578125" xlink:href="#Roboto-Medium-48"/>
      </g>
     </g>
    </g>
    <g id="xtick_2">
     <g id="line2d_2">
      <g>
       <use style="fill:#58544f;stroke:#58544f;stroke-width:0.8;" x="288.575" xlink:href="#m3a7f73e5af" y="498"/>
      </g>
     </g>
     <g id="text_2">
      <!-- 1.0 -->
      <g style="fill:#58544f;" transform="translate(282.91 511)scale(0.08 -0.08)">
       <use xlink:href="#Roboto-Medium-49"/>
       <use x="56.835938" xlink:href="#Roboto-Medium-46"/>
       <use x="84.765625" xlink:href="#Roboto-Medium-48"/>
      </g>
     </g>
    </g>
    <g id="xtick_3">
     <g id="line2d_3">
      <g>
       <use style="fill:#58544f;stroke:#58544f;stroke-width:0.8;" x="454.091667" xlink:href="#m3a7f73e5af" y="498"/>
      </g>
     </g>
     <g id="text_3">
      <!-- nan -->
      <g style="fill:#58544f;" transform="translate(447.478542 511)scale(0.08 -0.08)">
       <defs>
        <path d="M 17.09375 52.828125 
L 17.4375 46.734375 
Q 23.296875 53.8125 32.8125 53.8125 
Q 49.3125 53.8125 49.609375 34.90625 
L 49.609375 0 
L 37.75 0 
L 37.75 34.234375 
Q 37.75 39.265625 35.578125 41.671875 
Q 33.40625 44.09375 28.46875 44.09375 
Q 21.296875 44.09375 17.78125 37.59375 
L 17.78125 0 
L 5.90625 0 
L 5.90625 52.828125 
z
" id="Roboto-Medium-110"/>
        <path d="M 37.640625 0 
Q 36.859375 1.515625 36.28125 4.9375 
Q 30.609375 -0.984375 22.40625 -0.984375 
Q 14.453125 -0.984375 9.421875 3.5625 
Q 4.390625 8.109375 4.390625 14.796875 
Q 4.390625 23.25 10.65625 27.765625 
Q 16.9375 32.28125 28.609375 32.28125 
L 35.890625 32.28125 
L 35.890625 35.75 
Q 35.890625 39.84375 33.59375 42.3125 
Q 31.296875 44.78125 26.609375 44.78125 
Q 22.5625 44.78125 19.96875 42.75 
Q 17.390625 40.71875 17.390625 37.59375 
L 5.515625 37.59375 
Q 5.515625 41.9375 8.390625 45.71875 
Q 11.28125 49.515625 16.234375 51.65625 
Q 21.1875 53.8125 27.296875 53.8125 
Q 36.578125 53.8125 42.09375 49.140625 
Q 47.609375 44.484375 47.75 36.03125 
L 47.75 12.203125 
Q 47.75 5.078125 49.75 0.828125 
L 49.75 0 
z
M 24.609375 8.546875 
Q 28.125 8.546875 31.21875 10.25 
Q 34.328125 11.96875 35.890625 14.84375 
L 35.890625 24.8125 
L 29.5 24.8125 
Q 22.90625 24.8125 19.578125 22.515625 
Q 16.265625 20.21875 16.265625 16.015625 
Q 16.265625 12.59375 18.53125 10.5625 
Q 20.796875 8.546875 24.609375 8.546875 
z
" id="Roboto-Medium-97"/>
       </defs>
       <use xlink:href="#Roboto-Medium-110"/>
       <use x="55.615234" xlink:href="#Roboto-Medium-97"/>
       <use x="109.716797" xlink:href="#Roboto-Medium-110"/>
      </g>
     </g>
    </g>
   </g>
   <g id="matplotlib.axis_2">
    <g id="ytick_1">
     <g id="line2d_4">
      <defs>
       <path d="M 0 0 
L -3.5 0 
" id="m3099148a42" style="stroke:#58544f;stroke-width:0.8;"/>
      </defs>
      <g>
       <use style="fill:#58544f;stroke:#58544f;stroke-width:0.8;" x="40.3" xlink:href="#m3099148a42" y="467.786922"/>
      </g>
     </g>
     <g id="text_4">
      <!-- 15000 -->
      <g style="fill:#58544f;" transform="translate(10.5625 470.786922)scale(0.08 -0.08)">
       <defs>
        <path d="M 8.5 35.25 
L 12.359375 71.09375 
L 50.53125 71.09375 
L 50.53125 60.84375 
L 22.21875 60.84375 
L 20.265625 43.84375 
Q 25.203125 46.6875 31.390625 46.6875 
Q 41.546875 46.6875 47.1875 40.1875 
Q 52.828125 33.6875 52.828125 22.703125 
Q 52.828125 11.859375 46.578125 5.4375 
Q 40.328125 -0.984375 29.4375 -0.984375 
Q 19.671875 -0.984375 13.25 4.5625 
Q 6.84375 10.109375 6.296875 19.1875 
L 17.78125 19.1875 
Q 18.453125 14.015625 21.484375 11.25 
Q 24.515625 8.5 29.390625 8.5 
Q 34.859375 8.5 37.90625 12.40625 
Q 40.96875 16.3125 40.96875 23.046875 
Q 40.96875 29.546875 37.59375 33.328125 
Q 34.234375 37.109375 28.328125 37.109375 
Q 25.09375 37.109375 22.84375 36.25 
Q 20.609375 35.40625 17.96875 32.90625 
z
" id="Roboto-Medium-53"/>
       </defs>
       <use xlink:href="#Roboto-Medium-49"/>
       <use x="56.835938" xlink:href="#Roboto-Medium-53"/>
       <use x="113.671875" xlink:href="#Roboto-Medium-48"/>
       <use x="170.507812" xlink:href="#Roboto-Medium-48"/>
       <use x="227.34375" xlink:href="#Roboto-Medium-48"/>
      </g>
     </g>
    </g>
    <g id="ytick_2">
     <g id="line2d_5">
      <g>
       <use style="fill:#58544f;stroke:#58544f;stroke-width:0.8;" x="40.3" xlink:href="#m3099148a42" y="393.851238"/>
      </g>
     </g>
     <g id="text_5">
      <!-- 20000 -->
      <g style="fill:#58544f;" transform="translate(10.5625 396.851238)scale(0.08 -0.08)">
       <defs>
        <path d="M 53.125 0 
L 5.328125 0 
L 5.328125 8.15625 
L 29 33.984375 
Q 34.125 39.703125 36.296875 43.53125 
Q 38.484375 47.359375 38.484375 51.21875 
Q 38.484375 56.296875 35.625 59.421875 
Q 32.765625 62.546875 27.9375 62.546875 
Q 22.171875 62.546875 19 59.03125 
Q 15.828125 55.515625 15.828125 49.421875 
L 3.953125 49.421875 
Q 3.953125 55.90625 6.90625 61.109375 
Q 9.859375 66.3125 15.34375 69.1875 
Q 20.84375 72.078125 28.03125 72.078125 
Q 38.375 72.078125 44.359375 66.875 
Q 50.34375 61.671875 50.34375 52.484375 
Q 50.34375 47.171875 47.34375 41.328125 
Q 44.34375 35.5 37.5 28.078125 
L 20.125 9.46875 
L 53.125 9.46875 
z
" id="Roboto-Medium-50"/>
       </defs>
       <use xlink:href="#Roboto-Medium-50"/>
       <use x="56.835938" xlink:href="#Roboto-Medium-48"/>
       <use x="113.671875" xlink:href="#Roboto-Medium-48"/>
       <use x="170.507812" xlink:href="#Roboto-Medium-48"/>
       <use x="227.34375" xlink:href="#Roboto-Medium-48"/>
      </g>
     </g>
    </g>
    <g id="ytick_3">
     <g id="line2d_6">
      <g>
       <use style="fill:#58544f;stroke:#58544f;stroke-width:0.8;" x="40.3" xlink:href="#m3099148a42" y="319.915554"/>
      </g>
     </g>
     <g id="text_6">
      <!-- 25000 -->
      <g style="fill:#58544f;" transform="translate(10.5625 322.915554)scale(0.08 -0.08)">
       <use xlink:href="#Roboto-Medium-50"/>
       <use x="56.835938" xlink:href="#Roboto-Medium-53"/>
       <use x="113.671875" xlink:href="#Roboto-Medium-48"/>
       <use x="170.507812" xlink:href="#Roboto-Medium-48"/>
       <use x="227.34375" xlink:href="#Roboto-Medium-48"/>
      </g>
     </g>
    </g>
    <g id="ytick_4">
     <g id="line2d_7">
      <g>
       <use style="fill:#58544f;stroke:#58544f;stroke-width:0.8;" x="40.3" xlink:href="#m3099148a42" y="245.97987"/>
      </g>
     </g>
     <g id="text_7">
      <!-- 30000 -->
      <g style="fill:#58544f;" transform="translate(10.5625 248.97987)scale(0.08 -0.08)">
       <defs>
        <path d="M 19.046875 40.96875 
L 26.265625 40.96875 
Q 31.734375 41.015625 34.9375 43.796875 
Q 38.140625 46.578125 38.140625 51.859375 
Q 38.140625 56.9375 35.46875 59.734375 
Q 32.8125 62.546875 27.34375 62.546875 
Q 22.5625 62.546875 19.484375 59.78125 
Q 16.40625 57.03125 16.40625 52.59375 
L 4.546875 52.59375 
Q 4.546875 58.0625 7.453125 62.546875 
Q 10.359375 67.046875 15.546875 69.5625 
Q 20.75 72.078125 27.203125 72.078125 
Q 37.84375 72.078125 43.921875 66.71875 
Q 50 61.375 50 51.859375 
Q 50 47.078125 46.9375 42.84375 
Q 43.890625 38.625 39.0625 36.46875 
Q 44.921875 34.46875 47.96875 30.171875 
Q 51.03125 25.875 51.03125 19.921875 
Q 51.03125 10.359375 44.453125 4.6875 
Q 37.890625 -0.984375 27.203125 -0.984375 
Q 16.9375 -0.984375 10.390625 4.484375 
Q 3.859375 9.96875 3.859375 19.046875 
L 15.71875 19.046875 
Q 15.71875 14.359375 18.859375 11.421875 
Q 22.015625 8.5 27.34375 8.5 
Q 32.859375 8.5 36.03125 11.421875 
Q 39.203125 14.359375 39.203125 19.921875 
Q 39.203125 25.53125 35.875 28.5625 
Q 32.5625 31.59375 26.03125 31.59375 
L 19.046875 31.59375 
z
" id="Roboto-Medium-51"/>
       </defs>
       <use xlink:href="#Roboto-Medium-51"/>
       <use x="56.835938" xlink:href="#Roboto-Medium-48"/>
       <use x="113.671875" xlink:href="#Roboto-Medium-48"/>
       <use x="170.507812" xlink:href="#Roboto-Medium-48"/>
       <use x="227.34375" xlink:href="#Roboto-Medium-48"/>
      </g>
     </g>
    </g>
    <g id="ytick_5">
     <g id="line2d_8">
      <g>
       <use style="fill:#58544f;stroke:#58544f;stroke-width:0.8;" x="40.3" xlink:href="#m3099148a42" y="172.044187"/>
      </g>
     </g>
     <g id="text_8">
      <!-- 35000 -->
      <g style="fill:#58544f;" transform="translate(10.5625 175.044187)scale(0.08 -0.08)">
       <use xlink:href="#Roboto-Medium-51"/>
       <use x="56.835938" xlink:href="#Roboto-Medium-53"/>
       <use x="113.671875" xlink:href="#Roboto-Medium-48"/>
       <use x="170.507812" xlink:href="#Roboto-Medium-48"/>
       <use x="227.34375" xlink:href="#Roboto-Medium-48"/>
      </g>
     </g>
    </g>
    <g id="ytick_6">
     <g id="line2d_9">
      <g>
       <use style="fill:#58544f;stroke:#58544f;stroke-width:0.8;" x="40.3" xlink:href="#m3099148a42" y="98.108503"/>
      </g>
     </g>
     <g id="text_9">
      <!-- 40000 -->
      <g style="fill:#58544f;" transform="translate(10.5625 101.108503)scale(0.08 -0.08)">
       <defs>
        <path d="M 45.453125 25.34375 
L 54.296875 25.34375 
L 54.296875 15.828125 
L 45.453125 15.828125 
L 45.453125 0 
L 33.59375 0 
L 33.59375 15.828125 
L 2.875 15.828125 
L 2.546875 23.046875 
L 33.203125 71.09375 
L 45.453125 71.09375 
z
M 14.984375 25.34375 
L 33.59375 25.34375 
L 33.59375 55.03125 
L 32.71875 53.46875 
z
" id="Roboto-Medium-52"/>
       </defs>
       <use xlink:href="#Roboto-Medium-52"/>
       <use x="56.835938" xlink:href="#Roboto-Medium-48"/>
       <use x="113.671875" xlink:href="#Roboto-Medium-48"/>
       <use x="170.507812" xlink:href="#Roboto-Medium-48"/>
       <use x="227.34375" xlink:href="#Roboto-Medium-48"/>
      </g>
     </g>
    </g>
   </g>
   <g id="line2d_10">
    <path clip-path="url(#pec7fe3e495)" d="M 123.058333 341.124005 
L 123.058333 477.709091 
" style="fill:none;stroke:#3d3d3d;stroke-linecap:square;stroke-width:3;"/>
   </g>
   <g id="line2d_11">
    <path clip-path="url(#pec7fe3e495)" d="M 123.058333 234.094709 
L 123.058333 89.398879 
" style="fill:none;stroke:#3d3d3d;stroke-linecap:square;stroke-width:3;"/>
   </g>
   <g id="line2d_12">
    <path clip-path="url(#pec7fe3e495)" d="M 89.955 477.709091 
L 156.161667 477.709091 
" style="fill:none;stroke:#3d3d3d;stroke-linecap:square;stroke-width:3;"/>
   </g>
   <g id="line2d_13">
    <path clip-path="url(#pec7fe3e495)" d="M 89.955 89.398879 
L 156.161667 89.398879 
" style="fill:none;stroke:#3d3d3d;stroke-linecap:square;stroke-width:3;"/>
   </g>
   <g id="line2d_14">
    <path clip-path="url(#pec7fe3e495)" d="M 288.575 322.636387 
L 288.575 468.866383 
" style="fill:none;stroke:#3d3d3d;stroke-linecap:square;stroke-width:3;"/>
   </g>
   <g id="line2d_15">
    <path clip-path="url(#pec7fe3e495)" d="M 288.575 222.054283 
L 288.575 71.890909 
" style="fill:none;stroke:#3d3d3d;stroke-linecap:square;stroke-width:3;"/>
   </g>
   <g id="line2d_16">
    <path clip-path="url(#pec7fe3e495)" d="M 255.471667 468.866383 
L 321.678333 468.866383 
" style="fill:none;stroke:#3d3d3d;stroke-linecap:square;stroke-width:3;"/>
   </g>
   <g id="line2d_17">
    <path clip-path="url(#pec7fe3e495)" d="M 255.471667 71.890909 
L 321.678333 71.890909 
" style="fill:none;stroke:#3d3d3d;stroke-linecap:square;stroke-width:3;"/>
   </g>
   <g id="line2d_18">
    <path clip-path="url(#pec7fe3e495)" d="M 56.851667 291.912414 
L 189.265 291.912414 
" style="fill:none;stroke:#3d3d3d;stroke-linecap:square;stroke-width:3;"/>
   </g>
   <g id="line2d_19">
    <path clip-path="url(#pec7fe3e495)" d="M 222.368333 265.262297 
L 354.781667 265.262297 
" style="fill:none;stroke:#3d3d3d;stroke-linecap:square;stroke-width:3;"/>
   </g>
   <g id="patch_5">
    <path d="M 40.3 498 
L 40.3 51.6 
" style="fill:none;stroke:#58544f;stroke-linecap:square;stroke-linejoin:miter;stroke-width:0.8;"/>
   </g>
   <g id="patch_6">
    <path d="M 536.85 498 
L 536.85 51.6 
" style="fill:none;stroke:#58544f;stroke-linecap:square;stroke-linejoin:miter;stroke-width:0.8;"/>
   </g>
   <g id="patch_7">
    <path d="M 40.3 498 
L 536.85 498 
" style="fill:none;stroke:#58544f;stroke-linecap:square;stroke-linejoin:miter;stroke-width:0.8;"/>
   </g>
   <g id="patch_8">
    <path d="M 40.3 51.6 
L 536.85 51.6 
" style="fill:none;stroke:#58544f;stroke-linecap:square;stroke-linejoin:miter;stroke-width:0.8;"/>
   </g>
   <g id="text_10">
    <!-- Previsión diaria D+1 demanda for each Signo del desvío -->
    <g style="fill:#262626;" transform="translate(139.10375 45.6)scale(0.12 -0.12)">
     <defs>
      <path d="M 19.578125 26.421875 
L 19.578125 0 
L 7.234375 0 
L 7.234375 71.09375 
L 34.421875 71.09375 
Q 46.34375 71.09375 53.34375 64.890625 
Q 60.359375 58.6875 60.359375 48.484375 
Q 60.359375 38.03125 53.484375 32.21875 
Q 46.625 26.421875 34.28125 26.421875 
z
M 19.578125 36.328125 
L 34.421875 36.328125 
Q 41.015625 36.328125 44.484375 39.421875 
Q 47.953125 42.53125 47.953125 48.390625 
Q 47.953125 54.15625 44.4375 57.59375 
Q 40.921875 61.03125 34.765625 61.140625 
L 19.578125 61.140625 
z
" id="Roboto-Medium-80"/>
      <path d="M 33.734375 42 
Q 31.390625 42.390625 28.90625 42.390625 
Q 20.75 42.390625 17.921875 36.140625 
L 17.921875 0 
L 6.0625 0 
L 6.0625 52.828125 
L 17.390625 52.828125 
L 17.671875 46.921875 
Q 21.96875 53.8125 29.59375 53.8125 
Q 32.125 53.8125 33.796875 53.125 
z
" id="Roboto-Medium-114"/>
      <path d="M 29.34375 -0.984375 
Q 18.0625 -0.984375 11.046875 6.125 
Q 4.046875 13.234375 4.046875 25.046875 
L 4.046875 26.515625 
Q 4.046875 34.421875 7.09375 40.640625 
Q 10.15625 46.875 15.671875 50.34375 
Q 21.1875 53.8125 27.984375 53.8125 
Q 38.765625 53.8125 44.640625 46.921875 
Q 50.53125 40.046875 50.53125 27.4375 
L 50.53125 22.65625 
L 16.015625 22.65625 
Q 16.546875 16.109375 20.375 12.296875 
Q 24.21875 8.5 30.03125 8.5 
Q 38.1875 8.5 43.3125 15.09375 
L 49.703125 8.984375 
Q 46.53125 4.25 41.234375 1.625 
Q 35.9375 -0.984375 29.34375 -0.984375 
z
M 27.9375 44.28125 
Q 23.046875 44.28125 20.046875 40.859375 
Q 17.046875 37.453125 16.21875 31.34375 
L 38.8125 31.34375 
L 38.8125 32.234375 
Q 38.421875 38.1875 35.640625 41.234375 
Q 32.859375 44.28125 27.9375 44.28125 
z
" id="Roboto-Medium-101"/>
      <path d="M 24.703125 15.046875 
L 35.890625 52.828125 
L 48.140625 52.828125 
L 29.828125 0 
L 19.53125 0 
L 1.078125 52.828125 
L 13.375 52.828125 
z
" id="Roboto-Medium-118"/>
      <path d="M 18.703125 0 
L 6.84375 0 
L 6.84375 52.828125 
L 18.703125 52.828125 
z
M 6.109375 66.546875 
Q 6.109375 69.28125 7.84375 71.09375 
Q 9.578125 72.90625 12.796875 72.90625 
Q 16.015625 72.90625 17.765625 71.09375 
Q 19.53125 69.28125 19.53125 66.546875 
Q 19.53125 63.875 17.765625 62.078125 
Q 16.015625 60.296875 12.796875 60.296875 
Q 9.578125 60.296875 7.84375 62.078125 
Q 6.109375 63.875 6.109375 66.546875 
z
" id="Roboto-Medium-105"/>
      <path d="M 35.6875 14.359375 
Q 35.6875 17.53125 33.078125 19.1875 
Q 30.46875 20.84375 24.40625 22.109375 
Q 18.359375 23.390625 14.3125 25.34375 
Q 5.421875 29.640625 5.421875 37.796875 
Q 5.421875 44.625 11.171875 49.21875 
Q 16.9375 53.8125 25.828125 53.8125 
Q 35.296875 53.8125 41.125 49.125 
Q 46.96875 44.4375 46.96875 36.96875 
L 35.109375 36.96875 
Q 35.109375 40.375 32.5625 42.640625 
Q 30.03125 44.921875 25.828125 44.921875 
Q 21.921875 44.921875 19.453125 43.109375 
Q 17 41.3125 17 38.28125 
Q 17 35.546875 19.28125 34.03125 
Q 21.578125 32.515625 28.5625 30.96875 
Q 35.546875 29.4375 39.515625 27.3125 
Q 43.5 25.203125 45.421875 22.21875 
Q 47.359375 19.234375 47.359375 14.984375 
Q 47.359375 7.859375 41.453125 3.4375 
Q 35.546875 -0.984375 25.984375 -0.984375 
Q 19.484375 -0.984375 14.40625 1.359375 
Q 9.328125 3.71875 6.484375 7.8125 
Q 3.65625 11.921875 3.65625 16.65625 
L 15.1875 16.65625 
Q 15.4375 12.453125 18.359375 10.171875 
Q 21.296875 7.90625 26.125 7.90625 
Q 30.8125 7.90625 33.25 9.6875 
Q 35.6875 11.46875 35.6875 14.359375 
z
" id="Roboto-Medium-115"/>
      <path d="M 3.859375 26.90625 
Q 3.859375 34.671875 6.9375 40.890625 
Q 10.015625 47.125 15.578125 50.46875 
Q 21.140625 53.8125 28.375 53.8125 
Q 39.0625 53.8125 45.71875 46.921875 
Q 52.390625 40.046875 52.9375 28.65625 
L 52.984375 25.875 
Q 52.984375 18.0625 49.96875 11.90625 
Q 46.96875 5.765625 41.375 2.390625 
Q 35.796875 -0.984375 28.46875 -0.984375 
Q 17.28125 -0.984375 10.5625 6.46875 
Q 3.859375 13.921875 3.859375 26.3125 
z
M 15.71875 25.875 
Q 15.71875 17.71875 19.09375 13.109375 
Q 22.46875 8.5 28.46875 8.5 
Q 34.46875 8.5 37.8125 13.1875 
Q 41.15625 17.875 41.15625 26.90625 
Q 41.15625 34.90625 37.71875 39.59375 
Q 34.28125 44.28125 28.375 44.28125 
Q 22.5625 44.28125 19.140625 39.671875 
Q 15.71875 35.0625 15.71875 25.875 
z
M 31.640625 75 
L 45.171875 75 
L 31.640625 60.203125 
L 22.125 60.203125 
z
" id="Roboto-Medium-243"/>
      <path id="Roboto-Medium-32"/>
      <path d="M 3.859375 26.8125 
Q 3.859375 39.015625 9.515625 46.40625 
Q 15.1875 53.8125 24.703125 53.8125 
Q 33.109375 53.8125 38.28125 47.953125 
L 38.28125 75 
L 50.140625 75 
L 50.140625 0 
L 39.40625 0 
L 38.8125 5.46875 
Q 33.5 -0.984375 24.609375 -0.984375 
Q 15.328125 -0.984375 9.59375 6.484375 
Q 3.859375 13.96875 3.859375 26.8125 
z
M 15.71875 25.78125 
Q 15.71875 17.71875 18.8125 13.203125 
Q 21.921875 8.6875 27.640625 8.6875 
Q 34.90625 8.6875 38.28125 15.1875 
L 38.28125 37.75 
Q 35.015625 44.09375 27.734375 44.09375 
Q 21.96875 44.09375 18.84375 39.53125 
Q 15.71875 34.96875 15.71875 25.78125 
z
" id="Roboto-Medium-100"/>
      <path d="M 7.234375 0 
L 7.234375 71.09375 
L 28.21875 71.09375 
Q 37.640625 71.09375 44.9375 66.890625 
Q 52.25 62.703125 56.25 54.984375 
Q 60.25 47.265625 60.25 37.3125 
L 60.25 33.734375 
Q 60.25 23.640625 56.21875 15.96875 
Q 52.203125 8.296875 44.75 4.140625 
Q 37.3125 0 27.6875 0 
z
M 19.578125 61.140625 
L 19.578125 9.859375 
L 27.640625 9.859375 
Q 37.359375 9.859375 42.546875 15.9375 
Q 47.75 22.015625 47.859375 33.40625 
L 47.859375 37.359375 
Q 47.859375 48.921875 42.828125 55.03125 
Q 37.796875 61.140625 28.21875 61.140625 
z
" id="Roboto-Medium-68"/>
      <path d="M 33.5 39.109375 
L 52.046875 39.109375 
L 52.046875 28.265625 
L 33.5 28.265625 
L 33.5 7.125 
L 21.96875 7.125 
L 21.96875 28.265625 
L 3.328125 28.265625 
L 3.328125 39.109375 
L 21.96875 39.109375 
L 21.96875 58.890625 
L 33.5 58.890625 
z
" id="Roboto-Medium-43"/>
      <path d="M 17.234375 52.828125 
L 17.578125 47.3125 
Q 23.140625 53.8125 32.8125 53.8125 
Q 43.40625 53.8125 47.3125 45.703125 
Q 53.078125 53.8125 63.53125 53.8125 
Q 72.265625 53.8125 76.53125 48.96875 
Q 80.8125 44.140625 80.90625 34.71875 
L 80.90625 0 
L 69.046875 0 
L 69.046875 34.375 
Q 69.046875 39.40625 66.84375 41.75 
Q 64.65625 44.09375 59.578125 44.09375 
Q 55.515625 44.09375 52.953125 41.921875 
Q 50.390625 39.75 49.359375 36.234375 
L 49.421875 0 
L 37.546875 0 
L 37.546875 34.765625 
Q 37.3125 44.09375 28.03125 44.09375 
Q 20.90625 44.09375 17.921875 38.28125 
L 17.921875 0 
L 6.0625 0 
L 6.0625 52.828125 
z
" id="Roboto-Medium-109"/>
      <path d="M 10.25 0 
L 10.25 44.046875 
L 2.203125 44.046875 
L 2.203125 52.828125 
L 10.25 52.828125 
L 10.25 57.671875 
Q 10.25 66.453125 15.125 71.234375 
Q 20.015625 76.03125 28.8125 76.03125 
Q 31.9375 76.03125 35.453125 75.140625 
L 35.15625 65.875 
Q 33.203125 66.265625 30.609375 66.265625 
Q 22.125 66.265625 22.125 57.515625 
L 22.125 52.828125 
L 32.859375 52.828125 
L 32.859375 44.046875 
L 22.125 44.046875 
L 22.125 0 
z
" id="Roboto-Medium-102"/>
      <path d="M 3.859375 26.90625 
Q 3.859375 34.671875 6.9375 40.890625 
Q 10.015625 47.125 15.578125 50.46875 
Q 21.140625 53.8125 28.375 53.8125 
Q 39.0625 53.8125 45.71875 46.921875 
Q 52.390625 40.046875 52.9375 28.65625 
L 52.984375 25.875 
Q 52.984375 18.0625 49.96875 11.90625 
Q 46.96875 5.765625 41.375 2.390625 
Q 35.796875 -0.984375 28.46875 -0.984375 
Q 17.28125 -0.984375 10.5625 6.46875 
Q 3.859375 13.921875 3.859375 26.3125 
z
M 15.71875 25.875 
Q 15.71875 17.71875 19.09375 13.109375 
Q 22.46875 8.5 28.46875 8.5 
Q 34.46875 8.5 37.8125 13.1875 
Q 41.15625 17.875 41.15625 26.90625 
Q 41.15625 34.90625 37.71875 39.59375 
Q 34.28125 44.28125 28.375 44.28125 
Q 22.5625 44.28125 19.140625 39.671875 
Q 15.71875 35.0625 15.71875 25.875 
z
" id="Roboto-Medium-111"/>
      <path d="M 27.78125 8.5 
Q 32.234375 8.5 35.15625 11.078125 
Q 38.09375 13.671875 38.28125 17.484375 
L 49.46875 17.484375 
Q 49.265625 12.546875 46.375 8.265625 
Q 43.5 4 38.5625 1.5 
Q 33.640625 -0.984375 27.9375 -0.984375 
Q 16.84375 -0.984375 10.34375 6.1875 
Q 3.859375 13.375 3.859375 26.03125 
L 3.859375 27.25 
Q 3.859375 39.3125 10.296875 46.5625 
Q 16.75 53.8125 27.875 53.8125 
Q 37.3125 53.8125 43.234375 48.3125 
Q 49.171875 42.828125 49.46875 33.890625 
L 38.28125 33.890625 
Q 38.09375 38.421875 35.1875 41.34375 
Q 32.28125 44.28125 27.78125 44.28125 
Q 22.015625 44.28125 18.890625 40.109375 
Q 15.765625 35.9375 15.71875 27.4375 
L 15.71875 25.53125 
Q 15.71875 16.9375 18.8125 12.71875 
Q 21.921875 8.5 27.78125 8.5 
z
" id="Roboto-Medium-99"/>
      <path d="M 17.78125 47.078125 
Q 23.578125 53.8125 32.46875 53.8125 
Q 49.359375 53.8125 49.609375 34.515625 
L 49.609375 0 
L 37.75 0 
L 37.75 34.078125 
Q 37.75 39.546875 35.375 41.8125 
Q 33.015625 44.09375 28.421875 44.09375 
Q 21.296875 44.09375 17.78125 37.75 
L 17.78125 0 
L 5.90625 0 
L 5.90625 75 
L 17.78125 75 
z
" id="Roboto-Medium-104"/>
      <path d="M 44.390625 18.3125 
Q 44.390625 23 41.09375 25.53125 
Q 37.796875 28.078125 29.203125 30.65625 
Q 20.609375 33.25 15.53125 36.421875 
Q 5.8125 42.53125 5.8125 52.34375 
Q 5.8125 60.9375 12.8125 66.5 
Q 19.828125 72.078125 31 72.078125 
Q 38.421875 72.078125 44.234375 69.34375 
Q 50.046875 66.609375 53.359375 61.546875 
Q 56.6875 56.5 56.6875 50.34375 
L 44.390625 50.34375 
Q 44.390625 55.90625 40.890625 59.046875 
Q 37.40625 62.203125 30.90625 62.203125 
Q 24.859375 62.203125 21.515625 59.609375 
Q 18.171875 57.03125 18.171875 52.390625 
Q 18.171875 48.484375 21.78125 45.875 
Q 25.390625 43.265625 33.6875 40.796875 
Q 42 38.328125 47.015625 35.171875 
Q 52.046875 32.03125 54.390625 27.953125 
Q 56.734375 23.875 56.734375 18.40625 
Q 56.734375 9.515625 49.921875 4.265625 
Q 43.109375 -0.984375 31.453125 -0.984375 
Q 23.734375 -0.984375 17.265625 1.875 
Q 10.796875 4.734375 7.203125 9.765625 
Q 3.609375 14.796875 3.609375 21.484375 
L 15.96875 21.484375 
Q 15.96875 15.4375 19.96875 12.109375 
Q 23.96875 8.796875 31.453125 8.796875 
Q 37.890625 8.796875 41.140625 11.40625 
Q 44.390625 14.015625 44.390625 18.3125 
z
" id="Roboto-Medium-83"/>
      <path d="M 4 26.8125 
Q 4 39.109375 9.78125 46.453125 
Q 15.578125 53.8125 25.140625 53.8125 
Q 34.1875 53.8125 39.359375 47.515625 
L 39.890625 52.828125 
L 50.59375 52.828125 
L 50.59375 1.609375 
Q 50.59375 -8.796875 44.109375 -14.796875 
Q 37.640625 -20.796875 26.65625 -20.796875 
Q 20.84375 -20.796875 15.296875 -18.375 
Q 9.765625 -15.96875 6.890625 -12.0625 
L 12.5 -4.9375 
Q 17.96875 -11.421875 25.984375 -11.421875 
Q 31.890625 -11.421875 35.296875 -8.21875 
Q 38.71875 -5.03125 38.71875 1.171875 
L 38.71875 4.734375 
Q 33.59375 -0.984375 25.046875 -0.984375 
Q 15.765625 -0.984375 9.875 6.390625 
Q 4 13.765625 4 26.8125 
z
M 15.828125 25.78125 
Q 15.828125 17.828125 19.0625 13.25 
Q 22.3125 8.6875 28.078125 8.6875 
Q 35.25 8.6875 38.71875 14.84375 
L 38.71875 38.09375 
Q 35.359375 44.09375 28.171875 44.09375 
Q 22.3125 44.09375 19.0625 39.453125 
Q 15.828125 34.8125 15.828125 25.78125 
z
" id="Roboto-Medium-103"/>
      <path d="M 18.703125 0 
L 6.84375 0 
L 6.84375 75 
L 18.703125 75 
z
" id="Roboto-Medium-108"/>
      <path d="M 18.84375 0 
L 6.984375 0 
L 6.984375 52.828125 
L 18.84375 52.828125 
z
M 16.609375 74.65625 
L 30.125 74.65625 
L 16.609375 59.859375 
L 7.078125 59.859375 
z
" id="Roboto-Medium-237"/>
     </defs>
     <use xlink:href="#Roboto-Medium-80"/>
     <use x="63.916016" xlink:href="#Roboto-Medium-114"/>
     <use x="99.072266" xlink:href="#Roboto-Medium-101"/>
     <use x="152.734375" xlink:href="#Roboto-Medium-118"/>
     <use x="202.197266" xlink:href="#Roboto-Medium-105"/>
     <use x="227.734375" xlink:href="#Roboto-Medium-115"/>
     <use x="279.345703" xlink:href="#Roboto-Medium-105"/>
     <use x="304.882812" xlink:href="#Roboto-Medium-243"/>
     <use x="361.816406" xlink:href="#Roboto-Medium-110"/>
     <use x="417.431641" xlink:href="#Roboto-Medium-32"/>
     <use x="442.333984" xlink:href="#Roboto-Medium-100"/>
     <use x="498.779297" xlink:href="#Roboto-Medium-105"/>
     <use x="524.316406" xlink:href="#Roboto-Medium-97"/>
     <use x="578.417969" xlink:href="#Roboto-Medium-114"/>
     <use x="613.574219" xlink:href="#Roboto-Medium-105"/>
     <use x="639.111328" xlink:href="#Roboto-Medium-97"/>
     <use x="693.212891" xlink:href="#Roboto-Medium-32"/>
     <use x="718.115234" xlink:href="#Roboto-Medium-68"/>
     <use x="783.447266" xlink:href="#Roboto-Medium-43"/>
     <use x="839.160156" xlink:href="#Roboto-Medium-49"/>
     <use x="895.996094" xlink:href="#Roboto-Medium-32"/>
     <use x="920.898438" xlink:href="#Roboto-Medium-100"/>
     <use x="977.34375" xlink:href="#Roboto-Medium-101"/>
     <use x="1031.005859" xlink:href="#Roboto-Medium-109"/>
     <use x="1118.017578" xlink:href="#Roboto-Medium-97"/>
     <use x="1172.119141" xlink:href="#Roboto-Medium-110"/>
     <use x="1227.734375" xlink:href="#Roboto-Medium-100"/>
     <use x="1284.179688" xlink:href="#Roboto-Medium-97"/>
     <use x="1338.28125" xlink:href="#Roboto-Medium-32"/>
     <use x="1363.183594" xlink:href="#Roboto-Medium-102"/>
     <use x="1398.632812" xlink:href="#Roboto-Medium-111"/>
     <use x="1455.566406" xlink:href="#Roboto-Medium-114"/>
     <use x="1490.722656" xlink:href="#Roboto-Medium-32"/>
     <use x="1515.625" xlink:href="#Roboto-Medium-101"/>
     <use x="1569.287109" xlink:href="#Roboto-Medium-97"/>
     <use x="1623.388672" xlink:href="#Roboto-Medium-99"/>
     <use x="1675.732422" xlink:href="#Roboto-Medium-104"/>
     <use x="1731.25" xlink:href="#Roboto-Medium-32"/>
     <use x="1756.152344" xlink:href="#Roboto-Medium-83"/>
     <use x="1816.503906" xlink:href="#Roboto-Medium-105"/>
     <use x="1842.041016" xlink:href="#Roboto-Medium-103"/>
     <use x="1898.730469" xlink:href="#Roboto-Medium-110"/>
     <use x="1954.345703" xlink:href="#Roboto-Medium-111"/>
     <use x="2011.279297" xlink:href="#Roboto-Medium-32"/>
     <use x="2036.181641" xlink:href="#Roboto-Medium-100"/>
     <use x="2092.626953" xlink:href="#Roboto-Medium-101"/>
     <use x="2146.289062" xlink:href="#Roboto-Medium-108"/>
     <use x="2171.826172" xlink:href="#Roboto-Medium-32"/>
     <use x="2196.728516" xlink:href="#Roboto-Medium-100"/>
     <use x="2253.173828" xlink:href="#Roboto-Medium-101"/>
     <use x="2306.835938" xlink:href="#Roboto-Medium-115"/>
     <use x="2358.447266" xlink:href="#Roboto-Medium-118"/>
     <use x="2407.910156" xlink:href="#Roboto-Medium-237"/>
     <use x="2434.179688" xlink:href="#Roboto-Medium-111"/>
    </g>
   </g>
  </g>
  <g id="axes_2">
   <g id="patch_9">
    <path d="M 572.65 498 
L 1069.2 498 
L 1069.2 51.6 
L 572.65 51.6 
z
" style="fill:#ffffff;"/>
   </g>
   <g id="patch_10">
    <path clip-path="url(#p495d50e353)" d="M 589.201667 477.709091 
L 721.615 477.709091 
L 721.615 322.82219 
L 589.201667 322.82219 
L 589.201667 477.709091 
z
" style="fill:#3b7fb2;stroke:#3d3d3d;stroke-linejoin:miter;stroke-width:3;"/>
   </g>
   <g id="patch_11">
    <path clip-path="url(#p495d50e353)" d="M 754.718333 477.709091 
L 887.131667 477.709091 
L 887.131667 315.273987 
L 754.718333 315.273987 
L 754.718333 477.709091 
z
" style="fill:#c88458;stroke:#3d3d3d;stroke-linejoin:miter;stroke-width:3;"/>
   </g>
   <g id="matplotlib.axis_3">
    <g id="xtick_4">
     <g id="line2d_20">
      <g>
       <use style="fill:#58544f;stroke:#58544f;stroke-width:0.8;" x="655.408333" xlink:href="#m3a7f73e5af" y="498"/>
      </g>
     </g>
     <g id="text_11">
      <!-- -1.0 -->
      <g style="fill:#58544f;" transform="translate(648.430833 511)scale(0.08 -0.08)">
       <use xlink:href="#Roboto-Medium-45"/>
       <use x="32.8125" xlink:href="#Roboto-Medium-49"/>
       <use x="89.648438" xlink:href="#Roboto-Medium-46"/>
       <use x="117.578125" xlink:href="#Roboto-Medium-48"/>
      </g>
     </g>
    </g>
    <g id="xtick_5">
     <g id="line2d_21">
      <g>
       <use style="fill:#58544f;stroke:#58544f;stroke-width:0.8;" x="820.925" xlink:href="#m3a7f73e5af" y="498"/>
      </g>
     </g>
     <g id="text_12">
      <!-- 1.0 -->
      <g style="fill:#58544f;" transform="translate(815.26 511)scale(0.08 -0.08)">
       <use xlink:href="#Roboto-Medium-49"/>
       <use x="56.835938" xlink:href="#Roboto-Medium-46"/>
       <use x="84.765625" xlink:href="#Roboto-Medium-48"/>
      </g>
     </g>
    </g>
    <g id="xtick_6">
     <g id="line2d_22">
      <g>
       <use style="fill:#58544f;stroke:#58544f;stroke-width:0.8;" x="986.441667" xlink:href="#m3a7f73e5af" y="498"/>
      </g>
     </g>
     <g id="text_13">
      <!-- nan -->
      <g style="fill:#58544f;" transform="translate(979.828542 511)scale(0.08 -0.08)">
       <use xlink:href="#Roboto-Medium-110"/>
       <use x="55.615234" xlink:href="#Roboto-Medium-97"/>
       <use x="109.716797" xlink:href="#Roboto-Medium-110"/>
      </g>
     </g>
    </g>
   </g>
   <g id="matplotlib.axis_4">
    <g id="ytick_7">
     <g id="line2d_23">
      <g>
       <use style="fill:#58544f;stroke:#58544f;stroke-width:0.8;" x="572.65" xlink:href="#m3099148a42" y="477.709091"/>
      </g>
     </g>
     <g id="text_14">
      <!-- 0 -->
      <g style="fill:#58544f;" transform="translate(561.1025 480.709091)scale(0.08 -0.08)">
       <use xlink:href="#Roboto-Medium-48"/>
      </g>
     </g>
    </g>
    <g id="ytick_8">
     <g id="line2d_24">
      <g>
       <use style="fill:#58544f;stroke:#58544f;stroke-width:0.8;" x="572.65" xlink:href="#m3099148a42" y="384.750922"/>
      </g>
     </g>
     <g id="text_15">
      <!-- 2000 -->
      <g style="fill:#58544f;" transform="translate(547.46 387.750922)scale(0.08 -0.08)">
       <use xlink:href="#Roboto-Medium-50"/>
       <use x="56.835938" xlink:href="#Roboto-Medium-48"/>
       <use x="113.671875" xlink:href="#Roboto-Medium-48"/>
       <use x="170.507812" xlink:href="#Roboto-Medium-48"/>
      </g>
     </g>
    </g>
    <g id="ytick_9">
     <g id="line2d_25">
      <g>
       <use style="fill:#58544f;stroke:#58544f;stroke-width:0.8;" x="572.65" xlink:href="#m3099148a42" y="291.792753"/>
      </g>
     </g>
     <g id="text_16">
      <!-- 4000 -->
      <g style="fill:#58544f;" transform="translate(547.46 294.792753)scale(0.08 -0.08)">
       <use xlink:href="#Roboto-Medium-52"/>
       <use x="56.835938" xlink:href="#Roboto-Medium-48"/>
       <use x="113.671875" xlink:href="#Roboto-Medium-48"/>
       <use x="170.507812" xlink:href="#Roboto-Medium-48"/>
      </g>
     </g>
    </g>
    <g id="ytick_10">
     <g id="line2d_26">
      <g>
       <use style="fill:#58544f;stroke:#58544f;stroke-width:0.8;" x="572.65" xlink:href="#m3099148a42" y="198.834584"/>
      </g>
     </g>
     <g id="text_17">
      <!-- 6000 -->
      <g style="fill:#58544f;" transform="translate(547.46 201.834584)scale(0.08 -0.08)">
       <defs>
        <path d="M 42.234375 71.4375 
L 42.234375 61.625 
L 40.765625 61.625 
Q 30.8125 61.46875 24.84375 56.140625 
Q 18.890625 50.828125 17.78125 41.0625 
Q 23.484375 47.078125 32.375 47.078125 
Q 41.796875 47.078125 47.234375 40.4375 
Q 52.6875 33.796875 52.6875 23.296875 
Q 52.6875 12.453125 46.3125 5.734375 
Q 39.9375 -0.984375 29.59375 -0.984375 
Q 18.953125 -0.984375 12.328125 6.875 
Q 5.71875 14.75 5.71875 27.484375 
L 5.71875 31.546875 
Q 5.71875 50.25 14.8125 60.84375 
Q 23.921875 71.4375 41.015625 71.4375 
z
M 29.5 37.5 
Q 25.59375 37.5 22.34375 35.296875 
Q 19.09375 33.109375 17.578125 29.4375 
L 17.578125 25.828125 
Q 17.578125 17.921875 20.890625 13.25 
Q 24.21875 8.59375 29.484375 8.59375 
Q 34.765625 8.59375 37.84375 12.546875 
Q 40.921875 16.5 40.921875 22.9375 
Q 40.921875 29.390625 37.796875 33.4375 
Q 34.671875 37.5 29.5 37.5 
z
" id="Roboto-Medium-54"/>
       </defs>
       <use xlink:href="#Roboto-Medium-54"/>
       <use x="56.835938" xlink:href="#Roboto-Medium-48"/>
       <use x="113.671875" xlink:href="#Roboto-Medium-48"/>
       <use x="170.507812" xlink:href="#Roboto-Medium-48"/>
      </g>
     </g>
    </g>
    <g id="ytick_11">
     <g id="line2d_27">
      <g>
       <use style="fill:#58544f;stroke:#58544f;stroke-width:0.8;" x="572.65" xlink:href="#m3099148a42" y="105.876416"/>
      </g>
     </g>
     <g id="text_18">
      <!-- 8000 -->
      <g style="fill:#58544f;" transform="translate(547.46 108.876416)scale(0.08 -0.08)">
       <defs>
        <path d="M 50.09375 52.34375 
Q 50.09375 47.125 47.40625 43.046875 
Q 44.734375 38.96875 40.09375 36.625 
Q 45.65625 34.03125 48.65625 29.53125 
Q 51.65625 25.046875 51.65625 19.390625 
Q 51.65625 10.015625 45.3125 4.515625 
Q 38.96875 -0.984375 28.421875 -0.984375 
Q 17.828125 -0.984375 11.453125 4.53125 
Q 5.078125 10.0625 5.078125 19.390625 
Q 5.078125 25.09375 8.109375 29.640625 
Q 11.140625 34.1875 16.609375 36.625 
Q 12.015625 38.96875 9.34375 43.046875 
Q 6.6875 47.125 6.6875 52.34375 
Q 6.6875 61.421875 12.546875 66.75 
Q 18.40625 72.078125 28.375 72.078125 
Q 38.375 72.078125 44.234375 66.75 
Q 50.09375 61.421875 50.09375 52.34375 
z
M 39.796875 19.96875 
Q 39.796875 25.25 36.640625 28.484375 
Q 33.5 31.734375 28.3125 31.734375 
Q 23.140625 31.734375 20.03125 28.515625 
Q 16.9375 25.296875 16.9375 19.96875 
Q 16.9375 14.75 19.984375 11.625 
Q 23.046875 8.5 28.421875 8.5 
Q 33.796875 8.5 36.796875 11.515625 
Q 39.796875 14.546875 39.796875 19.96875 
z
M 38.28125 51.90625 
Q 38.28125 56.546875 35.59375 59.546875 
Q 32.90625 62.546875 28.359375 62.546875 
Q 23.828125 62.546875 21.1875 59.6875 
Q 18.5625 56.84375 18.5625 51.90625 
Q 18.5625 47.015625 21.21875 44.140625 
Q 23.875 41.265625 28.40625 41.265625 
Q 32.953125 41.265625 35.609375 44.140625 
Q 38.28125 47.015625 38.28125 51.90625 
z
" id="Roboto-Medium-56"/>
       </defs>
       <use xlink:href="#Roboto-Medium-56"/>
       <use x="56.835938" xlink:href="#Roboto-Medium-48"/>
       <use x="113.671875" xlink:href="#Roboto-Medium-48"/>
       <use x="170.507812" xlink:href="#Roboto-Medium-48"/>
      </g>
     </g>
    </g>
   </g>
   <g id="line2d_28">
    <path clip-path="url(#p495d50e353)" d="M 655.408333 477.709091 
L 655.408333 477.709091 
" style="fill:none;stroke:#3d3d3d;stroke-linecap:square;stroke-width:3;"/>
   </g>
   <g id="line2d_29">
    <path clip-path="url(#p495d50e353)" d="M 655.408333 322.82219 
L 655.408333 90.640572 
" style="fill:none;stroke:#3d3d3d;stroke-linecap:square;stroke-width:3;"/>
   </g>
   <g id="line2d_30">
    <path clip-path="url(#p495d50e353)" d="M 622.305 477.709091 
L 688.511667 477.709091 
" style="fill:none;stroke:#3d3d3d;stroke-linecap:square;stroke-width:3;"/>
   </g>
   <g id="line2d_31">
    <path clip-path="url(#p495d50e353)" d="M 622.305 90.640572 
L 688.511667 90.640572 
" style="fill:none;stroke:#3d3d3d;stroke-linecap:square;stroke-width:3;"/>
   </g>
   <g id="line2d_32">
    <path clip-path="url(#p495d50e353)" d="M 820.925 477.709091 
L 820.925 477.709091 
" style="fill:none;stroke:#3d3d3d;stroke-linecap:square;stroke-width:3;"/>
   </g>
   <g id="line2d_33">
    <path clip-path="url(#p495d50e353)" d="M 820.925 315.273987 
L 820.925 71.890909 
" style="fill:none;stroke:#3d3d3d;stroke-linecap:square;stroke-width:3;"/>
   </g>
   <g id="line2d_34">
    <path clip-path="url(#p495d50e353)" d="M 787.821667 477.709091 
L 854.028333 477.709091 
" style="fill:none;stroke:#3d3d3d;stroke-linecap:square;stroke-width:3;"/>
   </g>
   <g id="line2d_35">
    <path clip-path="url(#p495d50e353)" d="M 787.821667 71.890909 
L 854.028333 71.890909 
" style="fill:none;stroke:#3d3d3d;stroke-linecap:square;stroke-width:3;"/>
   </g>
   <g id="line2d_36">
    <path clip-path="url(#p495d50e353)" d="M 589.201667 477.709091 
L 721.615 477.709091 
" style="fill:none;stroke:#3d3d3d;stroke-linecap:square;stroke-width:3;"/>
   </g>
   <g id="line2d_37">
    <path clip-path="url(#p495d50e353)" d="M 754.718333 447.418672 
L 887.131667 447.418672 
" style="fill:none;stroke:#3d3d3d;stroke-linecap:square;stroke-width:3;"/>
   </g>
   <g id="patch_12">
    <path d="M 572.65 498 
L 572.65 51.6 
" style="fill:none;stroke:#58544f;stroke-linecap:square;stroke-linejoin:miter;stroke-width:0.8;"/>
   </g>
   <g id="patch_13">
    <path d="M 1069.2 498 
L 1069.2 51.6 
" style="fill:none;stroke:#58544f;stroke-linecap:square;stroke-linejoin:miter;stroke-width:0.8;"/>
   </g>
   <g id="patch_14">
    <path d="M 572.65 498 
L 1069.2 498 
" style="fill:none;stroke:#58544f;stroke-linecap:square;stroke-linejoin:miter;stroke-width:0.8;"/>
   </g>
   <g id="patch_15">
    <path d="M 572.65 51.6 
L 1069.2 51.6 
" style="fill:none;stroke:#58544f;stroke-linecap:square;stroke-linejoin:miter;stroke-width:0.8;"/>
   </g>
   <g id="text_19">
    <!-- Previsión diaria D+1 fotovoltaica for each Signo del desvío -->
    <g style="fill:#262626;" transform="translate(664.466563 45.6)scale(0.12 -0.12)">
     <defs>
      <path d="M 20.953125 65.671875 
L 20.953125 52.828125 
L 30.28125 52.828125 
L 30.28125 44.046875 
L 20.953125 44.046875 
L 20.953125 14.546875 
Q 20.953125 11.53125 22.140625 10.1875 
Q 23.34375 8.84375 26.421875 8.84375 
Q 28.46875 8.84375 30.5625 9.328125 
L 30.5625 0.140625 
Q 26.515625 -0.984375 22.75 -0.984375 
Q 9.078125 -0.984375 9.078125 14.109375 
L 9.078125 44.046875 
L 0.390625 44.046875 
L 0.390625 52.828125 
L 9.078125 52.828125 
L 9.078125 65.671875 
z
" id="Roboto-Medium-116"/>
     </defs>
     <use xlink:href="#Roboto-Medium-80"/>
     <use x="63.916016" xlink:href="#Roboto-Medium-114"/>
     <use x="99.072266" xlink:href="#Roboto-Medium-101"/>
     <use x="152.734375" xlink:href="#Roboto-Medium-118"/>
     <use x="202.197266" xlink:href="#Roboto-Medium-105"/>
     <use x="227.734375" xlink:href="#Roboto-Medium-115"/>
     <use x="279.345703" xlink:href="#Roboto-Medium-105"/>
     <use x="304.882812" xlink:href="#Roboto-Medium-243"/>
     <use x="361.816406" xlink:href="#Roboto-Medium-110"/>
     <use x="417.431641" xlink:href="#Roboto-Medium-32"/>
     <use x="442.333984" xlink:href="#Roboto-Medium-100"/>
     <use x="498.779297" xlink:href="#Roboto-Medium-105"/>
     <use x="524.316406" xlink:href="#Roboto-Medium-97"/>
     <use x="578.417969" xlink:href="#Roboto-Medium-114"/>
     <use x="613.574219" xlink:href="#Roboto-Medium-105"/>
     <use x="639.111328" xlink:href="#Roboto-Medium-97"/>
     <use x="693.212891" xlink:href="#Roboto-Medium-32"/>
     <use x="718.115234" xlink:href="#Roboto-Medium-68"/>
     <use x="783.447266" xlink:href="#Roboto-Medium-43"/>
     <use x="839.160156" xlink:href="#Roboto-Medium-49"/>
     <use x="895.996094" xlink:href="#Roboto-Medium-32"/>
     <use x="920.898438" xlink:href="#Roboto-Medium-102"/>
     <use x="956.347656" xlink:href="#Roboto-Medium-111"/>
     <use x="1013.28125" xlink:href="#Roboto-Medium-116"/>
     <use x="1046.533203" xlink:href="#Roboto-Medium-111"/>
     <use x="1103.466797" xlink:href="#Roboto-Medium-118"/>
     <use x="1152.929688" xlink:href="#Roboto-Medium-111"/>
     <use x="1209.863281" xlink:href="#Roboto-Medium-108"/>
     <use x="1235.400391" xlink:href="#Roboto-Medium-116"/>
     <use x="1268.652344" xlink:href="#Roboto-Medium-97"/>
     <use x="1322.753906" xlink:href="#Roboto-Medium-105"/>
     <use x="1348.291016" xlink:href="#Roboto-Medium-99"/>
     <use x="1400.634766" xlink:href="#Roboto-Medium-97"/>
     <use x="1454.736328" xlink:href="#Roboto-Medium-32"/>
     <use x="1479.638672" xlink:href="#Roboto-Medium-102"/>
     <use x="1515.087891" xlink:href="#Roboto-Medium-111"/>
     <use x="1572.021484" xlink:href="#Roboto-Medium-114"/>
     <use x="1607.177734" xlink:href="#Roboto-Medium-32"/>
     <use x="1632.080078" xlink:href="#Roboto-Medium-101"/>
     <use x="1685.742188" xlink:href="#Roboto-Medium-97"/>
     <use x="1739.84375" xlink:href="#Roboto-Medium-99"/>
     <use x="1792.1875" xlink:href="#Roboto-Medium-104"/>
     <use x="1847.705078" xlink:href="#Roboto-Medium-32"/>
     <use x="1872.607422" xlink:href="#Roboto-Medium-83"/>
     <use x="1932.958984" xlink:href="#Roboto-Medium-105"/>
     <use x="1958.496094" xlink:href="#Roboto-Medium-103"/>
     <use x="2015.185547" xlink:href="#Roboto-Medium-110"/>
     <use x="2070.800781" xlink:href="#Roboto-Medium-111"/>
     <use x="2127.734375" xlink:href="#Roboto-Medium-32"/>
     <use x="2152.636719" xlink:href="#Roboto-Medium-100"/>
     <use x="2209.082031" xlink:href="#Roboto-Medium-101"/>
     <use x="2262.744141" xlink:href="#Roboto-Medium-108"/>
     <use x="2288.28125" xlink:href="#Roboto-Medium-32"/>
     <use x="2313.183594" xlink:href="#Roboto-Medium-100"/>
     <use x="2369.628906" xlink:href="#Roboto-Medium-101"/>
     <use x="2423.291016" xlink:href="#Roboto-Medium-115"/>
     <use x="2474.902344" xlink:href="#Roboto-Medium-118"/>
     <use x="2524.365234" xlink:href="#Roboto-Medium-237"/>
     <use x="2550.634766" xlink:href="#Roboto-Medium-111"/>
    </g>
   </g>
  </g>
  <g id="axes_3">
   <g id="patch_16">
    <path d="M 40.3 984.2 
L 536.85 984.2 
L 536.85 537.8 
L 40.3 537.8 
z
" style="fill:#ffffff;"/>
   </g>
   <g id="patch_17">
    <path clip-path="url(#pb9e0900ceb)" d="M 56.851667 875.109945 
L 189.265 875.109945 
L 189.265 748.261341 
L 56.851667 748.261341 
L 56.851667 875.109945 
z
" style="fill:#3b7fb2;stroke:#3d3d3d;stroke-linejoin:miter;stroke-width:3;"/>
   </g>
   <g id="patch_18">
    <path clip-path="url(#pb9e0900ceb)" d="M 222.368333 888.719623 
L 354.781667 888.719623 
L 354.781667 763.907668 
L 222.368333 763.907668 
L 222.368333 888.719623 
z
" style="fill:#c88458;stroke:#3d3d3d;stroke-linejoin:miter;stroke-width:3;"/>
   </g>
   <g id="matplotlib.axis_5">
    <g id="xtick_7">
     <g id="line2d_38">
      <g>
       <use style="fill:#58544f;stroke:#58544f;stroke-width:0.8;" x="123.058333" xlink:href="#m3a7f73e5af" y="984.2"/>
      </g>
     </g>
     <g id="text_20">
      <!-- -1.0 -->
      <g style="fill:#58544f;" transform="translate(116.080833 997.2)scale(0.08 -0.08)">
       <use xlink:href="#Roboto-Medium-45"/>
       <use x="32.8125" xlink:href="#Roboto-Medium-49"/>
       <use x="89.648438" xlink:href="#Roboto-Medium-46"/>
       <use x="117.578125" xlink:href="#Roboto-Medium-48"/>
      </g>
     </g>
    </g>
    <g id="xtick_8">
     <g id="line2d_39">
      <g>
       <use style="fill:#58544f;stroke:#58544f;stroke-width:0.8;" x="288.575" xlink:href="#m3a7f73e5af" y="984.2"/>
      </g>
     </g>
     <g id="text_21">
      <!-- 1.0 -->
      <g style="fill:#58544f;" transform="translate(282.91 997.2)scale(0.08 -0.08)">
       <use xlink:href="#Roboto-Medium-49"/>
       <use x="56.835938" xlink:href="#Roboto-Medium-46"/>
       <use x="84.765625" xlink:href="#Roboto-Medium-48"/>
      </g>
     </g>
    </g>
    <g id="xtick_9">
     <g id="line2d_40">
      <g>
       <use style="fill:#58544f;stroke:#58544f;stroke-width:0.8;" x="454.091667" xlink:href="#m3a7f73e5af" y="984.2"/>
      </g>
     </g>
     <g id="text_22">
      <!-- nan -->
      <g style="fill:#58544f;" transform="translate(447.478542 997.2)scale(0.08 -0.08)">
       <use xlink:href="#Roboto-Medium-110"/>
       <use x="55.615234" xlink:href="#Roboto-Medium-97"/>
       <use x="109.716797" xlink:href="#Roboto-Medium-110"/>
      </g>
     </g>
    </g>
   </g>
   <g id="matplotlib.axis_6">
    <g id="ytick_12">
     <g id="line2d_41">
      <g>
       <use style="fill:#58544f;stroke:#58544f;stroke-width:0.8;" x="40.3" xlink:href="#m3099148a42" y="972.824231"/>
      </g>
     </g>
     <g id="text_23">
      <!-- 0 -->
      <g style="fill:#58544f;" transform="translate(28.7525 975.824231)scale(0.08 -0.08)">
       <use xlink:href="#Roboto-Medium-48"/>
      </g>
     </g>
    </g>
    <g id="ytick_13">
     <g id="line2d_42">
      <g>
       <use style="fill:#58544f;stroke:#58544f;stroke-width:0.8;" x="40.3" xlink:href="#m3099148a42" y="921.587796"/>
      </g>
     </g>
     <g id="text_24">
      <!-- 2000 -->
      <g style="fill:#58544f;" transform="translate(15.11 924.587796)scale(0.08 -0.08)">
       <use xlink:href="#Roboto-Medium-50"/>
       <use x="56.835938" xlink:href="#Roboto-Medium-48"/>
       <use x="113.671875" xlink:href="#Roboto-Medium-48"/>
       <use x="170.507812" xlink:href="#Roboto-Medium-48"/>
      </g>
     </g>
    </g>
    <g id="ytick_14">
     <g id="line2d_43">
      <g>
       <use style="fill:#58544f;stroke:#58544f;stroke-width:0.8;" x="40.3" xlink:href="#m3099148a42" y="870.351361"/>
      </g>
     </g>
     <g id="text_25">
      <!-- 4000 -->
      <g style="fill:#58544f;" transform="translate(15.11 873.351361)scale(0.08 -0.08)">
       <use xlink:href="#Roboto-Medium-52"/>
       <use x="56.835938" xlink:href="#Roboto-Medium-48"/>
       <use x="113.671875" xlink:href="#Roboto-Medium-48"/>
       <use x="170.507812" xlink:href="#Roboto-Medium-48"/>
      </g>
     </g>
    </g>
    <g id="ytick_15">
     <g id="line2d_44">
      <g>
       <use style="fill:#58544f;stroke:#58544f;stroke-width:0.8;" x="40.3" xlink:href="#m3099148a42" y="819.114926"/>
      </g>
     </g>
     <g id="text_26">
      <!-- 6000 -->
      <g style="fill:#58544f;" transform="translate(15.11 822.114926)scale(0.08 -0.08)">
       <use xlink:href="#Roboto-Medium-54"/>
       <use x="56.835938" xlink:href="#Roboto-Medium-48"/>
       <use x="113.671875" xlink:href="#Roboto-Medium-48"/>
       <use x="170.507812" xlink:href="#Roboto-Medium-48"/>
      </g>
     </g>
    </g>
    <g id="ytick_16">
     <g id="line2d_45">
      <g>
       <use style="fill:#58544f;stroke:#58544f;stroke-width:0.8;" x="40.3" xlink:href="#m3099148a42" y="767.878491"/>
      </g>
     </g>
     <g id="text_27">
      <!-- 8000 -->
      <g style="fill:#58544f;" transform="translate(15.11 770.878491)scale(0.08 -0.08)">
       <use xlink:href="#Roboto-Medium-56"/>
       <use x="56.835938" xlink:href="#Roboto-Medium-48"/>
       <use x="113.671875" xlink:href="#Roboto-Medium-48"/>
       <use x="170.507812" xlink:href="#Roboto-Medium-48"/>
      </g>
     </g>
    </g>
    <g id="ytick_17">
     <g id="line2d_46">
      <g>
       <use style="fill:#58544f;stroke:#58544f;stroke-width:0.8;" x="40.3" xlink:href="#m3099148a42" y="716.642057"/>
      </g>
     </g>
     <g id="text_28">
      <!-- 10000 -->
      <g style="fill:#58544f;" transform="translate(10.5625 719.642057)scale(0.08 -0.08)">
       <use xlink:href="#Roboto-Medium-49"/>
       <use x="56.835938" xlink:href="#Roboto-Medium-48"/>
       <use x="113.671875" xlink:href="#Roboto-Medium-48"/>
       <use x="170.507812" xlink:href="#Roboto-Medium-48"/>
       <use x="227.34375" xlink:href="#Roboto-Medium-48"/>
      </g>
     </g>
    </g>
    <g id="ytick_18">
     <g id="line2d_47">
      <g>
       <use style="fill:#58544f;stroke:#58544f;stroke-width:0.8;" x="40.3" xlink:href="#m3099148a42" y="665.405622"/>
      </g>
     </g>
     <g id="text_29">
      <!-- 12000 -->
      <g style="fill:#58544f;" transform="translate(10.5625 668.405622)scale(0.08 -0.08)">
       <use xlink:href="#Roboto-Medium-49"/>
       <use x="56.835938" xlink:href="#Roboto-Medium-50"/>
       <use x="113.671875" xlink:href="#Roboto-Medium-48"/>
       <use x="170.507812" xlink:href="#Roboto-Medium-48"/>
       <use x="227.34375" xlink:href="#Roboto-Medium-48"/>
      </g>
     </g>
    </g>
    <g id="ytick_19">
     <g id="line2d_48">
      <g>
       <use style="fill:#58544f;stroke:#58544f;stroke-width:0.8;" x="40.3" xlink:href="#m3099148a42" y="614.169187"/>
      </g>
     </g>
     <g id="text_30">
      <!-- 14000 -->
      <g style="fill:#58544f;" transform="translate(10.5625 617.169187)scale(0.08 -0.08)">
       <use xlink:href="#Roboto-Medium-49"/>
       <use x="56.835938" xlink:href="#Roboto-Medium-52"/>
       <use x="113.671875" xlink:href="#Roboto-Medium-48"/>
       <use x="170.507812" xlink:href="#Roboto-Medium-48"/>
       <use x="227.34375" xlink:href="#Roboto-Medium-48"/>
      </g>
     </g>
    </g>
    <g id="ytick_20">
     <g id="line2d_49">
      <g>
       <use style="fill:#58544f;stroke:#58544f;stroke-width:0.8;" x="40.3" xlink:href="#m3099148a42" y="562.932752"/>
      </g>
     </g>
     <g id="text_31">
      <!-- 16000 -->
      <g style="fill:#58544f;" transform="translate(10.5625 565.932752)scale(0.08 -0.08)">
       <use xlink:href="#Roboto-Medium-49"/>
       <use x="56.835938" xlink:href="#Roboto-Medium-54"/>
       <use x="113.671875" xlink:href="#Roboto-Medium-48"/>
       <use x="170.507812" xlink:href="#Roboto-Medium-48"/>
       <use x="227.34375" xlink:href="#Roboto-Medium-48"/>
      </g>
     </g>
    </g>
   </g>
   <g id="line2d_50">
    <path clip-path="url(#pb9e0900ceb)" d="M 123.058333 875.109945 
L 123.058333 962.935599 
" style="fill:none;stroke:#3d3d3d;stroke-linecap:square;stroke-width:3;"/>
   </g>
   <g id="line2d_51">
    <path clip-path="url(#pb9e0900ceb)" d="M 123.058333 748.261341 
L 123.058333 558.090909 
" style="fill:none;stroke:#3d3d3d;stroke-linecap:square;stroke-width:3;"/>
   </g>
   <g id="line2d_52">
    <path clip-path="url(#pb9e0900ceb)" d="M 89.955 962.935599 
L 156.161667 962.935599 
" style="fill:none;stroke:#3d3d3d;stroke-linecap:square;stroke-width:3;"/>
   </g>
   <g id="line2d_53">
    <path clip-path="url(#pb9e0900ceb)" d="M 89.955 558.090909 
L 156.161667 558.090909 
" style="fill:none;stroke:#3d3d3d;stroke-linecap:square;stroke-width:3;"/>
   </g>
   <g id="line2d_54">
    <path clip-path="url(#pb9e0900ceb)" d="M 288.575 888.719623 
L 288.575 963.909091 
" style="fill:none;stroke:#3d3d3d;stroke-linecap:square;stroke-width:3;"/>
   </g>
   <g id="line2d_55">
    <path clip-path="url(#pb9e0900ceb)" d="M 288.575 763.907668 
L 288.575 576.894681 
" style="fill:none;stroke:#3d3d3d;stroke-linecap:square;stroke-width:3;"/>
   </g>
   <g id="line2d_56">
    <path clip-path="url(#pb9e0900ceb)" d="M 255.471667 963.909091 
L 321.678333 963.909091 
" style="fill:none;stroke:#3d3d3d;stroke-linecap:square;stroke-width:3;"/>
   </g>
   <g id="line2d_57">
    <path clip-path="url(#pb9e0900ceb)" d="M 255.471667 576.894681 
L 321.678333 576.894681 
" style="fill:none;stroke:#3d3d3d;stroke-linecap:square;stroke-width:3;"/>
   </g>
   <g id="line2d_58">
    <path clip-path="url(#pb9e0900ceb)" d="M 56.851667 821.971357 
L 189.265 821.971357 
" style="fill:none;stroke:#3d3d3d;stroke-linecap:square;stroke-width:3;"/>
   </g>
   <g id="line2d_59">
    <path clip-path="url(#pb9e0900ceb)" d="M 222.368333 837.816225 
L 354.781667 837.816225 
" style="fill:none;stroke:#3d3d3d;stroke-linecap:square;stroke-width:3;"/>
   </g>
   <g id="patch_19">
    <path d="M 40.3 984.2 
L 40.3 537.8 
" style="fill:none;stroke:#58544f;stroke-linecap:square;stroke-linejoin:miter;stroke-width:0.8;"/>
   </g>
   <g id="patch_20">
    <path d="M 536.85 984.2 
L 536.85 537.8 
" style="fill:none;stroke:#58544f;stroke-linecap:square;stroke-linejoin:miter;stroke-width:0.8;"/>
   </g>
   <g id="patch_21">
    <path d="M 40.3 984.2 
L 536.85 984.2 
" style="fill:none;stroke:#58544f;stroke-linecap:square;stroke-linejoin:miter;stroke-width:0.8;"/>
   </g>
   <g id="patch_22">
    <path d="M 40.3 537.8 
L 536.85 537.8 
" style="fill:none;stroke:#58544f;stroke-linecap:square;stroke-linejoin:miter;stroke-width:0.8;"/>
   </g>
   <g id="text_32">
    <!-- Previsión diaria D+1 eólica for each Signo del desvío -->
    <g style="fill:#262626;" transform="translate(148.061562 531.8)scale(0.12 -0.12)">
     <use xlink:href="#Roboto-Medium-80"/>
     <use x="63.916016" xlink:href="#Roboto-Medium-114"/>
     <use x="99.072266" xlink:href="#Roboto-Medium-101"/>
     <use x="152.734375" xlink:href="#Roboto-Medium-118"/>
     <use x="202.197266" xlink:href="#Roboto-Medium-105"/>
     <use x="227.734375" xlink:href="#Roboto-Medium-115"/>
     <use x="279.345703" xlink:href="#Roboto-Medium-105"/>
     <use x="304.882812" xlink:href="#Roboto-Medium-243"/>
     <use x="361.816406" xlink:href="#Roboto-Medium-110"/>
     <use x="417.431641" xlink:href="#Roboto-Medium-32"/>
     <use x="442.333984" xlink:href="#Roboto-Medium-100"/>
     <use x="498.779297" xlink:href="#Roboto-Medium-105"/>
     <use x="524.316406" xlink:href="#Roboto-Medium-97"/>
     <use x="578.417969" xlink:href="#Roboto-Medium-114"/>
     <use x="613.574219" xlink:href="#Roboto-Medium-105"/>
     <use x="639.111328" xlink:href="#Roboto-Medium-97"/>
     <use x="693.212891" xlink:href="#Roboto-Medium-32"/>
     <use x="718.115234" xlink:href="#Roboto-Medium-68"/>
     <use x="783.447266" xlink:href="#Roboto-Medium-43"/>
     <use x="839.160156" xlink:href="#Roboto-Medium-49"/>
     <use x="895.996094" xlink:href="#Roboto-Medium-32"/>
     <use x="920.898438" xlink:href="#Roboto-Medium-101"/>
     <use x="974.560547" xlink:href="#Roboto-Medium-243"/>
     <use x="1031.494141" xlink:href="#Roboto-Medium-108"/>
     <use x="1057.03125" xlink:href="#Roboto-Medium-105"/>
     <use x="1082.568359" xlink:href="#Roboto-Medium-99"/>
     <use x="1134.912109" xlink:href="#Roboto-Medium-97"/>
     <use x="1189.013672" xlink:href="#Roboto-Medium-32"/>
     <use x="1213.916016" xlink:href="#Roboto-Medium-102"/>
     <use x="1249.365234" xlink:href="#Roboto-Medium-111"/>
     <use x="1306.298828" xlink:href="#Roboto-Medium-114"/>
     <use x="1341.455078" xlink:href="#Roboto-Medium-32"/>
     <use x="1366.357422" xlink:href="#Roboto-Medium-101"/>
     <use x="1420.019531" xlink:href="#Roboto-Medium-97"/>
     <use x="1474.121094" xlink:href="#Roboto-Medium-99"/>
     <use x="1526.464844" xlink:href="#Roboto-Medium-104"/>
     <use x="1581.982422" xlink:href="#Roboto-Medium-32"/>
     <use x="1606.884766" xlink:href="#Roboto-Medium-83"/>
     <use x="1667.236328" xlink:href="#Roboto-Medium-105"/>
     <use x="1692.773438" xlink:href="#Roboto-Medium-103"/>
     <use x="1749.462891" xlink:href="#Roboto-Medium-110"/>
     <use x="1805.078125" xlink:href="#Roboto-Medium-111"/>
     <use x="1862.011719" xlink:href="#Roboto-Medium-32"/>
     <use x="1886.914062" xlink:href="#Roboto-Medium-100"/>
     <use x="1943.359375" xlink:href="#Roboto-Medium-101"/>
     <use x="1997.021484" xlink:href="#Roboto-Medium-108"/>
     <use x="2022.558594" xlink:href="#Roboto-Medium-32"/>
     <use x="2047.460938" xlink:href="#Roboto-Medium-100"/>
     <use x="2103.90625" xlink:href="#Roboto-Medium-101"/>
     <use x="2157.568359" xlink:href="#Roboto-Medium-115"/>
     <use x="2209.179688" xlink:href="#Roboto-Medium-118"/>
     <use x="2258.642578" xlink:href="#Roboto-Medium-237"/>
     <use x="2284.912109" xlink:href="#Roboto-Medium-111"/>
    </g>
   </g>
  </g>
  <g id="axes_4">
   <g id="patch_23">
    <path d="M 572.65 984.2 
L 1069.2 984.2 
L 1069.2 537.8 
L 572.65 537.8 
z
" style="fill:#ffffff;"/>
   </g>
   <g id="patch_24">
    <path clip-path="url(#pb4d3c5e8f4)" d="M 589.201667 906.898157 
L 721.615 906.898157 
L 721.615 802.963525 
L 589.201667 802.963525 
L 589.201667 906.898157 
z
" style="fill:#3b7fb2;stroke:#3d3d3d;stroke-linejoin:miter;stroke-width:3;"/>
   </g>
   <g id="patch_25">
    <path clip-path="url(#pb4d3c5e8f4)" d="M 754.718333 900.940516 
L 887.131667 900.940516 
L 887.131667 763.794463 
L 754.718333 763.794463 
L 754.718333 900.940516 
z
" style="fill:#c88458;stroke:#3d3d3d;stroke-linejoin:miter;stroke-width:3;"/>
   </g>
   <g id="matplotlib.axis_7">
    <g id="xtick_10">
     <g id="line2d_60">
      <g>
       <use style="fill:#58544f;stroke:#58544f;stroke-width:0.8;" x="655.408333" xlink:href="#m3a7f73e5af" y="984.2"/>
      </g>
     </g>
     <g id="text_33">
      <!-- -1.0 -->
      <g style="fill:#58544f;" transform="translate(648.430833 997.2)scale(0.08 -0.08)">
       <use xlink:href="#Roboto-Medium-45"/>
       <use x="32.8125" xlink:href="#Roboto-Medium-49"/>
       <use x="89.648438" xlink:href="#Roboto-Medium-46"/>
       <use x="117.578125" xlink:href="#Roboto-Medium-48"/>
      </g>
     </g>
    </g>
    <g id="xtick_11">
     <g id="line2d_61">
      <g>
       <use style="fill:#58544f;stroke:#58544f;stroke-width:0.8;" x="820.925" xlink:href="#m3a7f73e5af" y="984.2"/>
      </g>
     </g>
     <g id="text_34">
      <!-- 1.0 -->
      <g style="fill:#58544f;" transform="translate(815.26 997.2)scale(0.08 -0.08)">
       <use xlink:href="#Roboto-Medium-49"/>
       <use x="56.835938" xlink:href="#Roboto-Medium-46"/>
       <use x="84.765625" xlink:href="#Roboto-Medium-48"/>
      </g>
     </g>
    </g>
    <g id="xtick_12">
     <g id="line2d_62">
      <g>
       <use style="fill:#58544f;stroke:#58544f;stroke-width:0.8;" x="986.441667" xlink:href="#m3a7f73e5af" y="984.2"/>
      </g>
     </g>
     <g id="text_35">
      <!-- nan -->
      <g style="fill:#58544f;" transform="translate(979.828542 997.2)scale(0.08 -0.08)">
       <use xlink:href="#Roboto-Medium-110"/>
       <use x="55.615234" xlink:href="#Roboto-Medium-97"/>
       <use x="109.716797" xlink:href="#Roboto-Medium-110"/>
      </g>
     </g>
    </g>
   </g>
   <g id="matplotlib.axis_8">
    <g id="ytick_21">
     <g id="line2d_63">
      <g>
       <use style="fill:#58544f;stroke:#58544f;stroke-width:0.8;" x="572.65" xlink:href="#m3099148a42" y="963.924616"/>
      </g>
     </g>
     <g id="text_36">
      <!-- 0 -->
      <g style="fill:#58544f;" transform="translate(561.1025 966.924616)scale(0.08 -0.08)">
       <use xlink:href="#Roboto-Medium-48"/>
      </g>
     </g>
    </g>
    <g id="ytick_22">
     <g id="line2d_64">
      <g>
       <use style="fill:#58544f;stroke:#58544f;stroke-width:0.8;" x="572.65" xlink:href="#m3099148a42" y="886.300633"/>
      </g>
     </g>
     <g id="text_37">
      <!-- 50 -->
      <g style="fill:#58544f;" transform="translate(556.555 889.300633)scale(0.08 -0.08)">
       <use xlink:href="#Roboto-Medium-53"/>
       <use x="56.835938" xlink:href="#Roboto-Medium-48"/>
      </g>
     </g>
    </g>
    <g id="ytick_23">
     <g id="line2d_65">
      <g>
       <use style="fill:#58544f;stroke:#58544f;stroke-width:0.8;" x="572.65" xlink:href="#m3099148a42" y="808.67665"/>
      </g>
     </g>
     <g id="text_38">
      <!-- 100 -->
      <g style="fill:#58544f;" transform="translate(552.0075 811.67665)scale(0.08 -0.08)">
       <use xlink:href="#Roboto-Medium-49"/>
       <use x="56.835938" xlink:href="#Roboto-Medium-48"/>
       <use x="113.671875" xlink:href="#Roboto-Medium-48"/>
      </g>
     </g>
    </g>
    <g id="ytick_24">
     <g id="line2d_66">
      <g>
       <use style="fill:#58544f;stroke:#58544f;stroke-width:0.8;" x="572.65" xlink:href="#m3099148a42" y="731.052667"/>
      </g>
     </g>
     <g id="text_39">
      <!-- 150 -->
      <g style="fill:#58544f;" transform="translate(552.0075 734.052667)scale(0.08 -0.08)">
       <use xlink:href="#Roboto-Medium-49"/>
       <use x="56.835938" xlink:href="#Roboto-Medium-53"/>
       <use x="113.671875" xlink:href="#Roboto-Medium-48"/>
      </g>
     </g>
    </g>
    <g id="ytick_25">
     <g id="line2d_67">
      <g>
       <use style="fill:#58544f;stroke:#58544f;stroke-width:0.8;" x="572.65" xlink:href="#m3099148a42" y="653.428685"/>
      </g>
     </g>
     <g id="text_40">
      <!-- 200 -->
      <g style="fill:#58544f;" transform="translate(552.0075 656.428685)scale(0.08 -0.08)">
       <use xlink:href="#Roboto-Medium-50"/>
       <use x="56.835938" xlink:href="#Roboto-Medium-48"/>
       <use x="113.671875" xlink:href="#Roboto-Medium-48"/>
      </g>
     </g>
    </g>
    <g id="ytick_26">
     <g id="line2d_68">
      <g>
       <use style="fill:#58544f;stroke:#58544f;stroke-width:0.8;" x="572.65" xlink:href="#m3099148a42" y="575.804702"/>
      </g>
     </g>
     <g id="text_41">
      <!-- 250 -->
      <g style="fill:#58544f;" transform="translate(552.0075 578.804702)scale(0.08 -0.08)">
       <use xlink:href="#Roboto-Medium-50"/>
       <use x="56.835938" xlink:href="#Roboto-Medium-53"/>
       <use x="113.671875" xlink:href="#Roboto-Medium-48"/>
      </g>
     </g>
    </g>
   </g>
   <g id="line2d_69">
    <path clip-path="url(#pb4d3c5e8f4)" d="M 655.408333 906.898157 
L 655.408333 963.909091 
" style="fill:none;stroke:#3d3d3d;stroke-linecap:square;stroke-width:3;"/>
   </g>
   <g id="line2d_70">
    <path clip-path="url(#pb4d3c5e8f4)" d="M 655.408333 802.963525 
L 655.408333 647.156667 
" style="fill:none;stroke:#3d3d3d;stroke-linecap:square;stroke-width:3;"/>
   </g>
   <g id="line2d_71">
    <path clip-path="url(#pb4d3c5e8f4)" d="M 622.305 963.909091 
L 688.511667 963.909091 
" style="fill:none;stroke:#3d3d3d;stroke-linecap:square;stroke-width:3;"/>
   </g>
   <g id="line2d_72">
    <path clip-path="url(#pb4d3c5e8f4)" d="M 622.305 647.156667 
L 688.511667 647.156667 
" style="fill:none;stroke:#3d3d3d;stroke-linecap:square;stroke-width:3;"/>
   </g>
   <g id="line2d_73">
    <path clip-path="url(#pb4d3c5e8f4)" d="M 820.925 900.940516 
L 820.925 963.878041 
" style="fill:none;stroke:#3d3d3d;stroke-linecap:square;stroke-width:3;"/>
   </g>
   <g id="line2d_74">
    <path clip-path="url(#pb4d3c5e8f4)" d="M 820.925 763.794463 
L 820.925 558.090909 
" style="fill:none;stroke:#3d3d3d;stroke-linecap:square;stroke-width:3;"/>
   </g>
   <g id="line2d_75">
    <path clip-path="url(#pb4d3c5e8f4)" d="M 787.821667 963.878041 
L 854.028333 963.878041 
" style="fill:none;stroke:#3d3d3d;stroke-linecap:square;stroke-width:3;"/>
   </g>
   <g id="line2d_76">
    <path clip-path="url(#pb4d3c5e8f4)" d="M 787.821667 558.090909 
L 854.028333 558.090909 
" style="fill:none;stroke:#3d3d3d;stroke-linecap:square;stroke-width:3;"/>
   </g>
   <g id="line2d_77">
    <path clip-path="url(#pb4d3c5e8f4)" d="M 589.201667 886.285108 
L 721.615 886.285108 
" style="fill:none;stroke:#3d3d3d;stroke-linecap:square;stroke-width:3;"/>
   </g>
   <g id="line2d_78">
    <path clip-path="url(#pb4d3c5e8f4)" d="M 754.718333 878.864255 
L 887.131667 878.864255 
" style="fill:none;stroke:#3d3d3d;stroke-linecap:square;stroke-width:3;"/>
   </g>
   <g id="patch_26">
    <path d="M 572.65 984.2 
L 572.65 537.8 
" style="fill:none;stroke:#58544f;stroke-linecap:square;stroke-linejoin:miter;stroke-width:0.8;"/>
   </g>
   <g id="patch_27">
    <path d="M 1069.2 984.2 
L 1069.2 537.8 
" style="fill:none;stroke:#58544f;stroke-linecap:square;stroke-linejoin:miter;stroke-width:0.8;"/>
   </g>
   <g id="patch_28">
    <path d="M 572.65 984.2 
L 1069.2 984.2 
" style="fill:none;stroke:#58544f;stroke-linecap:square;stroke-linejoin:miter;stroke-width:0.8;"/>
   </g>
   <g id="patch_29">
    <path d="M 572.65 537.8 
L 1069.2 537.8 
" style="fill:none;stroke:#58544f;stroke-linecap:square;stroke-linejoin:miter;stroke-width:0.8;"/>
   </g>
   <g id="text_42">
    <!-- Precio mercado SPOT Diario for each Signo del desvío -->
    <g style="fill:#262626;" transform="translate(675.280625 531.8)scale(0.12 -0.12)">
     <defs>
      <path d="M 63.96875 33.6875 
Q 63.96875 23.25 60.34375 15.359375 
Q 56.734375 7.46875 50.015625 3.234375 
Q 43.3125 -0.984375 34.578125 -0.984375 
Q 25.921875 -0.984375 19.15625 3.234375 
Q 12.40625 7.46875 8.71875 15.28125 
Q 5.03125 23.09375 4.984375 33.296875 
L 4.984375 37.3125 
Q 4.984375 47.703125 8.671875 55.65625 
Q 12.359375 63.625 19.0625 67.84375 
Q 25.78125 72.078125 34.46875 72.078125 
Q 43.171875 72.078125 49.875 67.890625 
Q 56.59375 63.71875 60.25 55.875 
Q 63.921875 48.046875 63.96875 37.640625 
z
M 51.609375 37.40625 
Q 51.609375 49.21875 47.140625 55.515625 
Q 42.671875 61.8125 34.46875 61.8125 
Q 26.46875 61.8125 21.953125 55.53125 
Q 17.4375 49.265625 17.328125 37.796875 
L 17.328125 33.6875 
Q 17.328125 21.96875 21.890625 15.578125 
Q 26.46875 9.1875 34.578125 9.1875 
Q 42.78125 9.1875 47.1875 15.4375 
Q 51.609375 21.6875 51.609375 33.6875 
z
" id="Roboto-Medium-79"/>
      <path d="M 58.59375 61.140625 
L 36.421875 61.140625 
L 36.421875 0 
L 24.171875 0 
L 24.171875 61.140625 
L 2.203125 61.140625 
L 2.203125 71.09375 
L 58.59375 71.09375 
z
" id="Roboto-Medium-84"/>
     </defs>
     <use xlink:href="#Roboto-Medium-80"/>
     <use x="63.916016" xlink:href="#Roboto-Medium-114"/>
     <use x="99.072266" xlink:href="#Roboto-Medium-101"/>
     <use x="152.734375" xlink:href="#Roboto-Medium-99"/>
     <use x="205.078125" xlink:href="#Roboto-Medium-105"/>
     <use x="230.615234" xlink:href="#Roboto-Medium-111"/>
     <use x="287.548828" xlink:href="#Roboto-Medium-32"/>
     <use x="312.451172" xlink:href="#Roboto-Medium-109"/>
     <use x="399.462891" xlink:href="#Roboto-Medium-101"/>
     <use x="453.125" xlink:href="#Roboto-Medium-114"/>
     <use x="488.28125" xlink:href="#Roboto-Medium-99"/>
     <use x="540.625" xlink:href="#Roboto-Medium-97"/>
     <use x="594.726562" xlink:href="#Roboto-Medium-100"/>
     <use x="651.171875" xlink:href="#Roboto-Medium-111"/>
     <use x="708.105469" xlink:href="#Roboto-Medium-32"/>
     <use x="733.007812" xlink:href="#Roboto-Medium-83"/>
     <use x="793.359375" xlink:href="#Roboto-Medium-80"/>
     <use x="857.275391" xlink:href="#Roboto-Medium-79"/>
     <use x="926.318359" xlink:href="#Roboto-Medium-84"/>
     <use x="987.011719" xlink:href="#Roboto-Medium-32"/>
     <use x="1011.914062" xlink:href="#Roboto-Medium-68"/>
     <use x="1077.246094" xlink:href="#Roboto-Medium-105"/>
     <use x="1102.783203" xlink:href="#Roboto-Medium-97"/>
     <use x="1156.884766" xlink:href="#Roboto-Medium-114"/>
     <use x="1192.041016" xlink:href="#Roboto-Medium-105"/>
     <use x="1217.578125" xlink:href="#Roboto-Medium-111"/>
     <use x="1274.511719" xlink:href="#Roboto-Medium-32"/>
     <use x="1299.414062" xlink:href="#Roboto-Medium-102"/>
     <use x="1334.863281" xlink:href="#Roboto-Medium-111"/>
     <use x="1391.796875" xlink:href="#Roboto-Medium-114"/>
     <use x="1426.953125" xlink:href="#Roboto-Medium-32"/>
     <use x="1451.855469" xlink:href="#Roboto-Medium-101"/>
     <use x="1505.517578" xlink:href="#Roboto-Medium-97"/>
     <use x="1559.619141" xlink:href="#Roboto-Medium-99"/>
     <use x="1611.962891" xlink:href="#Roboto-Medium-104"/>
     <use x="1667.480469" xlink:href="#Roboto-Medium-32"/>
     <use x="1692.382812" xlink:href="#Roboto-Medium-83"/>
     <use x="1752.734375" xlink:href="#Roboto-Medium-105"/>
     <use x="1778.271484" xlink:href="#Roboto-Medium-103"/>
     <use x="1834.960938" xlink:href="#Roboto-Medium-110"/>
     <use x="1890.576172" xlink:href="#Roboto-Medium-111"/>
     <use x="1947.509766" xlink:href="#Roboto-Medium-32"/>
     <use x="1972.412109" xlink:href="#Roboto-Medium-100"/>
     <use x="2028.857422" xlink:href="#Roboto-Medium-101"/>
     <use x="2082.519531" xlink:href="#Roboto-Medium-108"/>
     <use x="2108.056641" xlink:href="#Roboto-Medium-32"/>
     <use x="2132.958984" xlink:href="#Roboto-Medium-100"/>
     <use x="2189.404297" xlink:href="#Roboto-Medium-101"/>
     <use x="2243.066406" xlink:href="#Roboto-Medium-115"/>
     <use x="2294.677734" xlink:href="#Roboto-Medium-118"/>
     <use x="2344.140625" xlink:href="#Roboto-Medium-237"/>
     <use x="2370.410156" xlink:href="#Roboto-Medium-111"/>
    </g>
   </g>
  </g>
  <g id="text_43">
   <!-- Box Plots without Outliers shown -->
   <g style="fill:#262626;" transform="translate(429.083203 31.41)scale(0.15 -0.15)">
    <defs>
     <path d="M 7.234375 0 
L 7.234375 71.09375 
L 31.59375 71.09375 
Q 43.65625 71.09375 49.953125 66.25 
Q 56.25 61.421875 56.25 51.859375 
Q 56.25 46.96875 53.609375 43.0625 
Q 50.984375 39.15625 45.90625 37.015625 
Q 51.65625 35.453125 54.796875 31.125 
Q 57.953125 26.8125 57.953125 20.75 
Q 57.953125 10.75 51.53125 5.375 
Q 45.125 0 33.15625 0 
z
M 19.578125 32.078125 
L 19.578125 9.859375 
L 33.296875 9.859375 
Q 39.109375 9.859375 42.375 12.734375 
Q 45.65625 15.625 45.65625 20.75 
Q 45.65625 31.84375 34.328125 32.078125 
z
M 19.578125 41.15625 
L 31.6875 41.15625 
Q 37.453125 41.15625 40.703125 43.765625 
Q 43.953125 46.390625 43.953125 51.171875 
Q 43.953125 56.453125 40.9375 58.796875 
Q 37.9375 61.140625 31.59375 61.140625 
L 19.578125 61.140625 
z
" id="Roboto-Medium-66"/>
     <path d="M 25.046875 35.453125 
L 35.109375 52.828125 
L 48.296875 52.828125 
L 32.125 26.8125 
L 48.828125 0 
L 35.75 0 
L 25.203125 18.0625 
L 14.703125 0 
L 1.515625 0 
L 18.21875 26.8125 
L 2.09375 52.828125 
L 15.1875 52.828125 
z
" id="Roboto-Medium-120"/>
     <path d="M 52.484375 16.359375 
L 60.890625 52.828125 
L 72.46875 52.828125 
L 58.0625 0 
L 48.296875 0 
L 36.96875 36.28125 
L 25.828125 0 
L 16.0625 0 
L 1.609375 52.828125 
L 13.1875 52.828125 
L 21.734375 16.75 
L 32.5625 52.828125 
L 41.5 52.828125 
z
" id="Roboto-Medium-119"/>
     <path d="M 38.09375 5.171875 
Q 32.859375 -0.984375 23.25 -0.984375 
Q 14.65625 -0.984375 10.234375 4.046875 
Q 5.8125 9.078125 5.8125 18.609375 
L 5.8125 52.828125 
L 17.671875 52.828125 
L 17.671875 18.75 
Q 17.671875 8.6875 26.03125 8.6875 
Q 34.671875 8.6875 37.703125 14.890625 
L 37.703125 52.828125 
L 49.5625 52.828125 
L 49.5625 0 
L 38.375 0 
z
" id="Roboto-Medium-117"/>
    </defs>
    <use xlink:href="#Roboto-Medium-66"/>
    <use x="63.085938" xlink:href="#Roboto-Medium-111"/>
    <use x="120.019531" xlink:href="#Roboto-Medium-120"/>
    <use x="170.3125" xlink:href="#Roboto-Medium-32"/>
    <use x="195.214844" xlink:href="#Roboto-Medium-80"/>
    <use x="259.130859" xlink:href="#Roboto-Medium-108"/>
    <use x="284.667969" xlink:href="#Roboto-Medium-111"/>
    <use x="341.601562" xlink:href="#Roboto-Medium-116"/>
    <use x="374.853516" xlink:href="#Roboto-Medium-115"/>
    <use x="426.464844" xlink:href="#Roboto-Medium-32"/>
    <use x="451.367188" xlink:href="#Roboto-Medium-119"/>
    <use x="525.683594" xlink:href="#Roboto-Medium-105"/>
    <use x="551.220703" xlink:href="#Roboto-Medium-116"/>
    <use x="584.472656" xlink:href="#Roboto-Medium-104"/>
    <use x="639.990234" xlink:href="#Roboto-Medium-111"/>
    <use x="696.923828" xlink:href="#Roboto-Medium-117"/>
    <use x="752.490234" xlink:href="#Roboto-Medium-116"/>
    <use x="785.742188" xlink:href="#Roboto-Medium-32"/>
    <use x="810.644531" xlink:href="#Roboto-Medium-79"/>
    <use x="879.6875" xlink:href="#Roboto-Medium-117"/>
    <use x="935.253906" xlink:href="#Roboto-Medium-116"/>
    <use x="968.505859" xlink:href="#Roboto-Medium-108"/>
    <use x="994.042969" xlink:href="#Roboto-Medium-105"/>
    <use x="1019.580078" xlink:href="#Roboto-Medium-101"/>
    <use x="1073.242188" xlink:href="#Roboto-Medium-114"/>
    <use x="1108.398438" xlink:href="#Roboto-Medium-115"/>
    <use x="1160.009766" xlink:href="#Roboto-Medium-32"/>
    <use x="1184.912109" xlink:href="#Roboto-Medium-115"/>
    <use x="1236.523438" xlink:href="#Roboto-Medium-104"/>
    <use x="1292.041016" xlink:href="#Roboto-Medium-111"/>
    <use x="1348.974609" xlink:href="#Roboto-Medium-119"/>
    <use x="1423.291016" xlink:href="#Roboto-Medium-110"/>
   </g>
  </g>
 </g>
 <defs>
  <clipPath id="pec7fe3e495">
   <rect height="446.4" width="496.55" x="40.3" y="51.6"/>
  </clipPath>
  <clipPath id="p495d50e353">
   <rect height="446.4" width="496.55" x="572.65" y="51.6"/>
  </clipPath>
  <clipPath id="pb9e0900ceb">
   <rect height="446.4" width="496.55" x="40.3" y="537.8"/>
  </clipPath>
  <clipPath id="pb4d3c5e8f4">
   <rect height="446.4" width="496.55" x="572.65" y="537.8"/>
  </clipPath>
 </defs>
</svg>
